<?xml version="1.0" encoding="UTF-8" standalone="no"?>
<!-- Created with Inkscape (http://www.inkscape.org/) -->

<svg
   xmlns:dc="http://purl.org/dc/elements/1.1/"
   xmlns:cc="http://creativecommons.org/ns#"
   xmlns:rdf="http://www.w3.org/1999/02/22-rdf-syntax-ns#"
   xmlns:svg="http://www.w3.org/2000/svg"
   xmlns="http://www.w3.org/2000/svg"
   xmlns:sodipodi="http://sodipodi.sourceforge.net/DTD/sodipodi-0.dtd"
   xmlns:inkscape="http://www.inkscape.org/namespaces/inkscape"
   version="1.1"
   width="600"
   height="300"
   id="svg2"
   inkscape:version="0.48.3.1 r9886"
   sodipodi:docname="Flag_of_Transnistria_(state).svg">
  <metadata
     id="metadata11">
    <rdf:RDF>
      <cc:Work
         rdf:about="">
        <dc:format>image/svg+xml</dc:format>
        <dc:type
           rdf:resource="http://purl.org/dc/dcmitype/StillImage" />
      </cc:Work>
    </rdf:RDF>
  </metadata>
  <defs
     id="defs9" />
  <sodipodi:namedview
     pagecolor="#ffffff"
     bordercolor="#666666"
     borderopacity="1"
     objecttolerance="10"
     gridtolerance="10"
     guidetolerance="10"
     inkscape:pageopacity="0"
     inkscape:pageshadow="2"
     inkscape:window-width="1600"
     inkscape:window-height="848"
     id="namedview7"
     showgrid="false"
     inkscape:zoom="0.86974134"
     inkscape:cx="-8.9823086"
     inkscape:cy="176.43899"
     inkscape:window-x="-8"
     inkscape:window-y="-8"
     inkscape:window-maximized="1"
     inkscape:current-layer="svg2" />
  <rect
     width="600"
     height="300"
     id="red"
     style="fill:#de0000" />
  <rect
     width="600"
     height="75"
     y="112.5"
     id="green"
     style="fill:#009933" />
  <path
     d="m 75.013,14.753 -0.938,2.893 -2.411,7.42 -7.794,0 -3.054,0 2.464,1.795 6.321,4.58 -2.411,7.393 -0.937,2.893 2.464,-1.794 6.294,-4.554 6.294,4.554 2.464,1.794 -0.937,-2.893 -2.411,-7.419 6.294,-4.553 2.464,-1.795 -3.026,0 -7.794,0 -2.411,-7.42 z m 0,6.402 1.688,5.196 0.214,0.697 0.724,0 5.437,0 -4.393,3.187 -0.589,0.429 0.241,0.696 1.688,5.196 -4.42,-3.214 -0.589,-0.429 -0.589,0.429 -4.42,3.214 1.688,-5.196 0.214,-0.696 -0.563,-0.429 -4.393,-3.187 5.437,0 0.724,0 0.214,-0.697 c 0.562333,-1.732 1.124667,-3.464 1.687,-5.196 z"
     id="star"
     style="fill:#ffd700" />
  <g
     style="fill-rule:evenodd;overflow:visible"
     id="g3019"
     transform="matrix(0.39974453,0,0,0.39974453,-46.125819,20.708672)">
    <path
       sodipodi:nodetypes="ccccccccc"
       inkscape:connector-curvature="0"
       id="hammer_head"
       d="m 270.92298,88.355159 -33.98504,32.370421 18.12536,18.12534 15.65136,-15.75551 c 30.52185,30.97994 54.24551,55.06533 83.71885,84.97748 8.15951,8.45996 22.36846,-3.04386 13.26894,-12.8119 -31.13941,-30.3468 -52.72211,-52.25081 -85.16466,-84.06684 l 19.23453,-19.348081 z"
       style="fill:#ffd700;fill-opacity:1;fill-rule:evenodd;stroke:none" />
    <g
       transform="matrix(0.83334944,0,0,0.83334944,89.122595,-182.30111)"
       id="g3852">
      <path
         sodipodi:nodetypes="cccccccccccc"
         inkscape:connector-curvature="0"
         id="sickle_handle"
         d="m 216.7812,433.75 c 72.96097,67.686 191.19511,-54.3637 40.09375,-142.8125 l 5e-5,0 c 112.44686,124.9296 4.49418,163.2273 -34.59375,124.6875 L 220.3125,414 c -1.5958,1.79152 -3.19491,3.58011 -4.78871,5.37341 -3.02847,-2.85878 -7.73236,-3.69883 -9.18009,1.18909 -5.95051,-0.4117 -9.44226,2.885 -11,9.0625 -11.06856,7.3329 -23.05082,13.76655 -29.9375,25.28125 -3.93605,12.18 3.84864,17.47725 12.65625,16.46875 14.43702,-5.9976 18.89869,-18.96115 26.625,-29.65625 5.46174,-1.7386 10.0877,-4.07577 10.93599,-9.048"
         style="fill:#ffd700;fill-opacity:1;fill-rule:evenodd;stroke:none" />
    </g>
  </g>
</svg>
