<?xml version="1.0" standalone="no"?>
<!DOCTYPE svg PUBLIC "-//W3C//DTD SVG 1.1//EN"  "http://www.w3.org/Graphics/SVG/1.1/DTD/svg11.dtd">
<svg xmlns="http://www.w3.org/2000/svg" xmlns:xlink="http://www.w3.org/1999/xlink" version="1.1" width="850.3945313" height="566.9296875" viewBox="0 0 850.3945313 566.9296875">

		<rect fill="#0B3D91" width="850.3945313" height="566.9296875"/> 
		<circle fill="#FFFFFF" cx="425.1967773" cy="283.4638672" r="170.0786133"/> 
		<circle fill="#FD1813" cx="425.1970215" cy="283.4638672" r="162.9924316"/> 
		<g>
			<path fill="#FFFF00" d="M459.2124023,283.5507813c37.8457031,18.9174805,49.6069336,67.1181641,49.6069336,84.953125h-14.1738281
				c0-32.7514648-12.0229492-59.8554688-39.6850586-84.953125c27.6621094-25.1118164,39.6850586-52.3974609,39.6850586-85.1254883
				h14.1738281C508.8193359,216.2382813,497.0581055,264.6298828,459.2124023,283.5507813"/>
			<path fill="#FFFF00" d="M452.1259766,283.5507813c14.1953125,12.3779297,40.0375977,38.371582,39.6850586,84.953125h-14.1733398
				c0-20.7353516-7.2109375-57.2978516-29.7636719-84.953125c22.5527344-27.6577148,29.7636719-64.3925781,29.7636719-85.1254883
				h14.1733398C492.1635742,244.9824219,466.3212891,271.1826172,452.1259766,283.5507813"/>
			<path fill="#FFFF00" d="M445.0395508,283.5507813c9.8266602,11.9907227,30.1225586,42.015625,29.7636719,84.953125h-14.1733398
				c0.7358398-18.9238281-3.1186523-62.0537109-19.8422852-84.953125
				c16.7236328-22.9272461,20.578125-66.215332,19.8422852-85.1254883h14.1733398
				C475.1621094,241.3510742,454.8662109,271.5449219,445.0395508,283.5507813"/>
			<path fill="#FFFF00" d="M437.9526367,283.5507813c8.7124023,10.1816406,20.578125,43.4633789,19.8422852,84.953125h-14.1728516
				c0-22.9291992,0.2646484-63.862793-9.9213867-84.953125c10.1860352-21.1054688,9.9213867-62.2207031,9.9213867-85.1254883
				h14.1728516C458.5307617,239.8901367,446.6650391,273.3540039,437.9526367,283.5507813"/>
			<path fill="#FFFF00" d="M426.6142578,368.5039063h14.1733398c0.3618164-31.3037109-1.5429688-66.3969727-9.9213867-84.953125
				c8.378418-18.5581055,10.2832031-53.8569336,9.9213867-85.1254883h-14.1733398V368.5039063z"/>
		</g>
		<g>
			<path fill="#FFFF00" d="M391.1816406,283.5507813c-37.8457031,18.9174805-49.6074219,67.1181641-49.6074219,84.953125h14.1738281
				c0-32.7519531,12.0234375-59.8554688,39.6855469-84.953125c-27.6621094-25.1118164-39.6855469-52.3974609-39.6855469-85.1254883
				h-14.1738281C341.5742188,216.2382813,353.3359375,264.6298828,391.1816406,283.5507813"/>
			<path fill="#FFFF00" d="M398.2675781,283.5507813c-14.1953125,12.3779297-40.0371094,38.371582-39.6845703,84.953125h14.1728516
				c0-20.7353516,7.2109375-57.2978516,29.7636719-84.953125c-22.5527344-27.6577148-29.7636719-64.3925781-29.7636719-85.1254883
				h-14.1728516C358.2304688,244.9824219,384.0722656,271.1826172,398.2675781,283.5507813"/>
			<path fill="#FFFF00" d="M405.3544922,283.5507813c-9.8271484,11.9907227-30.1230469,42.015625-29.7636719,84.953125h14.1728516
				c-0.7353516-18.9238281,3.1191406-62.0537109,19.8427734-84.953125
				c-16.7236328-22.9272461-20.578125-66.215332-19.8427734-85.1254883h-14.1728516
				C375.2314453,241.3510742,395.5273438,271.5449219,405.3544922,283.5507813"/>
			<path fill="#FFFF00" d="M412.4414063,283.5507813c-8.7128906,10.1816406-20.578125,43.4628906-19.8427734,84.953125h14.1728516
				c0-22.9296875-0.2646484-63.862793,9.921875-84.953125c-10.1865234-21.1054688-9.921875-62.2207031-9.921875-85.1254883
				h-14.1728516C391.8632813,239.8901367,403.7285156,273.3540039,412.4414063,283.5507813"/>
			<path fill="#FFFF00" d="M423.7792969,368.5039063h-14.1728516c-0.3623047-31.3037109,1.5429688-66.3969727,9.9208984-84.953125
				c-8.3779297-18.5581055-10.2832031-53.8569336-9.9208984-85.1254883h14.1728516V368.5039063z"/>
		</g>
</svg>
