<?xml version="1.0" encoding="UTF-8" standalone="no"?>
<svg
   xmlns:dc="http://purl.org/dc/elements/1.1/"
   xmlns:cc="http://creativecommons.org/ns#"
   xmlns:rdf="http://www.w3.org/1999/02/22-rdf-syntax-ns#"
   xmlns:svg="http://www.w3.org/2000/svg"
   xmlns="http://www.w3.org/2000/svg"
   xmlns:xlink="http://www.w3.org/1999/xlink"
   xmlns:sodipodi="http://sodipodi.sourceforge.net/DTD/sodipodi-0.dtd"
   xmlns:inkscape="http://www.inkscape.org/namespaces/inkscape"
   version="1.0"
   width="499.99948"
   height="333.33298"
   id="svg2"
   sodipodi:version="0.32"
   inkscape:version="0.46"
   sodipodi:docname="Flag of the Central American Integration System.svg"
   inkscape:output_extension="org.inkscape.output.svg.inkscape">
  <metadata
     id="metadata42">
    <rdf:RDF>
      <cc:Work
         rdf:about="">
        <dc:format>image/svg+xml</dc:format>
        <dc:type
           rdf:resource="http://purl.org/dc/dcmitype/StillImage" />
      </cc:Work>
    </rdf:RDF>
  </metadata>
  <sodipodi:namedview
     inkscape:window-height="744"
     inkscape:window-width="1280"
     inkscape:pageshadow="2"
     inkscape:pageopacity="0.0"
     guidetolerance="10.0"
     gridtolerance="10.0"
     objecttolerance="10.0"
     borderopacity="1.0"
     bordercolor="#666666"
     pagecolor="#ffffff"
     id="base"
     showgrid="true"
     inkscape:zoom="1.1433929"
     inkscape:cx="249.99974"
     inkscape:cy="166.66649"
     inkscape:window-x="-4"
     inkscape:window-y="-4"
     inkscape:current-layer="svg2">
    <inkscape:grid
       type="xygrid"
       id="grid2486"
       visible="true"
       enabled="true" />
  </sodipodi:namedview>
  <desc
     id="desc4">European flag</desc>
  <defs
     id="defs6">
    <inkscape:perspective
       sodipodi:type="inkscape:persp3d"
       inkscape:vp_x="0 : 270 : 1"
       inkscape:vp_y="0 : 1000 : 0"
       inkscape:vp_z="810 : 270 : 1"
       inkscape:persp3d-origin="405 : 180 : 1"
       id="perspective44" />
    <g
       id="s">
      <g
         id="c">
        <path
           id="t"
           d="M 0,0 L 0,1 L 0.5,1 L 0,0 z"
           transform="matrix(0.9510565,0.309017,-0.309017,0.9510565,0,-1)" />
        <use
           xlink:href="#t"
           transform="scale(-1,1)"
           id="use11"
           x="0"
           y="0"
           width="810"
           height="540" />
      </g>
      <g
         id="a">
        <use
           xlink:href="#c"
           transform="matrix(0.309017,0.9510565,-0.9510565,0.309017,0,0)"
           id="use14"
           x="0"
           y="0"
           width="810"
           height="540" />
        <use
           xlink:href="#c"
           transform="matrix(-0.809017,0.5877853,-0.5877853,-0.809017,0,0)"
           id="use16"
           x="0"
           y="0"
           width="810"
           height="540" />
      </g>
      <use
         xlink:href="#a"
         transform="scale(-1,1)"
         id="use18"
         x="0"
         y="0"
         width="810"
         height="540" />
    </g>
    <inkscape:perspective
       id="perspective2481"
       inkscape:persp3d-origin="372.04724 : 350.78739 : 1"
       inkscape:vp_z="744.09448 : 526.18109 : 1"
       inkscape:vp_y="0 : 1000 : 0"
       inkscape:vp_x="0 : 526.18109 : 1"
       sodipodi:type="inkscape:persp3d" />
    <inkscape:perspective
       id="perspective6930"
       inkscape:persp3d-origin="372.04724 : 350.78739 : 1"
       inkscape:vp_z="744.09448 : 526.18109 : 1"
       inkscape:vp_y="0 : 1000 : 0"
       inkscape:vp_x="0 : 526.18109 : 1"
       sodipodi:type="inkscape:persp3d" />
  </defs>
  <rect
     y="0"
     x="0"
     width="499.99948"
     height="333.33298"
     id="rect20"
     style="fill:#2659e9;fill-opacity:1" />
  <g
     id="g2771">
    <path
       clip-rule="evenodd"
       d="M 134.49588,164.91911 C 134.49588,100.51047 186.0033,48.984521 250.38792,48.984521 C 314.77253,48.984521 366.27995,100.51047 366.27995,164.91911 C 366.27995,229.32776 314.77253,280.85439 250.38792,280.85439 C 186.0033,280.85439 134.49588,229.32776 134.49588,164.91911 L 134.49588,164.91911 z"
       id="path5"
       style="fill:#9c8200;fill-rule:evenodd;stroke:#000000;stroke-width:0.20592535;stroke-miterlimit:4;stroke-dasharray:none;stroke-opacity:1" />
    <g
       transform="matrix(0.6864178,0,0,0.6864178,39.826511,-106.85909)"
       id="g6747">
      <polygon
         style="fill-rule:evenodd;stroke:#000000;stroke-width:0.30000001;stroke-miterlimit:4;stroke-dasharray:none;stroke-opacity:1"
         id="polygon7"
         points="205,506.17 202.488,504.285 202.864,503.658 203.116,503.029 203.241,502.402 203.241,501.773 203.116,501.271 202.99,500.77 202.613,500.141 202.362,499.889 202.111,499.639 201.608,499.262 201.105,498.885 200.478,498.633 199.975,498.508 199.473,498.508 199.096,498.633 198.719,498.885 198.593,499.01 198.342,499.135 198.091,499.512 197.965,499.764 197.965,500.016 197.965,500.266 197.965,500.643 198.342,501.271 199.598,503.533 200.227,504.662 200.478,505.166 200.729,505.668 200.98,506.422 201.105,506.799 201.105,507.176 201.105,507.678 201.105,508.18 201.105,508.557 200.98,509.061 200.729,509.436 200.478,509.813 200.227,510.189 199.975,510.566 199.473,510.943 199.096,511.195 198.468,511.447 197.839,511.697 197.337,511.824 196.709,511.824 195.955,511.697 195.327,511.447 194.699,511.195 194.071,510.818 193.443,510.316 192.689,509.688 191.81,508.684 191.433,508.18 191.056,507.678 190.805,507.176 190.679,506.672 190.554,506.17 190.428,505.668 190.428,505.166 190.428,504.662 190.554,504.16 190.679,503.783 190.93,503.281 191.056,502.904 191.81,502.025 194.196,504.16 193.82,504.662 193.694,505.166 193.568,505.543 193.568,506.045 193.694,506.422 193.82,506.924 194.196,507.301 194.573,507.803 195.076,508.307 195.578,508.557 196.081,508.809 196.583,508.934 196.834,508.934 197.086,508.809 197.337,508.684 197.588,508.557 197.839,508.307 197.965,508.055 197.965,507.803 197.965,507.553 197.839,507.049 197.588,506.422 197.211,505.668 196.583,504.662 195.955,503.783 195.453,502.904 195.202,502.15 194.95,501.521 194.699,500.895 194.699,500.266 194.699,499.764 194.699,499.135 194.95,498.508 195.202,498.006 195.578,497.377 196.081,496.875 196.583,496.371 197.086,496.121 197.714,495.744 198.342,495.617 199.096,495.492 199.724,495.492 200.478,495.617 201.105,495.744 201.859,496.121 202.613,496.498 203.241,497.125 203.618,497.377 203.995,497.754 205,498.758 205.754,499.889 206.005,500.393 206.13,500.895 206.256,501.396 206.382,502.025 206.382,503.029 206.256,503.533 206.13,504.035 205.628,505.166 205,506.17 "
         clip-rule="evenodd" />
      <polygon
         style="fill-rule:evenodd;stroke:#000000;stroke-width:0.30000001;stroke-miterlimit:4;stroke-dasharray:none;stroke-opacity:1"
         id="polygon9"
         points="195.578,488.961 183.393,499.135 181.383,496.623 193.568,486.447 195.578,488.961 "
         clip-rule="evenodd" />
      <polygon
         style="fill-rule:evenodd;stroke:#000000;stroke-width:0.30000001;stroke-miterlimit:4;stroke-dasharray:none;stroke-opacity:1"
         id="polygon11"
         points="185.905,485.316 183.896,482.805 184.398,482.303 184.775,481.799 185.026,481.172 185.152,480.92 185.152,480.67 185.277,480.041 185.152,479.539 184.9,478.91 184.523,478.283 184.147,477.779 183.644,477.277 183.268,476.9 182.765,476.775 182.262,476.648 181.886,476.648 181.383,476.775 181.006,476.9 180.88,477.025 180.629,477.277 180.504,477.529 180.378,477.654 180.378,477.906 180.378,478.283 180.378,478.658 180.504,479.035 181.257,481.549 181.634,482.68 181.76,483.307 181.886,483.811 182.011,484.689 181.886,485.443 181.634,486.322 181.509,486.699 181.257,487.076 181.006,487.453 180.755,487.83 180.378,488.08 180.001,488.332 179.75,488.584 179.499,488.709 178.996,488.834 178.368,488.961 177.74,489.086 177.489,489.086 177.112,488.961 176.484,488.834 175.855,488.584 175.353,488.332 174.725,487.83 174.223,487.326 173.72,486.699 173.218,485.945 172.841,485.316 172.464,484.814 172.213,484.186 172.087,483.559 171.836,483.057 171.836,482.553 171.836,482.051 171.836,481.549 171.961,481.047 172.087,480.543 172.213,480.166 172.464,479.664 172.841,479.287 173.092,478.91 173.469,478.533 173.971,478.283 175.73,480.92 175.353,481.297 175.102,481.674 174.977,481.926 174.851,482.176 174.725,482.553 174.725,483.057 174.851,483.559 175.102,484.061 175.479,484.563 175.855,485.066 176.232,485.568 176.609,485.82 177.112,486.07 177.614,486.197 177.866,486.07 178.243,485.945 178.368,485.82 178.62,485.568 178.62,485.316 178.745,485.066 178.745,484.563 178.62,483.811 177.991,481.926 177.614,480.92 177.363,479.916 177.238,479.162 177.112,478.408 177.112,477.906 177.112,477.277 177.238,476.648 177.489,476.146 177.866,475.645 178.243,475.143 178.745,474.639 179.248,474.262 179.875,473.885 180.504,473.635 181.132,473.508 181.886,473.508 182.514,473.508 183.268,473.635 183.896,473.885 184.523,474.262 184.775,474.514 185.152,474.766 185.654,475.393 186.282,476.021 186.911,476.9 187.287,477.529 187.539,478.156 188.041,479.287 188.167,479.916 188.167,480.418 188.292,480.92 188.167,481.549 188.167,482.051 187.916,482.553 187.79,483.057 187.539,483.559 186.785,484.438 186.408,484.939 185.905,485.316 "
         clip-rule="evenodd" />
      <polygon
         style="fill-rule:evenodd;stroke:#000000;stroke-width:0.30000001;stroke-miterlimit:4;stroke-dasharray:none;stroke-opacity:1"
         id="polygon13"
         points="178.243,463.207 166.56,469.363 168.821,473.508 166.434,474.766 160.53,463.584 162.917,462.328 165.052,466.475 176.735,460.318 178.243,463.207 "
         clip-rule="evenodd" />
      <polygon
         style="fill-rule:evenodd;stroke:#000000;stroke-width:0.30000001;stroke-miterlimit:4;stroke-dasharray:none;stroke-opacity:1"
         id="polygon15"
         points="172.715,451.525 157.892,457.178 153.746,446.248 156.259,445.244 159.273,453.158 162.54,451.902 159.65,444.49 162.163,443.611 165.052,451.021 169.072,449.389 165.932,441.225 168.444,440.219 172.715,451.525 "
         clip-rule="evenodd" />
      <polygon
         style="fill-rule:evenodd;stroke:#000000;stroke-width:0.30000001;stroke-miterlimit:4;stroke-dasharray:none;stroke-opacity:1"
         id="polygon17"
         points="166.937,435.445 151.485,438.711 150.48,433.938 160.404,428.912 149.224,428.41 148.219,423.762 163.796,420.496 164.424,423.385 152.239,425.898 165.052,426.4 165.68,429.416 154.123,435.068 166.309,432.43 166.937,435.445 "
         clip-rule="evenodd" />
      <path
         style="fill-rule:evenodd;stroke:#000000;stroke-width:0.30000001;stroke-miterlimit:4;stroke-dasharray:none;stroke-opacity:1"
         id="path19"
         d="M 161.661,400.145 L 161.912,403.538 L 158.52,405.171 L 159.022,411.577 L 162.791,412.583 L 163.042,415.976 L 146.711,411.201 L 146.46,407.81 L 161.661,400.145 L 161.661,400.145 z M 155.882,406.553 L 150.229,409.19 L 156.259,410.825 L 155.882,406.553 L 155.882,406.553 z"
         clip-rule="evenodd" />
    </g>
    <g
       transform="matrix(0.6864178,0,0,0.6864178,39.826511,-106.85909)"
       id="g6764">
      <g
         id="g6756">
        <path
           clip-rule="evenodd"
           d="M 146.46,383.814 L 147.214,378.036 L 147.465,376.277 L 147.841,375.021 L 148.218,374.393 L 148.344,374.142 L 148.595,373.765 L 149.097,373.263 L 149.599,372.887 L 150.227,372.51 L 150.855,372.133 L 151.609,371.882 L 152.362,371.631 L 153.241,371.506 L 154.12,371.506 L 155.125,371.506 L 156.13,371.631 L 157.135,371.756 L 157.888,371.881 L 158.767,372.132 L 159.395,372.509 L 160.148,372.886 L 160.902,373.388 L 161.53,373.89 L 162.032,374.518 L 162.283,375.02 L 162.66,375.522 L 162.785,376.15 L 163.036,376.903 L 163.036,377.531 L 163.036,378.159 L 163.036,378.913 L 162.91,379.792 L 162.282,385.696 L 146.46,383.814 L 146.46,383.814 z M 149.601,380.925 L 160.028,382.181 L 160.279,379.794 L 160.404,378.663 L 160.404,377.91 L 160.279,377.533 L 160.153,377.156 L 159.902,376.528 L 159.651,376.277 L 159.274,376.026 L 158.395,375.524 L 157.893,375.273 L 157.265,375.147 L 156.511,375.022 L 155.632,374.897 L 154.753,374.772 L 153.999,374.772 L 153.371,374.772 L 152.743,374.897 L 152.241,374.897 L 151.864,375.148 L 151.487,375.274 L 151.111,375.525 L 150.86,375.776 L 150.609,376.153 L 150.358,376.53 L 150.233,376.906 L 150.107,377.283 L 149.982,377.911 L 149.731,379.544 L 149.601,380.925 L 149.601,380.925 z"
           id="path21"
           style="fill-rule:evenodd;stroke:#000000;stroke-width:0.30000001;stroke-miterlimit:4;stroke-dasharray:none;stroke-opacity:1" />
        <polygon
           clip-rule="evenodd"
           points="164.927,366.981 149.601,363.087 152.364,351.781 155.002,352.409 152.867,360.7 156.384,361.454 158.269,353.791 160.907,354.419 158.897,362.208 163.042,363.212 165.178,354.67 167.816,355.298 164.927,366.981 "
           id="polygon23"
           style="fill-rule:evenodd;stroke:#000000;stroke-width:0.30000001;stroke-miterlimit:4;stroke-dasharray:none;stroke-opacity:1" />
        <polygon
           clip-rule="evenodd"
           points="173.218,340.475 159.022,333.817 160.404,330.802 172.213,336.33 175.604,329.169 177.991,330.3 173.218,340.475 "
           id="polygon25"
           style="fill-rule:evenodd;stroke:#000000;stroke-width:0.30000001;stroke-miterlimit:4;stroke-dasharray:none;stroke-opacity:1" />
      </g>
      <g
         id="g6761">
        <path
           clip-rule="evenodd"
           d="M 188.167,313.592 L 186.283,316.482 L 182.514,315.854 L 179.122,321.13 L 181.509,324.271 L 179.625,327.16 L 169.45,313.467 L 171.334,310.578 L 188.167,313.592 L 188.167,313.592 z M 179.625,315.225 L 173.469,313.969 L 177.364,318.994 L 179.625,315.225 L 179.625,315.225 z"
           id="path27"
           style="fill-rule:evenodd;stroke:#000000;stroke-width:0.30000001;stroke-miterlimit:4;stroke-dasharray:none;stroke-opacity:1" />
      </g>
    </g>
    <polygon
       transform="matrix(0.6864178,0,0,0.6864178,39.826511,-106.85909)"
       clip-rule="evenodd"
       points="197.588,302.035 185.78,291.482 187.916,289.096 199.724,299.648 197.588,302.035 "
       id="polygon29"
       style="fill-rule:evenodd;stroke:#000000;stroke-width:0.30000001;stroke-miterlimit:4;stroke-dasharray:none;stroke-opacity:1" />
    <polygon
       transform="matrix(0.6864178,0,0,0.6864178,39.826511,-106.85909)"
       clip-rule="evenodd"
       points="204.246,294.875 193.443,283.317 195.704,281.182 207.764,284.448 200.478,276.659 202.613,274.649 213.417,286.332 211.155,288.468 199.347,285.202 206.382,292.864 204.246,294.875 "
       id="polygon31"
       style="fill-rule:evenodd;stroke:#000000;stroke-width:0.30000001;stroke-miterlimit:4;stroke-dasharray:none;stroke-opacity:1" />
    <polygon
       transform="matrix(0.6864178,0,0,0.6864178,39.826511,-106.85909)"
       clip-rule="evenodd"
       points="221.205,280.553 213.668,269.75 209.773,272.388 208.266,270.252 218.567,262.966 220.075,265.228 216.306,267.866 223.843,278.669 221.205,280.553 "
       id="polygon33"
       style="fill-rule:evenodd;stroke:#000000;stroke-width:0.30000001;stroke-miterlimit:4;stroke-dasharray:none;stroke-opacity:1" />
    <polygon
       transform="matrix(0.6864178,0,0,0.6864178,39.826511,-106.85909)"
       clip-rule="evenodd"
       points="231.883,273.267 224.471,259.323 234.772,253.796 236.029,256.183 228.491,260.203 230.25,263.218 237.159,259.575 238.416,261.961 231.506,265.604 233.516,269.499 241.305,265.228 242.561,267.614 231.883,273.267 "
       id="polygon35"
       style="fill-rule:evenodd;stroke:#000000;stroke-width:0.30000001;stroke-miterlimit:4;stroke-dasharray:none;stroke-opacity:1" />
    <polygon
       transform="matrix(0.6864178,0,0,0.6864178,39.826511,-106.85909)"
       clip-rule="evenodd"
       points="252.485,257.188 251.48,254.675 257.887,252.163 260.273,258.067 259.897,258.695 259.394,259.449 258.766,260.077 258.138,260.705 257.384,261.333 256.505,261.961 255.625,262.464 254.746,262.841 253.616,263.218 252.485,263.469 251.982,263.469 251.354,263.469 250.35,263.343 249.345,263.218 248.842,262.966 248.339,262.841 247.963,262.589 247.46,262.212 247.083,261.961 246.707,261.584 245.953,260.831 245.325,259.952 244.822,258.946 244.32,257.941 243.943,256.811 243.817,256.309 243.691,255.68 243.566,254.55 243.691,253.545 243.817,252.917 243.943,252.414 244.32,251.409 244.571,250.907 244.822,250.53 245.073,250.027 245.45,249.65 246.078,249.022 246.832,248.52 247.711,248.017 248.716,247.515 250.098,247.138 250.727,247.012 251.229,246.887 251.857,246.887 252.485,246.887 252.987,246.887 253.49,247.012 253.993,247.264 254.37,247.389 254.872,247.641 255.249,247.892 255.625,248.269 256.002,248.646 256.379,249.022 256.756,249.525 253.993,251.158 253.49,250.781 253.113,250.404 252.611,250.153 252.108,249.902 251.48,249.776 250.978,249.776 250.35,249.902 249.721,250.153 248.842,250.53 248.465,250.781 248.088,251.032 247.711,251.409 247.46,251.786 247.209,252.163 247.083,252.54 246.958,252.917 246.832,253.419 246.832,253.921 246.832,254.424 246.832,254.927 246.958,255.555 247.334,256.685 247.837,257.941 248.214,258.444 248.465,258.821 248.842,259.323 249.219,259.7 249.596,259.952 249.973,260.203 250.475,260.328 250.852,260.58 251.354,260.58 251.731,260.705 252.234,260.705 252.611,260.58 253.616,260.328 254.495,259.826 255.375,259.198 256.002,258.444 256.379,258.067 256.63,257.69 255.877,255.806 252.485,257.188 "
       id="polygon37"
       style="fill-rule:evenodd;stroke:#000000;stroke-width:0.30000001;stroke-miterlimit:4;stroke-dasharray:none;stroke-opacity:1" />
    <path
       clip-rule="evenodd"
       d="M 222.88041,70.627961 L 220.2933,60.107921 L 224.77698,58.987001 L 225.55332,58.728222 L 226.24317,58.641733 L 226.84653,58.641733 L 227.2776,58.641733 L 227.70867,58.728222 L 228.05325,58.814024 L 228.48432,59.072803 L 228.65662,59.158606 L 228.74242,59.330896 L 229.087,59.675478 L 229.34578,60.02006 L 229.51807,60.45113 L 229.69036,60.882201 L 229.77616,61.485562 L 229.77616,62.003121 L 229.69036,62.2619 L 229.69036,62.52068 L 229.43158,63.038239 L 229.1728,63.469309 L 229.00051,63.6416 L 228.74173,63.813891 L 228.22417,64.244961 L 227.96539,64.33145 L 227.62081,64.503741 L 228.31066,64.76252 L 229.00051,65.107102 L 229.25929,65.365882 L 229.69036,65.624661 L 230.63899,66.486802 L 232.44976,68.297572 L 229.86265,68.900933 L 227.7931,67.003675 L 226.84447,66.141534 L 226.24111,65.710463 L 225.89653,65.538173 L 225.46546,65.45237 L 225.29317,65.45237 L 225.03439,65.45237 L 224.34454,65.538173 L 223.91347,65.710463 L 225.03439,70.108342 L 222.88041,70.627961 L 222.88041,70.627961 z M 223.57095,63.988241 L 225.12294,63.642973 L 226.33035,63.298391 L 227.0202,63.040298 L 227.27898,62.781519 L 227.36546,62.609228 L 227.45127,62.436937 L 227.53707,62.005867 L 227.53707,61.574796 L 227.45127,61.316017 L 227.27898,61.057237 L 227.19317,60.884946 L 227.02088,60.798458 L 226.84859,60.626167 L 226.58981,60.626167 L 226.33103,60.539678 L 226.07225,60.539678 L 224.52026,60.884946 L 222.88178,61.316017 L 223.57095,63.988241 L 223.57095,63.988241 z"
       id="path39"
       style="fill-rule:evenodd;stroke:#000000;stroke-width:0.20592535;stroke-miterlimit:4;stroke-dasharray:none;stroke-opacity:1" />
    <path
       clip-rule="evenodd"
       d="M 244.95492,67.092222 L 242.62659,67.351002 L 241.41918,64.936871 L 237.10779,65.281452 L 236.41794,67.868561 L 234.08961,68.040852 L 237.36588,56.830963 L 239.69421,56.658672 L 244.95492,67.092222 L 244.95492,67.092222 z M 240.55773,63.1261 L 238.74696,59.245781 L 237.62604,63.38488 L 240.55773,63.1261 L 240.55773,63.1261 z"
       id="path41"
       style="fill-rule:evenodd;stroke:#000000;stroke-width:0.20592535;stroke-miterlimit:4;stroke-dasharray:none;stroke-opacity:1" />
    <polygon
       transform="matrix(0.6864178,0,0,0.6864178,39.826511,-106.85909)"
       clip-rule="evenodd"
       points="313.914,247.766 316.929,248.897 316.678,249.525 316.427,250.027 316.176,250.655 315.924,251.158 315.17,251.912 314.794,252.289 314.417,252.666 313.537,253.168 313.035,253.419 312.532,253.545 311.904,253.67 311.401,253.796 310.773,253.796 310.146,253.796 309.392,253.67 308.638,253.545 308.01,253.419 307.256,253.168 306.754,252.791 306.125,252.414 305.875,252.163 305.623,251.912 304.995,251.409 304.618,250.907 304.367,250.53 304.241,250.279 303.864,249.525 303.613,248.897 303.487,248.52 303.362,248.017 303.236,247.264 303.236,246.384 303.236,245.505 303.236,244.5 303.362,243.621 303.613,242.741 303.864,241.987 304.116,241.234 304.493,240.605 304.995,239.978 305.498,239.35 306,238.847 306.628,238.47 307.256,238.093 307.885,237.842 308.638,237.591 309.392,237.465 310.146,237.339 310.899,237.339 311.653,237.465 312.281,237.591 312.909,237.716 313.537,237.968 314.165,238.219 314.668,238.47 315.17,238.847 315.547,239.224 316.05,239.852 316.552,240.605 316.804,241.359 317.181,242.239 313.914,242.867 313.788,242.364 313.537,241.736 313.16,241.359 312.783,240.982 312.406,240.605 311.904,240.354 311.276,240.229 310.648,240.103 310.271,240.103 309.895,240.229 309.392,240.229 309.015,240.354 308.764,240.605 308.387,240.731 308.01,240.982 307.759,241.234 307.256,241.987 307.005,242.49 306.879,242.867 306.628,243.998 306.503,245.379 306.503,246.133 306.503,246.761 306.754,247.892 306.879,248.394 307.005,248.897 307.508,249.65 307.759,250.027 308.01,250.279 308.387,250.53 308.638,250.655 309.015,250.781 309.392,250.907 310.271,251.032 310.899,251.032 311.401,250.907 311.904,250.655 312.406,250.279 312.909,249.902 313.286,249.273 313.663,248.646 313.914,247.766 "
       id="polygon43"
       style="fill-rule:evenodd;stroke:#000000;stroke-width:0.30000001;stroke-miterlimit:4;stroke-dasharray:none;stroke-opacity:1" />
    <polygon
       transform="matrix(0.6864178,0,0,0.6864178,39.826511,-106.85909)"
       clip-rule="evenodd"
       points="322.582,254.424 324.844,238.721 327.983,239.224 325.723,254.927 322.582,254.424 "
       id="polygon45"
       style="fill-rule:evenodd;stroke:#000000;stroke-width:0.30000001;stroke-miterlimit:4;stroke-dasharray:none;stroke-opacity:1" />
    <path
       clip-rule="evenodd"
       d="M 268.58211,63.384194 L 268.84089,62.608541 L 269.09967,61.918691 L 269.44493,61.31533 L 269.78952,60.797771 L 270.0483,60.453189 L 270.39356,60.195096 L 270.73815,59.849828 L 271.16922,59.591049 L 271.51448,59.418758 L 271.94555,59.246467 L 272.29082,59.074176 L 272.72189,58.988374 L 273.32525,58.901885 L 273.84281,58.988374 L 274.44617,58.988374 L 275.13671,59.160665 L 275.65358,59.332956 L 276.17114,59.505247 L 276.6887,59.764026 L 277.11977,60.022806 L 277.55084,60.367387 L 277.89611,60.711969 L 278.24138,61.143039 L 278.49947,61.57411 L 278.75825,62.00518 L 278.93123,62.522739 L 279.01703,62.95381 L 279.10352,63.557171 L 279.10352,64.07473 L 279.10352,64.678091 L 279.01703,65.281452 L 278.84474,65.884814 L 278.67245,66.574663 L 278.49947,67.091536 L 278.24138,67.609095 L 277.9826,68.126654 L 277.63733,68.557724 L 277.29206,68.902306 L 276.94748,69.246888 L 276.51641,69.59147 L 276.08534,69.850249 L 275.56778,70.02254 L 275.13671,70.194831 L 274.61915,70.280633 L 274.10091,70.280633 L 273.58335,70.280633 L 272.97999,70.194831 L 272.37594,70.109029 L 271.85838,69.936738 L 271.34151,69.764447 L 270.82395,69.505667 L 270.39288,69.246888 L 269.96112,68.902306 L 269.61654,68.557724 L 269.27127,68.126654 L 269.01249,67.695584 L 268.75371,67.264513 L 268.58142,66.746954 L 268.49562,66.315884 L 268.40913,65.712523 L 268.40913,65.194964 L 268.40913,64.591602 L 268.49562,64.07473 L 268.58211,63.384194 L 268.58211,63.384194 z M 270.82395,63.901753 L 270.73746,64.332823 L 270.65097,64.763893 L 270.65097,65.108475 L 270.65097,65.539545 L 270.65097,65.884814 L 270.73746,66.229395 L 270.82395,66.487488 L 270.99624,66.832757 L 271.34151,67.349629 L 271.5138,67.52192 L 271.77258,67.7807 L 272.03136,67.95299 L 272.29014,68.038793 L 272.8935,68.297572 L 273.15228,68.297572 L 273.49686,68.383374 L 273.75564,68.383374 L 274.10091,68.297572 L 274.35969,68.297572 L 274.61847,68.125281 L 274.96305,68.038793 L 275.22183,67.866502 L 275.48061,67.694211 L 275.6529,67.435431 L 276.08465,66.918559 L 276.42924,66.14222 L 276.60153,65.797638 L 276.68801,65.280766 L 276.7745,64.849696 L 276.86031,64.418625 L 276.86031,64.074043 L 276.86031,63.642973 L 276.86031,63.298391 L 276.7745,63.040298 L 276.68801,62.69503 L 276.60153,62.436251 L 276.25694,61.919378 L 276.08465,61.660598 L 275.82587,61.488308 L 275.56709,61.316017 L 275.30832,61.230214 L 274.70427,60.971435 L 274.35969,60.885633 L 274.01442,60.885633 L 273.75564,60.885633 L 273.41106,60.885633 L 273.15228,60.971435 L 272.8935,61.057237 L 272.54823,61.229528 L 272.29014,61.31533 L 272.11716,61.57411 L 271.85838,61.746401 L 271.42731,62.349762 L 271.08273,63.039612 L 270.99624,63.470682 L 270.82395,63.901753 L 270.82395,63.901753 z"
       id="path47"
       style="fill-rule:evenodd;stroke:#000000;stroke-width:0.20592535;stroke-miterlimit:4;stroke-dasharray:none;stroke-opacity:1" />
    <polygon
       transform="matrix(0.6864178,0,0,0.6864178,39.826511,-106.85909)"
       clip-rule="evenodd"
       points="351.476,261.082 357.254,246.259 360.143,247.389 362.404,259.7 366.173,249.776 368.937,250.781 363.283,265.604 360.269,264.474 358.008,252.414 354.364,262.087 351.476,261.082 "
       id="polygon49"
       style="fill-rule:evenodd;stroke:#000000;stroke-width:0.30000001;stroke-miterlimit:4;stroke-dasharray:none;stroke-opacity:1" />
    <path
       clip-rule="evenodd"
       d="M 158.29467,164.96236 C 158.29467,113.75216 199.2443,72.783312 250.43047,72.783312 C 301.61665,72.783312 342.56696,113.75216 342.56696,164.96236 C 342.56696,216.17256 301.61734,257.14072 250.43047,257.14072 C 199.24361,257.14072 158.29467,216.17256 158.29467,164.96236 L 158.29467,164.96236 z"
       id="path81"
       style="fill:#4f9700;fill-rule:evenodd;stroke:#000000;stroke-width:0.20592535;stroke-miterlimit:4;stroke-dasharray:none;stroke-opacity:1" />
    <path
       clip-rule="evenodd"
       d="M 214.6029,165.60828 C 214.6029,146.03988 230.23881,130.38406 249.78456,130.38406 C 269.32962,130.38406 284.96553,146.03988 284.96553,165.60828 C 284.96553,185.17805 269.32962,200.83249 249.78456,200.83249 C 230.23881,200.83318 214.6029,185.17805 214.6029,165.60828 L 214.6029,165.60828 z"
       id="path83"
       style="fill:#ffffff;fill-rule:evenodd;stroke:#000000;stroke-width:0.20592535;stroke-miterlimit:4;stroke-dasharray:none;stroke-opacity:1" />
    <polygon
       transform="matrix(0.6864178,0,0,0.6864178,39.826511,-106.85909)"
       points="399.965,453.408 402.604,456.676 405.115,458.561 404.739,459.313 404.236,461.699 404.487,462.076 405.869,462.957 406.623,464.715 406.623,466.475 407.251,466.725 408.005,467.479 408.005,468.232 406.372,469.615 403.608,473.131 402.604,474.012 401.222,472.881 400.217,473.131 400.091,475.268 397.955,476.775 397.955,478.156 397.453,478.156 395.442,476.775 392.679,473.508 391.674,471.75 391.423,468.734 391.549,466.475 392.051,465.092 394.689,462.83 395.819,462.705 395.694,461.951 394.313,460.57 392.428,460.443 390.041,461.449 387.403,458.057 382.378,455.545 378.609,452.906 377.855,452.656 376.6,452.656 373.71,453.66 372.58,454.791 369.941,458.686 367.429,461.197 365.168,462.58 364.288,462.58 362.153,463.334 359.767,464.84 359.138,466.348 359.138,467.604 359.515,468.357 361.901,470.494 363.032,471.875 364.414,472.881 364.791,474.639 362.906,476.398 358.385,479.162 356.877,479.287 353.485,479.035 353.108,478.408 352.354,475.645 352.229,473.006 351.476,470.619 349.591,471.248 348.46,473.006 346.827,473.006 344.691,470.494 343.31,468.484 342.179,466.098 340.923,464.967 340.169,464.463 337.531,464.338 334.768,463.082 333.009,462.58 327.983,461.951 325.346,461.826 324.592,462.705 323.838,464.463 323.461,464.59 321.2,461.072 320.195,458.057 318.939,456.549 317.934,455.797 317.306,455.67 316.301,456.299 317.683,459.188 317.055,459.564 314.668,458.936 312.658,457.807 312.281,457.178 311.778,449.893 308.513,447.129 301.227,443.611 300.598,443.611 298.463,441.35 297.709,439.59 295.95,436.826 293.94,435.068 292.433,434.691 290.548,435.32 291.177,436.324 293.312,437.33 293.563,438.586 292.307,441.475 291.93,441.475 290.674,440.721 289.167,439.34 286.403,437.832 285.021,437.832 283.262,436.449 282.006,434.816 281.127,432.807 280.373,429.666 281.001,428.41 281.755,427.406 282.006,424.266 280.875,422.631 280.875,422.004 281.629,420.496 282.132,420.371 281.755,419.365 281.001,417.732 276.228,413.713 274.72,412.959 273.338,411.703 270.952,409.316 267.183,404.416 261.279,398.764 260.273,397.256 256.254,393.111 255.877,392.357 256.254,390.975 256.882,390.85 258.766,390.975 258.766,390.347 256.756,388.337 256.882,387.207 256.254,385.95 254.495,385.196 252.736,385.825 251.229,387.207 246.581,388.965 239.043,388.588 234.27,387.081 230.627,384.945 227.989,384.191 223.969,383.814 220.577,382.182 218.441,380.297 216.306,379.041 212.035,378.162 209.271,377.785 203.87,377.659 200.854,377.282 198.468,376.403 195.955,374.77 194.196,373.891 190.554,371.127 190.177,370.499 188.167,369.243 187.79,368.74 186.534,367.861 185.78,366.73 186.408,366.479 186.911,362.333 187.79,361.58 187.916,360.826 187.287,358.816 187.79,358.69 188.418,357.309 190.302,354.545 190.428,353.791 197.211,343.867 205.125,343.616 211.407,343.741 211.784,343.993 212.035,343.616 212.412,339.721 211.532,338.339 209.146,336.204 208.141,333.817 203.744,330.928 196.96,324.27 197.337,324.396 206.13,324.647 206.382,317.361 232.511,317.737 232.762,317.109 233.265,316.858 233.391,316.858 233.642,316.984 233.893,317.361 234.521,317.486 234.772,317.737 234.898,317.863 235.275,317.989 235.777,318.491 235.903,318.366 235.777,317.989 235.903,317.612 236.28,317.361 236.657,316.984 236.657,316.732 236.908,316.481 236.908,316.23 237.536,315.853 237.536,315.225 237.913,314.471 237.787,314.094 238.416,313.718 238.667,313.592 238.918,313.215 239.043,312.461 239.169,312.21 239.546,311.959 239.672,311.582 239.797,310.954 240.048,310.452 240.425,309.949 240.677,309.823 240.928,309.949 241.43,309.698 241.933,309.823 242.812,309.698 242.938,309.949 242.812,309.698 242.938,310.075 242.812,310.326 242.561,310.577 242.31,310.703 242.059,310.954 241.807,311.08 241.682,311.331 241.682,311.457 242.436,311.331 242.561,311.331 242.184,311.959 242.059,312.336 242.184,312.336 242.561,311.833 243.063,311.582 243.817,311.331 243.817,311.582 244.068,311.457 244.068,311.582 244.32,311.708 245.325,311.205 245.45,311.08 245.45,311.457 244.948,311.833 244.948,312.084 245.325,311.708 245.576,311.708 245.576,311.833 245.576,312.21 245.702,312.461 245.702,312.964 245.827,313.341 245.702,313.969 245.702,314.597 245.45,315.225 245.325,315.602 245.073,316.481 244.948,316.732 244.445,317.361 244.194,317.863 244.194,319.245 243.943,320.375 243.566,321.129 243.44,321.38 243.314,321.506 243.314,322.134 243.44,322.386 243.566,322.511 243.943,322.637 244.194,323.014 244.571,323.014 244.696,323.139 244.822,323.391 244.445,323.516 244.068,323.391 243.943,323.516 243.817,323.642 243.314,325.777 243.189,327.034 243.189,327.787 243.314,328.164 243.314,328.541 243.44,328.792 243.566,329.169 244.068,329.295 244.194,329.546 244.194,330.174 244.445,330.551 244.445,330.677 244.32,330.928 244.068,331.053 243.817,331.179 243.566,331.682 243.566,332.059 243.943,332.812 243.566,333.063 243.314,333.566 243.314,333.691 243.44,334.194 243.314,334.571 243.44,335.199 243.314,335.45 242.938,335.702 242.938,335.827 242.938,336.204 242.812,336.33 242.812,336.958 242.687,337.209 242.561,337.334 242.687,336.832 242.687,336.455 242.812,335.827 242.938,335.576 243.189,335.199 242.561,335.827 242.561,336.204 242.31,336.455 242.561,336.581 242.184,336.707 242.436,336.832 242.31,337.209 242.31,337.46 241.933,337.837 241.933,338.214 241.682,338.339 241.556,338.465 241.43,338.716 241.556,338.842 241.179,338.842 240.928,339.721 240.677,339.847 240.425,340.224 240.425,340.601 240.048,340.726 239.923,340.978 239.797,340.726 239.797,340.475 239.672,340.852 239.546,340.852 239.169,340.475 238.918,340.475 238.918,340.852 238.541,340.852 238.164,341.103 237.913,341.229 237.662,341.48 237.662,341.731 237.662,342.108 237.536,342.611 237.034,342.862 236.908,343.113 236.782,343.364 236.28,343.741 236.28,344.118 236.28,344.244 236.029,344.369 235.777,344.495 235.4,344.621 235.275,344.872 235.275,345.375 235.4,345.625 235.526,345.751 235.652,346.128 235.275,346.254 234.898,346.128 234.647,346.128 234.27,346.128 234.144,346.002 233.768,346.002 233.642,346.002 233.391,346.128 233.139,346.002 232.888,346.254 232.637,346.128 232.386,346.128 232.009,346.379 233.391,347.133 236.531,347.259 237.411,348.766 239.42,350.022 240.048,350.022 242.059,348.766 243.691,349.018 244.068,350.022 244.32,350.022 244.696,350.273 244.696,350.525 245.199,350.65 248.465,350.525 251.229,349.394 253.49,349.018 257.887,349.269 262.158,350.148 268.313,350.273 273.589,349.143 276.73,349.018 278.237,348.641 279.619,347.887 282.383,347.51 284.393,348.138 285.272,348.766 288.79,348.892 291.051,348.138 293.689,348.138 294.945,348.389 298.086,350.022 301.603,350.273 304.995,350.902 307.633,352.284 310.648,355.298 316.929,358.313 318.311,359.444 319.692,361.58 319.692,362.584 319.567,368.489 318.939,373.639 315.17,383.94 315.045,393.111 313.286,403.412 312.658,410.07 312.03,412.582 310.648,415.094 310.773,418.234 312.783,421.627 313.035,423.008 313.035,423.637 313.286,423.637 313.914,425.771 314.417,426.652 316.176,430.797 318.311,433.686 323.336,438.838 327.104,441.098 328.486,442.48 329.491,443.736 331.878,444.615 332.255,444.992 332.758,447.756 334.391,448.762 334.391,450.395 335.019,451.902 341.426,452.027 342.305,452.279 347.078,454.539 349.34,454.791 350.722,454.791 351.978,454.414 353.987,452.529 355.118,451.902 359.39,451.273 364.54,448.51 365.419,448.51 366.676,448.887 366.801,451.398 367.429,451.525 369.188,450.52 369.69,446.248 371.323,444.238 371.951,443.861 373.585,443.484 378.735,443.861 381.373,445.244 384.765,446.248 388.533,446.625 391.674,447.379 394.438,448.635 398.835,452.656 399.965,453.408 "
       id="polygon85"
       style="fill:#003c87;stroke:#9c8200;stroke-width:0.30000001;stroke-miterlimit:4;stroke-dasharray:none;stroke-opacity:1" />
    <polygon
       transform="matrix(0.6864178,0,0,0.6864178,39.826511,-106.85909)"
       points="324.592,465.971 323.085,462.957 322.708,463.082 324.215,466.098 324.592,465.971 "
       id="polygon385"
       style="fill:#9c8200;stroke:#000000;stroke-width:0.30000001;stroke-miterlimit:4;stroke-dasharray:none;stroke-opacity:1" />
    <polygon
       transform="matrix(0.6864178,0,0,0.6864178,39.826511,-106.85909)"
       points="325.346,465.092 325.095,465.721 324.592,465.971 323.085,462.957 322.205,463.836 325.346,465.092 "
       id="polygon387"
       style="fill:#9c8200;stroke:#000000;stroke-width:0.30000001;stroke-miterlimit:4;stroke-dasharray:none;stroke-opacity:1" />
    <polygon
       transform="matrix(0.6864178,0,0,0.6864178,39.826511,-106.85909)"
       points="324.215,466.098 322.833,466.725 322.08,465.594 324.844,463.711 322.708,463.082 324.215,466.098 "
       id="polygon391"
       style="fill:#9c8200;stroke:#000000;stroke-width:0.30000001;stroke-miterlimit:4;stroke-dasharray:none;stroke-opacity:1" />
    <polygon
       transform="matrix(0.6864178,0,0,0.6864178,39.826511,-106.85909)"
       clip-rule="evenodd"
       points="259.143,544.484 263.791,545.238 263.791,546.369 263.917,547.375 264.042,547.752 264.293,548.254 264.67,549.008 264.922,549.385 265.298,549.635 265.55,549.887 265.927,550.139 266.806,550.641 267.811,550.893 268.941,551.143 269.821,551.143 270.323,551.143 270.7,551.018 271.454,550.766 272.082,550.389 272.584,550.012 272.836,549.762 272.961,549.51 273.087,549.133 273.213,548.881 273.213,548.506 273.213,548.002 273.213,547.625 273.087,547.375 272.836,546.998 272.459,546.621 272.082,546.244 271.58,545.867 270.323,545.113 268.062,543.982 266.429,542.979 265.173,542.098 264.168,541.219 263.666,540.717 263.414,540.34 263.037,539.711 262.661,539.084 262.535,538.455 262.284,537.701 262.284,537.074 262.284,536.445 262.409,535.063 262.535,534.686 262.661,534.184 263.163,533.43 263.666,532.676 264.293,531.922 264.67,531.672 265.047,531.42 265.424,531.17 265.801,530.918 266.806,530.541 267.183,530.416 267.811,530.289 268.816,530.164 269.946,530.289 270.575,530.289 271.203,530.416 272.584,530.666 273.589,530.918 274.595,531.295 275.474,531.672 276.228,532.049 276.981,532.551 277.609,533.053 278.112,533.682 278.614,534.184 278.991,534.813 279.368,535.566 279.619,536.193 279.745,536.947 279.871,537.701 279.871,538.455 279.745,539.209 279.619,539.963 274.846,538.957 274.971,538.078 274.846,537.701 274.846,537.324 274.595,536.697 274.218,536.068 274.092,535.816 273.841,535.566 273.213,535.189 272.459,534.813 271.454,534.561 270.575,534.311 269.695,534.311 268.816,534.436 268.062,534.561 267.686,534.813 267.434,535.063 267.183,535.439 267.057,535.816 266.932,536.32 266.932,536.697 267.057,537.074 267.309,537.449 267.811,537.953 268.69,538.58 269.821,539.334 271.328,540.088 272.71,540.967 274.092,541.721 275.097,542.35 275.977,543.104 276.604,543.73 277.107,544.484 277.609,545.238 277.861,546.117 278.112,546.998 278.112,547.877 278.112,548.881 277.986,549.51 277.861,550.012 277.609,551.018 277.107,551.896 276.604,552.65 276.228,553.152 275.851,553.529 275.474,553.781 274.971,554.158 274.092,554.66 273.589,554.912 273.087,555.037 272.082,555.289 270.826,555.414 269.57,555.414 268.188,555.162 266.806,554.912 265.675,554.535 264.67,554.283 263.791,553.781 263.037,553.404 262.284,552.902 261.53,552.398 261.027,551.771 260.525,551.143 260.022,550.516 259.646,549.762 259.394,549.008 259.269,548.129 259.143,547.375 259.018,546.369 259.143,544.484 "
       id="polygon1971"
       style="fill-rule:evenodd;stroke:#000000;stroke-width:0.30000001;stroke-miterlimit:4;stroke-dasharray:none;stroke-opacity:1" />
    <polygon
       transform="matrix(0.6864178,0,0,0.6864178,39.826511,-106.85909)"
       clip-rule="evenodd"
       points="287.031,557.926 289.167,534.059 294.066,534.436 291.93,558.43 287.031,557.926 "
       id="polygon1973"
       style="fill-rule:evenodd;stroke:#000000;stroke-width:0.30000001;stroke-miterlimit:4;stroke-dasharray:none;stroke-opacity:1" />
    <polygon
       transform="matrix(0.6864178,0,0,0.6864178,39.826511,-106.85909)"
       clip-rule="evenodd"
       points="318.563,549.762 323.21,551.018 322.959,552.021 322.708,552.902 322.331,553.781 321.954,554.535 321.451,555.289 320.949,555.916 320.446,556.42 319.818,557.047 319.19,557.549 318.563,557.926 317.809,558.303 317.055,558.555 316.301,558.807 315.422,558.932 314.542,559.057 313.537,559.184 312.406,559.184 311.276,559.057 310.146,558.807 309.141,558.555 308.261,558.053 307.256,557.549 306.377,556.922 306,556.545 305.623,556.168 304.869,555.289 304.116,554.408 303.613,553.404 303.111,552.398 302.734,551.27 302.482,550.012 302.357,549.385 302.231,548.756 302.231,548.002 302.231,547.375 302.231,545.867 302.231,544.484 302.482,543.229 302.734,541.973 303.236,540.842 303.613,539.838 304.241,538.832 304.995,537.953 305.749,537.074 306.628,536.445 307.508,535.816 308.513,535.314 309.518,534.938 310.02,534.686 310.648,534.561 311.15,534.436 311.778,534.436 313.035,534.311 314.04,534.311 315.045,534.436 316.05,534.561 317.055,534.813 317.934,535.189 318.688,535.566 319.567,536.068 320.195,536.697 321.074,537.449 321.703,538.455 322.331,539.711 322.833,540.967 318.06,542.35 317.809,541.471 317.432,540.717 317.181,540.34 316.804,539.963 316.552,539.711 316.176,539.461 315.547,538.957 314.668,538.707 314.291,538.58 313.788,538.455 312.909,538.455 312.281,538.58 311.653,538.58 311.024,538.832 310.522,539.084 310.02,539.334 309.518,539.711 309.015,540.088 308.638,540.59 308.261,541.094 307.885,541.721 307.633,542.35 307.508,543.104 307.256,543.857 307.256,544.736 307.131,545.742 307.131,546.746 307.256,547.877 307.382,548.881 307.508,549.887 307.759,550.641 308.01,551.395 308.261,552.148 308.638,552.65 309.015,553.279 309.518,553.656 309.895,554.033 310.396,554.408 311.024,554.66 311.527,554.785 312.155,554.912 312.783,555.037 313.412,555.037 314.291,554.912 315.17,554.66 315.924,554.283 316.301,553.906 316.678,553.656 316.929,553.279 317.306,552.902 317.558,552.525 317.809,552.021 318.186,551.018 318.563,549.762 "
       id="polygon1975"
       style="fill-rule:evenodd;stroke:#000000;stroke-width:0.30000001;stroke-miterlimit:4;stroke-dasharray:none;stroke-opacity:1" />
    <path
       clip-rule="evenodd"
       d="M 283.9311,271.54245 L 280.39536,272.40459 L 278.15352,269.12832 L 271.68609,270.67962 L 271.25502,274.64643 L 267.89226,275.50857 L 270.0483,258.00492 L 273.49686,257.14141 L 283.9311,271.54245 L 283.9311,271.54245 z M 276.42855,266.62564 L 272.72121,261.2805 L 272.03136,267.74793 L 276.42855,266.62564 L 276.42855,266.62564 z"
       id="path1977"
       style="fill-rule:evenodd;stroke:#000000;stroke-width:0.20592535;stroke-miterlimit:4;stroke-dasharray:none;stroke-opacity:1" />
    <path
       clip-rule="evenodd"
       d="M 112.16259,182.38021 L 111.73152,176.68912 L 111.64503,176.25874 L 111.64503,175.82698 L 111.73152,175.4824 L 111.81732,175.05064 L 111.90313,174.70606 L 111.98893,174.44728 L 112.16122,174.1027 L 112.33351,173.84392 L 112.5916,173.58514 L 112.76389,173.41216 L 113.36725,173.06758 L 113.97062,172.8088 L 114.40169,172.8088 L 114.74627,172.723 L 115.52261,172.723 L 115.95368,172.723 L 116.29826,172.8088 L 116.55704,172.98178 L 116.90162,173.06758 L 117.1604,173.24056 L 117.41918,173.49796 L 117.59147,173.58514 L 117.67796,173.75674 L 117.93605,174.01552 L 118.10834,174.36148 L 118.28063,174.70606 L 118.45292,175.13782 L 118.53873,175.4824 L 118.62522,176.51752 L 118.79751,178.3276 L 122.93661,177.98302 L 123.19538,181.43227 L 112.16259,182.38021 L 112.16259,182.38021 z M 116.64627,178.50058 L 116.56047,177.72424 L 116.47467,177.20668 L 116.38818,176.8621 L 116.21589,176.60332 L 116.0436,176.34454 L 115.87131,176.17156 L 115.61253,176.08576 L 115.44024,175.99996 L 115.18214,175.99996 L 114.92336,176.08576 L 114.66458,176.17156 L 114.49229,176.25874 L 114.32,176.43034 L 114.2342,176.51752 L 114.14771,176.68912 L 114.06191,176.9479 L 114.06191,177.37966 L 114.06191,177.81004 L 114.14771,178.75936 L 116.64627,178.50058 L 116.64627,178.50058 z"
       id="path1979"
       style="fill:#9c8200;fill-rule:evenodd;stroke:#000000;stroke-width:0.20592535;stroke-miterlimit:4;stroke-dasharray:none;stroke-opacity:1" />
    <path
       clip-rule="evenodd"
       d="M 120.52659,162.03067 L 120.4401,165.9103 L 122.25087,166.51504 L 122.16507,169.96291 L 111.21396,165.6529 L 111.29976,161.94418 L 122.42385,157.97806 L 122.33736,161.51311 L 120.52659,162.03067 L 120.52659,162.03067 z M 118.11246,162.72052 L 114.14565,163.84144 L 118.02597,165.13465 L 118.11246,162.72052 L 118.11246,162.72052 z"
       id="path1981"
       style="fill:#9c8200;fill-rule:evenodd;stroke:#000000;stroke-width:0.20592535;stroke-miterlimit:4;stroke-dasharray:none;stroke-opacity:1" />
    <polygon
       transform="matrix(0.6864178,0,0,0.6864178,39.826511,-106.85909)"
       clip-rule="evenodd"
       points="104.628,379.292 106.387,365.348 109.527,365.725 117.818,375.9 118.949,366.604 122.341,366.981 120.457,382.182 117.19,381.679 109.025,371.755 108.02,379.669 104.628,379.292 "
       id="polygon1983"
       style="fill:#9c8200;fill-rule:evenodd;stroke:#000000;stroke-width:0.30000001;stroke-miterlimit:4;stroke-dasharray:none;stroke-opacity:1" />
    <path
       clip-rule="evenodd"
       d="M 181.05972,44.586642 L 185.4576,42.171824 L 186.14745,41.913045 L 186.75081,41.654952 L 187.26768,41.482661 L 187.78524,41.396859 L 188.3028,41.396859 L 188.81967,41.482661 L 189.25074,41.568463 L 189.68181,41.740754 L 190.19937,41.913045 L 190.54395,42.257626 L 190.97502,42.516406 L 191.31961,42.861674 L 192.00946,43.723815 L 192.26824,44.154885 L 192.61282,44.672444 L 192.9574,45.362294 L 193.21618,46.052144 L 193.38847,46.741994 L 193.47427,47.000773 L 193.47427,47.258867 L 193.56007,47.776426 L 193.47427,48.293985 L 193.38847,48.810857 L 193.30198,49.241928 L 193.12969,49.672998 L 192.87091,50.104068 L 192.61213,50.449336 L 192.35335,50.70743 L 191.49121,51.397279 L 190.71487,51.914152 L 186.23119,54.32897 L 181.05972,44.586642 L 181.05972,44.586642 z M 185.19882,45.190003 L 188.04471,50.536512 L 188.73456,50.105441 L 189.25212,49.847348 L 189.5967,49.675057 L 189.85548,49.416278 L 190.02777,49.157498 L 190.11357,48.985207 L 190.20006,48.726428 L 190.28586,48.467648 L 190.28586,48.123067 L 190.20006,47.778485 L 190.02777,47.347414 L 189.85548,46.829855 L 189.5967,46.312296 L 189.16563,45.622447 L 188.99334,45.363667 L 188.73456,45.104887 L 188.38997,44.673817 L 188.1312,44.588015 L 187.9589,44.502213 L 187.70012,44.415724 L 187.52783,44.415724 L 187.26905,44.329922 L 187.01096,44.415724 L 186.4934,44.502213 L 185.97584,44.760992 L 185.19882,45.190003 L 185.19882,45.190003 z"
       id="path1985"
       style="fill:#9c8200;fill-rule:evenodd;stroke:#000000;stroke-width:0.20592535;stroke-miterlimit:4;stroke-dasharray:none;stroke-opacity:1" />
    <polygon
       transform="matrix(0.6864178,0,0,0.6864178,39.826511,-106.85909)"
       clip-rule="evenodd"
       points="225.728,210.582 238.164,205.683 239.42,208.823 231.632,211.964 232.637,214.351 239.797,211.461 241.054,214.476 233.893,217.366 235.023,220.38 243.063,217.114 244.32,220.506 231.757,225.531 225.728,210.582 "
       id="polygon1987"
       style="fill:#9c8200;fill-rule:evenodd;stroke:#000000;stroke-width:0.30000001;stroke-miterlimit:4;stroke-dasharray:none;stroke-opacity:1" />
    <polygon
       transform="matrix(0.6864178,0,0,0.6864178,39.826511,-106.85909)"
       clip-rule="evenodd"
       points="248.088,213.597 252.485,212.089 252.987,213.094 253.239,213.471 253.616,213.723 254.118,213.974 254.621,214.1 255.249,214.225 255.625,214.1 256.002,214.1 256.379,213.848 256.882,213.723 257.133,213.471 257.384,213.094 257.636,212.843 257.636,212.466 257.761,212.215 257.636,211.838 257.51,211.587 257.51,211.461 257.384,211.336 257.133,211.084 256.882,210.959 256.379,210.833 255.877,210.708 254.118,210.708 252.611,210.708 251.229,210.582 250.098,210.331 249.093,209.954 248.716,209.828 248.339,209.577 247.711,208.949 247.46,208.572 247.334,208.195 247.083,207.818 246.958,207.316 246.832,206.813 246.832,206.185 246.958,205.557 247.083,204.929 247.334,204.301 247.711,203.798 247.963,203.421 248.088,203.17 248.465,202.919 248.716,202.668 249.345,202.166 250.224,201.789 251.229,201.412 252.359,201.035 253.741,200.784 254.495,200.658 255.123,200.658 255.625,200.658 256.254,200.658 256.756,200.784 257.259,200.909 257.636,201.161 258.138,201.412 258.515,201.663 258.892,202.04 259.52,202.919 260.022,204.05 255.625,205.432 255.375,205.055 254.998,204.678 254.872,204.427 254.746,204.301 254.37,204.175 253.993,204.05 253.616,203.924 253.113,203.924 252.736,204.05 252.234,204.175 251.982,204.301 251.731,204.552 251.605,204.678 251.48,204.803 251.354,205.055 251.354,205.306 251.229,205.557 251.354,205.809 251.354,205.934 251.48,206.06 251.605,206.185 251.857,206.311 252.108,206.437 252.485,206.437 253.616,206.437 255.123,206.437 256.505,206.437 257.636,206.437 258.515,206.688 259.143,206.813 259.897,207.064 260.399,207.441 260.902,207.818 261.279,208.321 261.655,208.823 261.907,209.326 262.158,209.954 262.284,210.708 262.284,211.461 262.284,212.215 262.032,212.969 261.781,213.597 261.404,214.351 260.902,214.979 260.273,215.481 259.52,215.984 258.766,216.361 257.761,216.737 256.756,217.114 255.751,217.366 254.872,217.491 253.993,217.617 253.239,217.617 252.485,217.617 251.857,217.491 251.605,217.366 251.354,217.366 250.852,217.114 249.847,216.486 249.47,216.109 249.093,215.607 248.465,214.728 248.214,214.225 248.088,213.597 "
       id="polygon1989"
       style="fill:#9c8200;fill-rule:evenodd;stroke:#000000;stroke-width:0.30000001;stroke-miterlimit:4;stroke-dasharray:none;stroke-opacity:1" />
    <path
       clip-rule="evenodd"
       d="M 231.07212,36.998293 L 227.27829,37.601655 L 227.01951,39.498913 L 223.57095,40.015786 L 225.89928,28.461315 L 229.6073,27.857954 L 235.47069,38.119214 L 231.93563,38.722575 L 231.07212,36.998293 L 231.07212,36.998293 z M 229.9512,34.756453 L 228.14043,30.962622 L 227.62287,35.101721 L 229.9512,34.756453 L 229.9512,34.756453 z"
       id="path1991"
       style="fill:#9c8200;fill-rule:evenodd;stroke:#000000;stroke-width:0.20592535;stroke-miterlimit:4;stroke-dasharray:none;stroke-opacity:1" />
    <path
       clip-rule="evenodd"
       d="M 238.91925,37.774632 L 238.48818,26.737034 L 244.17927,26.47894 L 244.95492,26.47894 L 245.64477,26.564743 L 246.16164,26.564743 L 246.6792,26.650545 L 247.02378,26.822836 L 247.36836,27.081615 L 247.71295,27.340395 L 248.05753,27.684977 L 248.22982,28.029558 L 248.40211,28.460629 L 248.5744,28.891699 L 248.5744,29.409258 L 248.5744,29.840328 L 248.4886,30.271399 L 248.40211,30.702469 L 248.22982,31.047051 L 248.05753,31.391633 L 247.79875,31.650412 L 247.54066,31.909192 L 247.19539,32.167971 L 246.67852,32.426064 L 246.07515,32.598355 L 246.59271,32.770646 L 246.93729,33.029426 L 247.19539,33.201716 L 247.54066,33.546298 L 247.79875,33.977369 L 247.97104,34.236148 L 249.78181,37.340129 L 245.90149,37.51242 L 244.00423,34.236148 L 243.65965,33.632787 L 243.31507,33.374007 L 243.14278,33.288205 L 242.884,33.202403 L 242.71171,33.116601 L 242.45293,33.116601 L 242.19483,33.116601 L 242.36712,37.600282 L 238.91925,37.774632 L 238.91925,37.774632 z M 242.10972,31.048424 L 243.57591,31.048424 L 243.92049,30.962622 L 244.43805,30.876133 L 244.61034,30.790331 L 244.78263,30.704528 L 244.86843,30.618726 L 244.95423,30.446435 L 245.04072,30.360633 L 245.12652,30.188342 L 245.21233,29.843761 L 245.12652,29.584981 L 245.04072,29.326888 L 244.95423,29.154597 L 244.78194,28.982306 L 244.60965,28.896504 L 244.35087,28.810702 L 243.9198,28.810702 L 243.48873,28.810702 L 242.02254,28.810702 L 242.10972,31.048424 L 242.10972,31.048424 z"
       id="path1993"
       style="fill:#9c8200;fill-rule:evenodd;stroke:#000000;stroke-width:0.20592535;stroke-miterlimit:4;stroke-dasharray:none;stroke-opacity:1" />
    <path
       clip-rule="evenodd"
       d="M 253.23312,37.343561 L 254.00946,26.305963 L 259.70055,26.737034 L 260.3904,26.822836 L 261.08025,26.909324 L 261.59781,26.995127 L 262.02888,27.167418 L 262.45995,27.339708 L 262.80521,27.598488 L 263.06331,27.94307 L 263.32209,28.287651 L 263.40858,28.459942 L 263.49506,28.718722 L 263.66736,29.149792 L 263.75384,29.580863 L 263.75384,30.098422 L 263.66736,30.529492 L 263.58087,30.960562 L 263.40858,31.305144 L 263.23629,31.649726 L 262.97751,31.994308 L 262.89102,32.08011 L 262.71873,32.252401 L 262.37346,32.51118 L 262.02888,32.683471 L 261.51132,32.855762 L 260.82147,33.028053 L 261.33903,33.286832 L 261.68361,33.459123 L 261.94239,33.717216 L 262.20117,34.148287 L 262.45995,34.492868 L 262.63224,34.83745 L 264.09843,38.113722 L 260.21811,37.855629 L 258.66612,34.40638 L 258.32085,33.803018 L 258.23505,33.630728 L 258.06207,33.458437 L 257.88978,33.371948 L 257.71749,33.286146 L 257.45871,33.200344 L 257.28642,33.200344 L 256.94115,33.114541 L 256.68237,37.598222 L 253.23312,37.343561 L 253.23312,37.343561 z M 257.11344,31.048424 L 258.57963,31.134226 L 258.92489,31.134226 L 259.44245,31.048424 L 259.61474,31.048424 L 259.78704,30.962622 L 259.87352,30.876133 L 260.04582,30.790331 L 260.1323,30.61804 L 260.21811,30.445749 L 260.30459,30.186969 L 260.30459,29.92819 L 260.21811,29.670097 L 260.1323,29.497806 L 260.04582,29.325515 L 259.78704,29.153224 L 259.52826,29.067422 L 259.18367,28.980933 L 258.7526,28.895131 L 257.28642,28.809329 L 257.11344,31.048424 L 257.11344,31.048424 z"
       id="path1995"
       style="fill:#9c8200;fill-rule:evenodd;stroke:#000000;stroke-width:0.20592535;stroke-miterlimit:4;stroke-dasharray:none;stroke-opacity:1" />
    <path
       clip-rule="evenodd"
       d="M 267.63348,32.945683 L 267.80577,32.342321 L 267.97875,31.73896 L 268.15104,31.135599 L 268.40982,30.704528 L 268.6686,30.186969 L 269.01318,29.755899 L 269.35845,29.411317 L 269.78952,29.066736 L 270.22059,28.807956 L 270.73815,28.549177 L 271.2557,28.376886 L 271.77326,28.204595 L 272.29082,28.118793 L 272.89418,28.118793 L 273.49754,28.118793 L 274.18808,28.204595 L 274.87793,28.376886 L 275.48129,28.549177 L 275.99885,28.721467 L 276.51641,28.979561 L 277.03397,29.23834 L 277.46504,29.582922 L 277.80962,29.927504 L 277.9826,30.186283 L 278.15489,30.358574 L 278.41367,30.789644 L 278.67245,31.220715 L 278.84474,31.737587 L 278.93123,32.255146 L 279.01703,32.858508 L 279.10352,33.461869 L 279.01703,34.06523 L 278.93123,34.668591 L 278.84474,35.18615 L 278.75825,35.617221 L 278.67245,35.962489 L 278.49947,36.393559 L 278.41367,36.738141 L 278.24138,37.082723 L 278.0684,37.427304 L 277.80962,37.686084 L 277.63733,37.944863 L 277.37855,38.203643 L 276.86099,38.720516 L 276.25763,39.065097 L 275.65358,39.323877 L 275.309,39.409679 L 274.96373,39.496168 L 274.18808,39.58197 L 273.41174,39.58197 L 272.54892,39.496168 L 271.68677,39.323877 L 270.82463,39.151586 L 270.13478,38.807004 L 269.53074,38.461736 L 269.27196,38.289445 L 269.01318,38.030666 L 268.84089,37.771886 L 268.58211,37.513107 L 268.23753,36.909745 L 267.89226,36.306384 L 267.80577,35.961802 L 267.63348,35.530732 L 267.63348,35.18615 L 267.54768,34.75508 L 267.54768,33.892939 L 267.54768,33.461869 L 267.63348,32.945683 L 267.63348,32.945683 z M 270.99624,33.549044 L 270.90975,34.324696 L 270.90975,34.669278 L 270.90975,34.928057 L 271.08273,35.531418 L 271.16853,35.790198 L 271.25502,35.962489 L 271.5138,36.393559 L 271.68609,36.479361 L 271.85838,36.651652 L 272.29014,36.823943 L 272.54823,36.910432 L 272.80701,36.996234 L 273.32457,36.996234 L 273.84213,36.996234 L 274.2732,36.823943 L 274.61847,36.565164 L 274.79076,36.392873 L 274.96305,36.134093 L 275.04954,35.875314 L 275.22183,35.616534 L 275.30832,35.271953 L 275.48061,34.927371 L 275.56709,34.06523 L 275.6529,33.37538 L 275.6529,32.772019 L 275.56709,32.168658 L 275.48061,31.996367 L 275.30832,31.737587 L 275.04954,31.393006 L 274.70427,31.134226 L 274.44549,30.961935 L 274.2732,30.875446 L 274.01442,30.789644 L 273.75564,30.789644 L 273.49686,30.703842 L 273.23877,30.703842 L 272.80701,30.789644 L 272.37594,30.961935 L 272.03136,31.220715 L 271.68609,31.565296 L 271.42731,32.082169 L 271.16853,32.772019 L 270.99624,33.549044 L 270.99624,33.549044 z"
       id="path1997"
       style="fill:#9c8200;fill-rule:evenodd;stroke:#000000;stroke-width:0.20592535;stroke-miterlimit:4;stroke-dasharray:none;stroke-opacity:1" />
    <polygon
       transform="matrix(0.6864178,0,0,0.6864178,39.826511,-106.85909)"
       clip-rule="evenodd"
       points="357.756,200.658 362.53,202.04 359.013,213.723 366.424,215.984 365.294,219.752 353.108,215.984 357.756,200.658 "
       id="polygon1999"
       style="fill:#9c8200;fill-rule:evenodd;stroke:#000000;stroke-width:0.30000001;stroke-miterlimit:4;stroke-dasharray:none;stroke-opacity:1" />
    <polygon
       transform="matrix(0.6864178,0,0,0.6864178,39.826511,-106.85909)"
       clip-rule="evenodd"
       points="376.6,206.562 381.122,208.446 376.6,219.752 383.886,222.642 382.378,226.285 370.569,221.511 376.6,206.562 "
       id="polygon2001"
       style="fill:#9c8200;fill-rule:evenodd;stroke:#000000;stroke-width:0.30000001;stroke-miterlimit:4;stroke-dasharray:none;stroke-opacity:1" />
    <path
       clip-rule="evenodd"
       d="M 307.81638,45.017712 L 308.16096,44.414351 L 308.50623,43.897479 L 308.67852,43.638699 L 308.85149,43.466408 L 309.28256,43.035338 L 309.71363,42.690756 L 310.1447,42.431977 L 310.66226,42.173197 L 311.09333,42.000906 L 311.61089,41.828615 L 312.21425,41.828615 L 312.73181,41.828615 L 313.24937,41.828615 L 313.85273,41.914418 L 314.37029,42.086708 L 314.97434,42.345488 L 315.5777,42.604267 L 316.09526,42.948849 L 316.61282,43.293431 L 317.13038,43.724501 L 317.56145,44.069083 L 317.90603,44.500153 L 318.16481,44.931224 L 318.42359,45.448783 L 318.59657,45.965655 L 318.76886,46.396726 L 318.76886,46.913598 L 318.76886,47.51696 L 318.76886,48.034519 L 318.68237,48.552078 L 318.51008,49.155439 L 318.2513,49.672998 L 317.99252,50.276359 L 317.73374,50.70743 L 317.47496,51.052011 L 317.04389,51.741861 L 316.78511,52.086443 L 316.61282,52.172245 L 316.44053,52.344536 L 316.18175,52.602629 L 315.92297,52.77492 L 315.31892,53.119502 L 314.97434,53.291793 L 314.71556,53.377595 L 314.37029,53.463397 L 314.02571,53.549199 L 313.33586,53.635688 L 312.99059,53.635688 L 312.64601,53.549199 L 312.21425,53.463397 L 311.86967,53.377595 L 311.09333,53.118815 L 310.317,52.774234 L 309.54134,52.343163 L 308.85149,51.825604 L 308.33393,51.308045 L 308.07516,51.049266 L 307.81638,50.791173 L 307.64408,50.532393 L 307.47111,50.187811 L 307.38531,49.929032 L 307.21233,49.58445 L 307.04004,48.8946 L 306.95423,48.20475 L 306.95423,47.860169 L 307.04004,47.429098 L 307.04004,47.084516 L 307.12653,46.653446 L 307.29882,46.222376 L 307.47111,45.877794 L 307.81638,45.017712 L 307.81638,45.017712 z M 310.83387,46.569703 L 310.48929,47.346042 L 310.31631,47.949403 L 310.23051,48.207496 L 310.23051,48.552764 L 310.23051,48.810857 L 310.23051,48.983148 L 310.4028,49.500707 L 310.66158,49.845289 L 310.83387,50.01758 L 311.00685,50.189871 L 311.43792,50.44865 L 311.86899,50.706743 L 312.12777,50.706743 L 312.38655,50.793232 L 312.55884,50.793232 L 312.81762,50.706743 L 312.98991,50.706743 L 313.24869,50.620941 L 313.67976,50.362161 L 313.93854,50.189871 L 314.11083,49.931091 L 314.54258,49.413532 L 314.97365,48.63788 L 315.31824,47.94803 L 315.49121,47.344669 L 315.57702,46.82711 L 315.49121,46.309551 L 315.31824,45.87848 L 315.05946,45.533899 L 314.97365,45.361608 L 314.80136,45.189317 L 314.36961,44.930537 L 313.85205,44.671758 L 313.42098,44.585956 L 313.1622,44.585956 L 312.98991,44.671758 L 312.55884,44.758246 L 312.04128,45.01634 L 311.61021,45.360921 L 311.43792,45.619701 L 311.26494,45.964283 L 310.83387,46.569703 L 310.83387,46.569703 z"
       id="path2003"
       style="fill:#9c8200;fill-rule:evenodd;stroke:#000000;stroke-width:0.20592535;stroke-miterlimit:4;stroke-dasharray:none;stroke-opacity:1" />
    <g
       transform="matrix(0.6864178,0,0,0.6864178,39.826511,-106.85909)"
       id="g6800">
      <polygon
         style="fill-rule:evenodd;stroke:#000000;stroke-width:0.30000001;stroke-miterlimit:4;stroke-dasharray:none;stroke-opacity:1"
         id="polygon51"
         points="389.287,273.519 391.423,276.031 390.418,276.911 389.915,277.162 389.413,277.413 388.282,277.79 387.277,278.041 386.774,278.041 386.272,278.041 385.77,277.916 385.142,277.79 384.137,277.413 383.006,276.785 382.378,276.408 381.876,275.905 381.373,275.403 380.996,274.775 380.619,274.147 380.242,273.519 379.991,272.891 379.865,272.137 379.74,271.383 379.74,270.629 379.865,270.001 379.991,269.248 380.242,268.368 380.494,267.614 380.871,266.861 381.373,266.107 382.001,265.353 382.504,264.6 383.132,263.971 383.76,263.469 384.388,262.966 385.017,262.589 385.77,262.338 386.398,262.087 387.151,261.961 387.905,261.836 388.659,261.836 389.287,261.961 390.041,262.087 390.795,262.338 391.423,262.715 392.177,263.092 392.679,263.594 393.308,263.971 394.187,264.976 394.438,265.479 394.814,265.981 395.066,266.609 395.191,267.112 395.317,267.866 395.317,268.745 395.191,269.625 394.94,270.503 391.926,269.373 392.051,268.871 392.177,268.243 392.051,267.74 391.926,267.112 391.674,266.609 391.423,266.107 391.046,265.73 390.544,265.353 389.79,264.976 389.036,264.725 388.659,264.725 388.282,264.725 387.78,264.725 387.403,264.851 387.026,264.976 386.649,265.228 386.272,265.479 385.896,265.855 385.393,266.232 385.017,266.609 384.64,267.112 384.263,267.74 383.886,268.368 383.635,268.871 383.132,270.001 383.006,270.503 382.881,271.006 382.881,271.885 382.881,272.262 383.006,272.639 383.258,273.016 383.383,273.393 383.635,273.644 383.886,274.021 384.137,274.272 384.514,274.523 385.017,274.775 385.645,274.9 386.272,275.026 386.774,275.026 387.403,274.9 388.031,274.523 388.659,274.147 389.287,273.519 "
         clip-rule="evenodd" />
      <g
         id="g6738">
        <polygon
           clip-rule="evenodd"
           points="393.182,283.694 403.357,271.509 412.401,279.046 410.643,281.056 404.11,275.654 401.85,278.292 408.005,283.443 406.246,285.453 400.217,280.428 397.453,283.694 404.11,289.347 402.478,291.357 393.182,283.694 "
           id="polygon53"
           style="fill-rule:evenodd;stroke:#000000;stroke-width:0.30000001;stroke-miterlimit:4;stroke-dasharray:none;stroke-opacity:1" />
        <polygon
           clip-rule="evenodd"
           points="406.497,295.502 418.055,284.573 420.19,286.96 416.799,298.894 424.587,291.734 426.597,293.869 415.04,304.673 412.904,302.286 416.17,290.478 408.508,297.638 406.497,295.502 "
           id="polygon55"
           style="fill-rule:evenodd;stroke:#000000;stroke-width:0.30000001;stroke-miterlimit:4;stroke-dasharray:none;stroke-opacity:1" />
        <polygon
           clip-rule="evenodd"
           points="420.944,312.587 431.622,304.924 428.858,301.03 430.994,299.522 438.405,309.698 436.27,311.205 433.506,307.437 422.828,315.225 420.944,312.587 "
           id="polygon57"
           style="fill-rule:evenodd;stroke:#000000;stroke-width:0.30000001;stroke-miterlimit:4;stroke-dasharray:none;stroke-opacity:1" />
        <path
           clip-rule="evenodd"
           d="M 428.104,323.014 L 442.173,315.602 L 445.314,321.506 L 445.817,322.636 L 446.194,323.515 L 446.445,324.269 L 446.696,325.022 L 446.696,325.65 L 446.571,326.152 L 446.445,326.78 L 446.194,327.282 L 445.817,327.91 L 445.44,328.286 L 444.937,328.789 L 444.309,329.165 L 443.555,329.416 L 442.676,329.667 L 442.3,329.667 L 441.923,329.667 L 441.546,329.667 L 441.169,329.542 L 440.415,329.291 L 439.787,328.914 L 439.033,328.286 L 438.782,327.91 L 438.405,327.533 L 438.28,328.663 L 438.028,329.668 L 437.903,330.171 L 437.526,330.799 L 436.646,332.432 L 434.887,335.573 L 433.003,332.181 L 435.013,328.538 L 435.892,326.905 L 436.269,326.026 L 436.395,325.649 L 436.395,325.4 L 436.395,324.772 L 436.144,324.144 L 435.767,323.265 L 435.516,322.763 L 429.612,325.904 L 428.104,323.014 L 428.104,323.014 z M 437.651,321.506 L 438.782,323.641 L 439.787,325.274 L 440.038,325.776 L 440.29,326.153 L 440.792,326.404 L 441.044,326.53 L 441.42,326.53 L 441.672,326.53 L 441.923,326.53 L 442.3,326.404 L 442.551,326.279 L 442.928,326.154 L 443.179,325.903 L 443.305,325.652 L 443.556,325.275 L 443.556,325.024 L 443.682,324.648 L 443.556,324.271 L 443.431,324.02 L 442.426,321.884 L 441.295,319.623 L 437.651,321.506 L 437.651,321.506 z"
           id="path59"
           style="fill-rule:evenodd;stroke:#000000;stroke-width:0.30000001;stroke-miterlimit:4;stroke-dasharray:none;stroke-opacity:1" />
        <path
           clip-rule="evenodd"
           d="M 443.808,336.455 L 444.938,336.078 L 445.943,335.827 L 446.446,335.827 L 446.948,335.702 L 447.828,335.702 L 449.21,335.827 L 449.461,335.952 L 449.838,336.077 L 450.466,336.328 L 450.969,336.579 L 451.597,336.956 L 451.974,337.333 L 452.476,337.71 L 452.979,338.338 L 453.482,338.966 L 453.859,339.845 L 454.235,340.724 L 454.612,341.478 L 454.738,342.232 L 454.864,342.985 L 454.864,343.864 L 454.864,344.492 L 454.738,345.245 L 454.487,345.999 L 454.235,346.627 L 453.859,347.381 L 453.482,348.009 L 453.23,348.26 L 452.979,348.511 L 452.351,349.139 L 451.723,349.641 L 450.969,350.018 L 450.215,350.395 L 449.336,350.771 L 448.456,351.148 L 447.577,351.399 L 446.823,351.524 L 445.943,351.524 L 445.19,351.524 L 444.436,351.399 L 444.059,351.399 L 443.682,351.274 L 443.054,351.023 L 442.3,350.646 L 441.672,350.269 L 441.169,349.892 L 440.541,349.39 L 440.164,348.762 L 439.662,348.134 L 439.285,347.38 L 438.908,346.626 L 438.656,345.747 L 438.531,344.994 L 438.405,344.24 L 438.28,343.486 L 438.405,342.733 L 438.531,341.979 L 438.656,341.226 L 438.908,340.598 L 439.285,339.845 L 439.787,339.342 L 440.29,338.714 L 440.792,338.212 L 441.42,337.71 L 442.174,337.208 L 442.928,336.831 L 443.808,336.455 L 443.808,336.455 z M 445.063,339.47 L 443.932,340.098 L 442.927,340.726 L 442.55,340.977 L 442.173,341.354 L 441.922,341.731 L 441.671,342.107 L 441.545,342.61 L 441.419,342.986 L 441.294,343.363 L 441.168,343.865 L 441.168,344.242 L 441.294,344.744 L 441.419,345.121 L 441.545,345.623 L 441.922,346.377 L 442.425,347.13 L 443.178,347.633 L 443.932,348.009 L 444.435,348.135 L 444.812,348.26 L 445.942,348.26 L 447.073,348.135 L 448.204,347.758 L 448.832,347.507 L 449.46,347.13 L 450.34,346.628 L 450.717,346.252 L 451.094,345.875 L 451.596,345.121 L 451.847,344.744 L 451.973,344.367 L 451.973,343.865 L 452.099,343.488 L 452.099,342.986 L 451.973,342.61 L 451.847,342.107 L 451.722,341.731 L 451.345,340.852 L 450.717,340.098 L 450.465,339.847 L 450.088,339.596 L 449.335,339.219 L 448.832,339.094 L 448.455,338.969 L 447.45,338.969 L 446.319,339.094 L 445.063,339.47 L 445.063,339.47 z"
           id="path61"
           style="fill-rule:evenodd;stroke:#000000;stroke-width:0.30000001;stroke-miterlimit:4;stroke-dasharray:none;stroke-opacity:1" />
        <path
           clip-rule="evenodd"
           d="M 446.194,372.383 L 445.566,368.991 L 448.706,366.855 L 447.45,360.574 L 443.681,360.072 L 442.927,356.806 L 459.76,359.444 L 460.389,362.836 L 446.194,372.383 L 446.194,372.383 z M 451.094,365.223 L 456.495,361.957 L 450.214,361.078 L 451.094,365.223 L 451.094,365.223 z"
           id="path63"
           style="fill-rule:evenodd;stroke:#000000;stroke-width:0.30000001;stroke-miterlimit:4;stroke-dasharray:none;stroke-opacity:1" />
        <polygon
           clip-rule="evenodd"
           points="447.073,376.905 462.776,375.523 463.278,380.297 452.727,384.066 463.781,385.95 464.158,390.724 448.33,392.105 448.078,389.091 460.515,388.086 447.827,385.95 447.576,382.935 459.761,378.79 447.324,379.795 447.073,376.905 "
           id="polygon65"
           style="fill-rule:evenodd;stroke:#000000;stroke-width:0.30000001;stroke-miterlimit:4;stroke-dasharray:none;stroke-opacity:1" />
      </g>
      <polygon
         style="fill-rule:evenodd;stroke:#000000;stroke-width:0.30000001;stroke-miterlimit:4;stroke-dasharray:none;stroke-opacity:1"
         id="polygon67"
         points="448.204,398.262 464.158,398.889 463.655,410.572 461.018,410.447 461.269,401.904 457.751,401.779 457.5,409.693 454.862,409.693 455.113,401.779 450.842,401.527 450.465,410.447 447.827,410.32 448.204,398.262 "
         clip-rule="evenodd" />
      <path
         style="fill-rule:evenodd;stroke:#000000;stroke-width:0.30000001;stroke-miterlimit:4;stroke-dasharray:none;stroke-opacity:1"
         id="path69"
         d="M 447.073,415.975 L 462.65,418.487 L 461.645,425.145 L 461.394,426.276 L 461.142,427.28 L 460.891,428.034 L 460.64,428.663 L 460.263,429.165 L 459.886,429.667 L 459.384,430.044 L 459.132,430.171 L 458.881,430.296 L 458.253,430.548 L 457.625,430.673 L 456.996,430.673 L 456.243,430.548 L 455.363,430.421 L 454.735,430.044 L 454.107,429.667 L 453.479,429.04 L 453.102,428.411 L 452.725,427.657 L 452.599,426.778 L 452.599,425.772 L 452.222,426.149 L 451.72,426.653 L 451.343,426.903 L 450.966,427.28 L 449.835,427.909 L 449.081,428.286 L 448.202,428.663 L 444.81,430.044 L 445.438,426.276 L 449.207,424.516 L 450.84,423.762 L 451.72,423.26 L 451.971,423.008 L 452.222,422.883 L 452.348,422.631 L 452.473,422.381 L 452.599,422.129 L 452.725,421.752 L 452.976,420.873 L 453.102,420.119 L 446.57,419.115 L 447.073,415.975 L 447.073,415.975 z M 455.49,420.621 L 455.239,422.883 L 454.987,424.768 L 454.862,425.395 L 454.862,425.772 L 454.987,426.024 L 455.113,426.276 L 455.239,426.526 L 455.49,426.778 L 455.615,426.903 L 455.992,427.155 L 456.244,427.155 L 456.621,427.28 L 457.249,427.28 L 457.626,427.155 L 457.877,427.03 L 458.128,426.903 L 458.379,426.653 L 458.631,426.276 L 458.756,426.024 L 458.882,425.145 L 459.133,423.637 L 459.51,421.25 L 455.49,420.621 L 455.49,420.621 z"
         clip-rule="evenodd" />
      <polygon
         style="fill-rule:evenodd;stroke:#000000;stroke-width:0.30000001;stroke-miterlimit:4;stroke-dasharray:none;stroke-opacity:1"
         id="polygon71"
         points="443.305,434.063 458.505,438.711 457.5,441.852 442.426,437.203 443.305,434.063 "
         clip-rule="evenodd" />
      <polygon
         style="fill-rule:evenodd;stroke:#000000;stroke-width:0.30000001;stroke-miterlimit:4;stroke-dasharray:none;stroke-opacity:1"
         id="polygon73"
         points="442.174,455.168 440.164,457.68 439.159,456.801 438.405,455.922 437.777,455.043 437.4,454.037 437.274,453.033 437.274,451.902 437.526,450.771 437.903,449.641 438.154,449.012 438.531,448.258 439.033,447.756 439.41,447.129 439.913,446.752 440.541,446.248 441.169,445.998 441.797,445.621 442.551,445.369 443.179,445.244 443.933,445.244 444.813,445.244 445.566,445.244 446.319,445.369 447.199,445.621 448.078,445.998 449.711,446.752 450.465,447.254 451.094,447.756 451.722,448.258 452.224,448.887 452.601,449.516 452.978,450.143 453.229,450.896 453.48,451.525 453.605,452.279 453.605,453.033 453.605,453.66 453.48,454.414 453.229,455.168 452.978,456.047 452.727,456.676 452.35,457.178 451.973,457.807 451.596,458.309 451.219,458.686 450.717,459.063 450.214,459.439 449.586,459.689 448.958,459.941 448.078,460.193 447.199,460.193 446.319,460.193 446.822,456.926 447.45,456.926 447.953,456.926 448.581,456.801 449.083,456.549 449.46,456.172 449.963,455.797 450.214,455.42 450.465,454.791 450.717,454.414 450.717,454.037 450.842,453.66 450.842,453.158 450.842,452.781 450.717,452.404 450.465,451.65 450.214,451.273 449.963,450.896 449.209,450.27 448.706,450.018 448.204,449.641 447.073,449.139 445.691,448.635 445.063,448.51 444.561,448.385 444.059,448.385 443.556,448.385 443.054,448.385 442.677,448.51 442.3,448.635 441.923,448.887 441.546,449.012 441.295,449.264 440.792,449.893 440.541,450.27 440.415,450.645 440.29,451.273 440.164,451.775 440.164,452.404 440.29,453.033 440.667,453.535 441.044,454.162 441.546,454.666 442.174,455.168 "
         clip-rule="evenodd" />
      <path
         style="fill-rule:evenodd;stroke:#000000;stroke-width:0.30000001;stroke-miterlimit:4;stroke-dasharray:none;stroke-opacity:1"
         id="path75"
         d="M 426.22,473.508 L 427.854,470.494 L 431.748,470.996 L 434.764,465.469 L 432.251,462.58 L 433.884,459.564 L 444.814,472.628 L 443.18,475.644 L 426.22,473.508 L 426.22,473.508 z M 434.511,471.373 L 440.792,472.379 L 436.646,467.604 L 434.511,471.373 L 434.511,471.373 z"
         clip-rule="evenodd" />
      <polygon
         style="fill-rule:evenodd;stroke:#000000;stroke-width:0.30000001;stroke-miterlimit:4;stroke-dasharray:none;stroke-opacity:1"
         id="polygon77"
         points="423.456,477.277 436.27,486.574 434.511,489.086 422.074,488.08 430.617,494.361 428.858,496.748 416.045,487.453 417.929,484.814 430.114,485.82 421.697,479.664 423.456,477.277 "
         clip-rule="evenodd" />
      <path
         style="fill-rule:evenodd;stroke:#000000;stroke-width:0.30000001;stroke-miterlimit:4;stroke-dasharray:none;stroke-opacity:1"
         id="path79"
         d="M 402.101,502.275 L 404.614,499.763 L 408.132,501.271 L 412.528,496.748 L 410.895,493.23 L 413.156,490.843 L 420.317,506.296 L 417.929,508.683 L 402.101,502.275 L 402.101,502.275 z M 410.769,502.402 L 416.547,504.914 L 413.783,499.262 L 410.769,502.402 L 410.769,502.402 z"
         clip-rule="evenodd" />
      <g
         id="g6790">
        <polygon
           clip-rule="evenodd"
           points="494.936,323.642 496.442,328.29 485.011,332.31 487.523,339.596 483.755,340.852 479.609,328.792 494.936,323.642 "
           id="polygon2005"
           style="fill:#9c8200;fill-rule:evenodd;stroke:#000000;stroke-width:0.30000001;stroke-miterlimit:4;stroke-dasharray:none;stroke-opacity:1" />
        <polygon
           clip-rule="evenodd"
           points="500.965,342.234 502.222,347.007 486.645,351.153 485.388,346.379 500.965,342.234 "
           id="polygon2007"
           style="fill:#9c8200;fill-rule:evenodd;stroke:#000000;stroke-width:0.30000001;stroke-miterlimit:4;stroke-dasharray:none;stroke-opacity:1" />
        <path
           clip-rule="evenodd"
           d="M 504.231,355.424 L 505.739,364.594 L 505.864,365.725 L 505.864,366.227 L 505.739,366.729 L 505.487,367.608 L 505.362,367.985 L 505.11,368.362 L 504.608,368.99 L 503.98,369.492 L 503.351,369.869 L 502.472,369.994 L 501.844,370.119 L 501.216,369.994 L 500.587,369.869 L 499.959,369.492 L 499.582,369.241 L 499.205,368.864 L 498.954,368.487 L 498.577,367.985 L 498.577,368.864 L 498.326,369.617 L 497.949,370.245 L 497.572,370.747 L 497.195,371.124 L 496.567,371.501 L 495.939,371.752 L 495.185,371.877 L 494.557,372.003 L 494.054,372.003 L 493.426,371.877 L 492.924,371.752 L 492.421,371.501 L 491.918,371.124 L 491.542,370.747 L 491.039,370.37 L 490.913,370.119 L 490.662,369.617 L 490.285,368.612 L 489.657,366.477 L 488.401,357.935 L 504.231,355.424 L 504.231,355.424 z M 498.83,361.328 L 499.206,363.464 L 499.458,364.469 L 499.583,364.846 L 499.835,365.097 L 500.086,365.222 L 500.337,365.347 L 500.714,365.347 L 500.965,365.347 L 501.342,365.222 L 501.594,365.097 L 501.845,364.971 L 502.096,364.72 L 502.222,364.343 L 502.222,364.092 L 502.222,363.59 L 502.222,363.088 L 501.845,360.953 L 498.83,361.328 L 498.83,361.328 z M 492.549,362.333 L 492.926,364.845 L 493.051,365.473 L 493.302,365.975 L 493.428,366.352 L 493.679,366.603 L 493.931,366.728 L 494.308,366.853 L 494.684,366.979 L 495.061,366.853 L 495.313,366.853 L 495.564,366.728 L 495.815,366.477 L 496.067,366.226 L 496.192,365.849 L 496.318,365.472 L 496.318,364.97 L 496.192,364.342 L 495.815,361.829 L 492.549,362.333 L 492.549,362.333 z"
           id="path2009"
           style="fill:#9c8200;fill-rule:evenodd;stroke:#000000;stroke-width:0.30000001;stroke-miterlimit:4;stroke-dasharray:none;stroke-opacity:1" />
        <polygon
           clip-rule="evenodd"
           points="507.497,377.282 508.377,390.598 504.985,390.85 504.357,382.559 501.845,382.684 502.347,390.473 499.081,390.598 498.578,382.935 495.438,383.187 495.94,391.729 492.423,391.98 491.418,378.413 507.497,377.282 "
           id="polygon2011"
           style="fill:#9c8200;fill-rule:evenodd;stroke:#000000;stroke-width:0.30000001;stroke-miterlimit:4;stroke-dasharray:none;stroke-opacity:1" />
        <path
           clip-rule="evenodd"
           d="M 492.297,398.135 L 508.377,398.639 L 508,406.93 L 507.874,409.065 L 507.749,409.819 L 507.497,410.448 L 507.246,411.075 L 506.869,411.577 L 506.492,412.081 L 506.241,412.206 L 505.99,412.458 L 505.362,412.708 L 504.733,412.96 L 504.105,413.085 L 503.351,413.085 L 502.723,412.96 L 502.095,412.835 L 501.593,412.708 L 501.341,412.583 L 501.09,412.458 L 500.587,412.081 L 500.21,411.704 L 499.834,411.327 L 499.582,410.825 L 499.205,410.071 L 498.954,409.065 L 498.577,409.819 L 498.452,410.071 L 498.326,410.321 L 497.949,410.573 L 497.446,411.075 L 496.818,411.452 L 496.441,411.704 L 491.668,413.964 L 491.919,408.312 L 496.944,405.8 L 497.698,405.423 L 498.2,405.046 L 498.452,404.417 L 498.577,403.79 L 498.577,403.413 L 492.045,403.161 L 492.297,398.135 L 492.297,398.135 z M 501.594,403.412 L 501.594,405.547 L 501.719,406.93 L 501.845,407.307 L 502.222,407.684 L 502.599,407.934 L 503.101,408.061 L 503.478,408.061 L 503.855,407.934 L 504.106,407.809 L 504.358,407.557 L 504.483,407.307 L 504.734,406.93 L 504.734,406.426 L 504.86,405.799 L 504.86,403.537 L 501.594,403.412 L 501.594,403.412 z"
           id="path2013"
           style="fill:#9c8200;fill-rule:evenodd;stroke:#000000;stroke-width:0.30000001;stroke-miterlimit:4;stroke-dasharray:none;stroke-opacity:1" />
        <polygon
           clip-rule="evenodd"
           points="507.121,420.244 504.733,435.193 500.84,434.566 501.594,429.541 489.659,427.656 490.413,422.758 502.347,424.643 503.101,419.617 507.121,420.244 "
           id="polygon2015"
           style="fill:#9c8200;fill-rule:evenodd;stroke:#000000;stroke-width:0.30000001;stroke-miterlimit:4;stroke-dasharray:none;stroke-opacity:1" />
        <path
           clip-rule="evenodd"
           d="M 487.9,447.379 L 489.282,441.852 L 486.895,440.471 L 488.277,435.571 L 502.221,445.495 L 500.839,450.772 L 483.754,452.405 L 485.01,447.38 L 487.9,447.38 L 487.9,447.379 z M 491.544,447.254 L 497.573,447.002 L 492.423,443.861 L 491.544,447.254 L 491.544,447.254 z"
           id="path2017"
           style="fill:#9c8200;fill-rule:evenodd;stroke:#000000;stroke-width:0.30000001;stroke-miterlimit:4;stroke-dasharray:none;stroke-opacity:1" />
        <path
           clip-rule="evenodd"
           d="M 497.071,462.957 L 494.432,469.865 L 494.055,470.871 L 493.553,471.75 L 493.176,472.379 L 492.673,473.006 L 492.296,473.258 L 492.045,473.508 L 491.543,473.885 L 490.914,474.137 L 490.286,474.389 L 489.532,474.639 L 488.904,474.766 L 487.397,474.766 L 485.889,474.389 L 484.256,474.012 L 483.251,473.508 L 482.245,473.006 L 481.366,472.504 L 481.115,472.252 L 480.738,472.002 L 480.235,471.498 L 479.858,470.871 L 479.481,470.242 L 479.105,469.615 L 478.979,468.986 L 478.728,468.357 L 478.728,467.73 L 478.728,467.101 L 478.979,465.468 L 479.23,464.714 L 479.356,464.087 L 482.12,457.177 L 497.071,462.957 L 497.071,462.957 z M 491.92,466.348 L 483.755,463.207 L 483.253,464.338 L 483.001,464.967 L 482.876,465.594 L 482.75,466.098 L 482.75,466.475 L 482.876,466.852 L 483.001,467.227 L 483.253,467.604 L 483.504,467.981 L 484.006,468.233 L 484.509,468.61 L 486.017,469.239 L 487.147,469.616 L 488.152,469.866 L 488.529,469.866 L 488.906,469.866 L 489.534,469.741 L 489.911,469.616 L 490.163,469.489 L 490.414,469.239 L 490.665,468.987 L 491.042,468.358 L 491.419,467.479 L 491.92,466.348 L 491.92,466.348 z"
           id="path2019"
           style="fill:#9c8200;fill-rule:evenodd;stroke:#000000;stroke-width:0.30000001;stroke-miterlimit:4;stroke-dasharray:none;stroke-opacity:1" />
      </g>
    </g>
    <path
       clip-rule="evenodd"
       d="M 185.4576,275.42208 L 189.94128,277.8369 L 190.54464,278.18148 L 191.06151,278.52607 L 191.49258,278.95782 L 191.83716,279.3024 L 192.18175,279.73416 L 192.35404,280.16454 L 192.52633,280.5963 L 192.69862,281.02806 L 192.69862,281.54424 L 192.69862,282.0618 L 192.69862,282.49356 L 192.61213,283.01112 L 192.43984,283.52868 L 192.26755,284.04624 L 191.83648,285.08136 L 191.40541,285.77052 L 190.97434,286.37388 L 190.80205,286.63266 L 190.62976,286.89144 L 190.19869,287.3232 L 189.76762,287.58198 L 189.33654,287.84075 L 188.90547,288.09953 L 188.4744,288.18534 L 187.95753,288.27114 L 187.52646,288.35831 L 187.09539,288.35831 L 186.66432,288.27114 L 185.62989,287.92656 L 185.19882,287.75358 L 184.76775,287.58198 L 180.28407,285.16716 L 185.4576,275.42208 L 185.4576,275.42208 z M 187.26768,279.21592 L 184.42179,284.56242 L 185.19813,284.99281 L 186.06027,285.33739 L 186.40485,285.42456 L 186.66295,285.51037 L 186.92173,285.42456 L 187.18051,285.33739 L 187.43929,285.25159 L 187.69807,285.07998 L 187.95685,284.8212 L 188.21494,284.47525 L 188.47372,284.04486 L 188.8183,283.52731 L 189.16288,282.75097 L 189.33517,282.14761 L 189.42097,281.80165 L 189.42097,281.54287 L 189.42097,281.37127 L 189.42097,281.11249 L 189.33517,280.93951 L 189.24937,280.68073 L 188.99059,280.33615 L 188.73181,280.16317 L 188.55952,279.99157 L 188.04265,279.64561 L 187.26768,279.21592 L 187.26768,279.21592 z"
       id="path2021"
       style="fill:#9c8200;fill-rule:evenodd;stroke:#000000;stroke-width:0.20592535;stroke-miterlimit:4;stroke-dasharray:none;stroke-opacity:1" />
    <polygon
       transform="matrix(0.6864178,0,0,0.6864178,39.826511,-106.85909)"
       clip-rule="evenodd"
       points="230.375,566.217 242.687,571.242 241.43,574.383 233.768,571.242 232.762,573.629 239.923,576.52 238.667,579.533 231.506,576.645 230.375,579.658 238.29,582.799 236.908,586.191 224.346,581.166 230.375,566.217 "
       id="polygon2023"
       style="fill:#9c8200;fill-rule:evenodd;stroke:#000000;stroke-width:0.30000001;stroke-miterlimit:4;stroke-dasharray:none;stroke-opacity:1" />
    <polygon
       transform="matrix(0.6864178,0,0,0.6864178,39.826511,-106.85909)"
       clip-rule="evenodd"
       points="248.465,573.252 254.746,575.012 254.621,585.061 259.646,576.268 265.927,578.025 261.781,593.479 257.761,592.473 261.027,580.664 254.746,591.719 251.229,590.713 251.354,578.025 248.214,589.961 244.194,588.83 248.465,573.252 "
       id="polygon2025"
       style="fill:#9c8200;fill-rule:evenodd;stroke:#000000;stroke-width:0.30000001;stroke-miterlimit:4;stroke-dasharray:none;stroke-opacity:1" />
    <path
       clip-rule="evenodd"
       d="M 225.46752,296.20338 L 225.55332,295.51285 L 225.72561,294.90949 L 225.8979,294.39193 L 226.15668,293.87437 L 226.41546,293.35681 L 226.76004,292.92505 L 227.10463,292.58047 L 227.5357,292.23589 L 227.96677,291.89131 L 228.39784,291.71833 L 228.91471,291.45955 L 229.17349,291.45955 L 229.43227,291.37375 L 230.03563,291.28657 L 230.63899,291.20077 L 231.24235,291.28657 L 231.84571,291.28657 L 232.53556,291.45955 L 233.13892,291.63253 L 233.74229,291.80413 L 234.25916,292.06291 L 234.69023,292.32169 L 235.1213,292.58047 L 235.55237,293.01223 L 235.89695,293.35681 L 236.15573,293.78857 L 236.41382,294.30612 L 236.58611,294.73651 L 236.7584,295.25407 L 236.84489,295.85743 L 236.84489,296.46216 L 236.84489,297.06552 L 236.7584,297.66888 L 236.58611,298.61683 L 236.32733,299.39317 L 236.06856,300.1695 L 235.72397,300.77287 L 235.20641,301.29043 L 235.03412,301.5492 L 234.77534,301.72218 L 234.17198,302.06676 L 233.56862,302.41272 L 232.87877,302.58432 L 232.10312,302.67013 L 231.32678,302.7573 L 230.89571,302.67013 L 230.37815,302.67013 L 229.51601,302.49852 L 228.74036,302.23974 L 228.05051,301.98096 L 227.70593,301.80798 L 227.44715,301.63638 L 226.92959,301.20462 L 226.67081,300.94584 L 226.41272,300.68706 L 226.24043,300.42828 L 226.06813,300.1695 L 225.89584,299.82492 L 225.72355,299.48034 L 225.46546,298.78981 L 225.37897,298.35942 L 225.37897,298.01347 L 225.37897,297.58308 L 225.37897,297.15133 L 225.37897,296.63377 L 225.46752,296.20338 L 225.46752,296.20338 z M 228.83028,296.63377 L 228.74448,297.41011 L 228.74448,298.10064 L 228.83028,298.704 L 229.08906,299.13439 L 229.26135,299.30736 L 229.34715,299.48034 L 229.77822,299.73912 L 229.95051,299.91073 L 230.1228,299.9979 L 230.64036,300.0837 L 230.89914,300.0837 L 231.15792,300.0837 L 231.67479,300.0837 L 232.10587,299.91073 L 232.27816,299.73912 L 232.45045,299.65195 L 232.79503,299.22156 L 232.88083,298.96278 L 233.05312,298.704 L 233.22541,298.01347 L 233.3977,297.15133 L 233.48351,296.46216 L 233.3977,295.77163 L 233.3977,295.51285 L 233.31121,295.25407 L 233.13892,294.82231 L 232.79434,294.47773 L 232.44976,294.21895 L 232.19098,294.04734 L 232.01869,293.96017 L 231.50182,293.87437 L 230.98426,293.87437 L 230.55319,293.96017 L 230.12212,294.13315 L 229.77754,294.39193 L 229.60525,294.5649 L 229.43295,294.73651 L 229.17417,295.25407 L 228.9154,295.85743 L 228.83028,296.63377 L 228.83028,296.63377 z"
       id="path2027"
       style="fill:#9c8200;fill-rule:evenodd;stroke:#000000;stroke-width:0.20592535;stroke-miterlimit:4;stroke-dasharray:none;stroke-opacity:1" />
    <polygon
       transform="matrix(0.6864178,0,0,0.6864178,39.826511,-106.85909)"
       clip-rule="evenodd"
       points="304.116,591.719 308.513,593.227 308.136,594.105 307.885,594.859 307.508,595.613 307.005,596.242 306.503,596.744 305.875,597.246 305.246,597.623 304.618,598 303.864,598.252 302.985,598.377 301.98,598.502 300.975,598.502 299.719,598.377 299.216,598.377 298.588,598.252 298.086,598.125 297.583,598 297.207,597.748 296.704,597.623 296.327,597.371 295.95,597.121 295.573,596.869 295.196,596.492 294.568,595.738 293.94,594.859 293.438,593.729 293.061,592.598 293.061,591.971 292.936,591.342 292.936,589.834 292.936,588.955 293.061,587.949 293.312,587.197 293.563,586.316 293.94,585.563 294.317,584.936 294.694,584.307 295.196,583.805 295.825,583.303 296.453,582.926 297.081,582.549 297.834,582.297 298.714,582.047 299.468,581.92 300.347,581.92 301.352,581.92 302.734,582.047 303.487,582.172 303.99,582.297 305.121,582.674 305.623,582.926 306.125,583.303 306.879,584.057 307.256,584.434 307.508,584.936 307.885,585.438 308.136,585.939 308.513,587.197 304.116,587.949 303.99,587.574 303.864,587.322 303.613,586.82 303.487,586.568 303.236,586.316 302.985,586.191 302.734,585.939 302.105,585.689 301.352,585.563 300.975,585.563 300.598,585.689 299.845,585.939 299.468,586.066 299.216,586.316 298.965,586.568 298.714,586.82 298.337,587.447 298.086,588.201 297.96,588.955 297.96,589.961 297.96,591.217 298.086,592.221 298.211,593.102 298.463,593.479 298.588,593.729 298.965,594.105 299.216,594.357 299.593,594.482 300.096,594.734 300.85,594.734 301.478,594.734 302.105,594.607 302.608,594.357 302.985,594.105 303.362,593.604 303.739,593.102 303.99,592.473 304.116,591.719 "
       id="polygon2029"
       style="fill:#9c8200;fill-rule:evenodd;stroke:#000000;stroke-width:0.30000001;stroke-miterlimit:4;stroke-dasharray:none;stroke-opacity:1" />
    <path
       clip-rule="evenodd"
       d="M 256.68237,303.79173 L 255.73374,292.75413 L 261.33903,292.32238 L 262.71873,292.23657 L 263.32209,292.23657 L 263.75384,292.32238 L 264.18491,292.49535 L 264.35721,292.58116 L 264.61598,292.66833 L 264.78828,292.75413 L 264.96057,292.92574 L 265.04706,293.09872 L 265.21935,293.27169 L 265.47813,293.61627 L 265.56461,293.78925 L 265.6511,294.04803 L 265.82339,294.47841 L 265.9092,294.99597 L 265.9092,295.42773 L 265.9092,295.85811 L 265.73691,296.20407 L 265.6511,296.63445 L 265.47813,296.89323 L 265.21935,297.23781 L 264.96057,297.49659 L 264.61598,297.75537 L 264.44369,297.92835 L 264.18491,298.01415 L 263.49506,298.27293 L 264.01194,298.44591 L 264.44369,298.61751 L 265.04706,299.13507 L 265.56461,299.82561 L 267.46187,302.8431 L 263.66804,303.18768 L 261.512,299.99859 L 261.16674,299.48103 L 260.99444,299.30805 L 260.82215,299.22225 L 260.64986,299.13507 L 260.39108,299.04927 L 260.21811,299.04927 L 259.95933,299.04927 L 259.70123,299.04927 L 260.04582,303.53364 L 256.68237,303.79173 L 256.68237,303.79173 z M 259.52757,296.97835 L 260.90796,296.80674 L 261.25254,296.80674 L 261.8559,296.63377 L 262.11468,296.46216 L 262.20117,296.37499 L 262.37346,296.20338 L 262.45995,296.03041 L 262.45995,295.85743 L 262.54644,295.68582 L 262.45995,295.51285 L 262.45995,295.33987 L 262.37346,295.08109 L 262.28766,294.99529 L 262.28766,294.90949 L 262.11468,294.73651 L 261.8559,294.65071 L 261.59781,294.5649 L 260.82147,294.5649 L 259.26879,294.73651 L 259.52757,296.97835 L 259.52757,296.97835 z"
       id="path2031"
       style="fill:#9c8200;fill-rule:evenodd;stroke:#000000;stroke-width:0.20592535;stroke-miterlimit:4;stroke-dasharray:none;stroke-opacity:1" />
    <path
       clip-rule="evenodd"
       d="M 278.15352,299.13439 L 274.35969,299.82492 L 274.10091,301.72218 L 270.73815,302.41272 L 272.6354,290.77176 L 276.34343,290.08122 L 282.5514,300.0837 L 279.01634,300.77287 L 278.15352,299.13439 L 278.15352,299.13439 z M 276.94611,296.89255 L 275.04885,293.18452 L 274.61778,297.3243 L 276.94611,296.89255 L 276.94611,296.89255 z"
       id="path2033"
       style="fill:#9c8200;fill-rule:evenodd;stroke:#000000;stroke-width:0.20592535;stroke-miterlimit:4;stroke-dasharray:none;stroke-opacity:1" />
    <polygon
       transform="matrix(0.6864178,0,0,0.6864178,39.826511,-106.85909)"
       clip-rule="evenodd"
       points="367.932,581.795 372.454,581.67 372.454,582.549 372.454,583.428 372.328,584.182 372.077,584.936 371.826,585.689 371.449,586.316 370.946,586.945 370.444,587.447 369.816,587.949 369.063,588.453 368.183,588.83 367.178,589.207 366.047,589.584 364.917,589.709 363.912,589.834 362.906,589.834 362.027,589.584 361.524,589.457 361.148,589.207 360.269,588.703 359.39,588.076 358.887,587.699 358.51,587.322 357.882,586.316 357.254,585.186 356.751,583.805 356.374,582.926 356.249,582.047 356.123,581.166 356.123,580.287 356.123,579.533 356.249,578.779 356.5,578.025 356.877,577.271 357.254,576.645 357.631,576.016 358.133,575.514 358.761,575.012 359.39,574.508 360.143,574.131 361.022,573.756 361.901,573.379 363.283,573.002 364.54,572.875 365.168,572.875 365.67,572.875 366.299,573.002 366.801,573.127 367.304,573.252 367.806,573.504 368.686,574.131 369.188,574.508 369.564,574.885 370.067,575.389 370.444,575.891 366.55,578.152 366.173,577.648 365.796,577.271 365.168,577.021 364.917,576.895 364.54,576.77 363.786,576.77 363.535,576.895 363.158,576.895 362.404,577.271 362.153,577.523 361.776,577.775 361.399,578.277 361.273,578.654 361.148,579.031 361.022,579.283 361.022,579.658 361.022,580.412 361.022,580.789 361.148,581.293 361.399,582.297 361.901,583.428 362.278,584.307 362.53,584.684 362.781,585.061 363.032,585.313 363.283,585.438 363.912,585.814 364.163,585.814 364.54,585.939 365.168,585.814 365.796,585.689 366.424,585.438 366.927,585.186 367.304,584.811 367.429,584.559 367.555,584.307 367.806,583.805 367.932,583.176 367.932,582.549 367.932,581.795 "
       id="polygon2035"
       style="fill:#9c8200;fill-rule:evenodd;stroke:#000000;stroke-width:0.30000001;stroke-miterlimit:4;stroke-dasharray:none;stroke-opacity:1" />
    <polygon
       transform="matrix(0.6864178,0,0,0.6864178,39.826511,-106.85909)"
       clip-rule="evenodd"
       points="374.338,569.357 378.986,567.475 385.017,582.422 380.368,584.182 374.338,569.357 "
       id="polygon2037"
       style="fill:#9c8200;fill-rule:evenodd;stroke:#000000;stroke-width:0.30000001;stroke-miterlimit:4;stroke-dasharray:none;stroke-opacity:1" />
    <path
       clip-rule="evenodd"
       d="M 314.54258,285.76915 L 311.09333,287.6664 L 311.4386,289.47786 L 308.42042,291.11634 L 306.86843,279.38821 L 310.1447,277.66392 L 319.02626,285.51105 L 315.83579,287.14953 L 314.54258,285.76915 L 314.54258,285.76915 z M 312.73113,284.04486 L 309.79944,281.11317 L 310.66158,285.16578 L 312.73113,284.04486 L 312.73113,284.04486 z"
       id="path2039"
       style="fill:#9c8200;fill-rule:evenodd;stroke:#000000;stroke-width:0.20592535;stroke-miterlimit:4;stroke-dasharray:none;stroke-opacity:1" />
    <polygon
       transform="matrix(0.6864178,0,0,0.6864178,39.826511,-106.85909)"
       clip-rule="evenodd"
       points="389.664,312.587 390.92,312.336 392.554,309.446 390.795,307.939 386.272,305.175 384.011,305.301 382.881,305.301 380.494,304.17 379.991,304.421 378.232,304.045 378.107,302.914 382.378,302.914 382.881,302.035 382.001,301.281 381.499,301.658 376.977,302.035 375.595,300.527 375.469,299.522 375.218,299.397 374.841,298.015 374.213,297.764 372.58,298.266 370.946,298.266 368.686,296.633 367.555,297.01 365.042,295.754 362.781,295 361.273,295.879 359.515,296.13 356.123,295.502 354.615,296.884 354.615,297.512 354.867,299.02 355.369,300.276 354.615,302.161 355.997,303.542 355.872,304.045 353.862,306.306 354.867,306.934 355.369,308.567 353.736,310.577 352.48,310.577 352.48,310.954 353.359,312.084 353.233,312.461 355.244,313.969 354.615,315.1 354.867,316.355 354.615,316.984 354.49,317.109 355.621,317.989 356.123,320.375 357.128,320.375 358.636,322.134 359.013,321.883 359.39,320.501 362.153,316.732 362.278,314.094 364.163,314.22 364.54,313.592 365.042,313.592 366.424,312.461 367.052,312.336 368.058,313.089 367.932,313.718 368.686,314.974 370.318,314.597 372.831,314.22 373.961,312.21 376.223,311.457 378.232,312.084 378.609,311.833 379.991,312.21 382.253,312.21 383.635,312.084 386.021,312.084 387.78,313.592 388.156,314.346 389.915,315.1 389.664,315.225 389.287,315.351 388.408,315.1 388.156,314.346 389.538,313.969 389.664,312.587 "
       id="polygon2041"
       style="fill:#003c87;fill-rule:evenodd;stroke:#9c8200;stroke-width:0.30000001;stroke-miterlimit:4;stroke-dasharray:none;stroke-opacity:1" />
    <path
       stroke-miterlimit="10"
       d="M 168.55662,164.96236 C 168.55662,119.50091 204.92578,83.131061 250.38792,83.131061 C 295.84937,83.131061 332.21921,119.50091 332.21921,164.96236 C 332.21921,210.42381 295.85005,246.79366 250.38792,246.79366 C 204.92578,246.79366 168.55662,210.42381 168.55662,164.96236 L 168.55662,164.96236 z"
       id="path2381"
       style="fill:none;stroke:#000000;stroke-width:0.20592535;stroke-linecap:square;stroke-miterlimit:4;stroke-dasharray:none;stroke-opacity:1" />
    <path
       stroke-miterlimit="10"
       d="M 179.85231,164.96236 C 179.85231,125.77614 211.20101,94.426752 250.38792,94.426752 C 289.57414,94.426752 320.92352,125.77545 320.92352,164.96236 C 320.92352,204.14858 289.57414,235.49728 250.38792,235.49728 C 211.2017,235.49728 179.85231,204.14858 179.85231,164.96236 L 179.85231,164.96236 z"
       id="path2383"
       style="fill:none;stroke:#000000;stroke-width:0.20592535;stroke-linecap:square;stroke-miterlimit:4;stroke-dasharray:none;stroke-opacity:1" />
    <path
       stroke-miterlimit="10"
       d="M 191.40678,164.91911 C 191.40678,132.12825 217.62039,105.89542 250.38792,105.89542 C 283.15544,105.89542 309.36837,132.12825 309.36837,164.91911 C 309.36837,197.71067 283.15544,223.94349 250.38792,223.94349 C 217.62039,223.94349 191.40678,197.71067 191.40678,164.91911 L 191.40678,164.91911 z"
       id="path2385"
       style="fill:none;stroke:#000000;stroke-width:0.20592535;stroke-linecap:square;stroke-miterlimit:4;stroke-dasharray:none;stroke-opacity:1" />
    <path
       stroke-miterlimit="10"
       d="M 225.89859,165.13465 C 225.89859,151.62526 236.70624,140.8183 250.21563,140.8183 C 263.72501,140.8183 274.53198,151.62595 274.53198,165.13465 C 274.53198,178.64335 263.72501,189.451 250.21563,189.451 C 236.70624,189.451 225.89859,178.64404 225.89859,165.13465 L 225.89859,165.13465 z"
       id="path2387"
       style="fill:none;stroke:#000000;stroke-width:0.20592535;stroke-linecap:square;stroke-miterlimit:4;stroke-dasharray:none;stroke-opacity:1" />
    <path
       stroke-miterlimit="10"
       d="M 202.87545,164.96236 C 202.87545,138.56685 223.99172,117.44989 250.38792,117.44989 C 276.78343,117.44989 297.90038,138.56685 297.90038,164.96236 C 297.90038,191.35856 276.78343,212.47414 250.38792,212.47414 C 223.99172,212.47414 202.87545,191.35856 202.87545,164.96236 L 202.87545,164.96236 z"
       id="path2391"
       style="fill:none;stroke:#000000;stroke-width:0.20592535;stroke-linecap:square;stroke-miterlimit:4;stroke-dasharray:none;stroke-opacity:1" />
    <path
       stroke-miterlimit="10"
       d="M 213.48129,165.60828 C 213.48129,145.41661 229.61554,129.26314 249.78387,129.26314 C 269.95151,129.26314 286.08576,145.41661 286.08576,165.60828 C 286.08576,185.80132 269.95151,201.95479 249.78387,201.95479 C 229.61623,201.95547 213.48129,185.80132 213.48129,165.60828 L 213.48129,165.60828 z"
       id="path2393"
       style="fill:none;stroke:#000000;stroke-width:0.20592535;stroke-linecap:square;stroke-miterlimit:4;stroke-dasharray:none;stroke-opacity:1" />
  </g>
</svg>
