<?xml version="1.0" encoding="UTF-8" standalone="no"?>
<!-- Creator: CorelDRAW -->

<svg
   xmlns:dc="http://purl.org/dc/elements/1.1/"
   xmlns:cc="http://creativecommons.org/ns#"
   xmlns:rdf="http://www.w3.org/1999/02/22-rdf-syntax-ns#"
   xmlns:svg="http://www.w3.org/2000/svg"
   xmlns="http://www.w3.org/2000/svg"
   xmlns:sodipodi="http://sodipodi.sourceforge.net/DTD/sodipodi-0.dtd"
   xmlns:inkscape="http://www.inkscape.org/namespaces/inkscape"
   xml:space="preserve"
   width="1200px"
   height="600px"
   style="shape-rendering:geometricPrecision; text-rendering:geometricPrecision; image-rendering:optimizeQuality; fill-rule:evenodd; clip-rule:evenodd"
   viewBox="0 0 1200 600"
   version="1.0"
   id="svg2"
   inkscape:version="0.48.3.1 r9886"
   sodipodi:docname="Flag_of_Armenian_SSR.svg"><metadata
   id="metadata28"><rdf:RDF><cc:Work
       rdf:about=""><dc:format>image/svg+xml</dc:format><dc:type
         rdf:resource="http://purl.org/dc/dcmitype/StillImage" /></cc:Work></rdf:RDF></metadata><sodipodi:namedview
   pagecolor="#ffffff"
   bordercolor="#666666"
   borderopacity="1"
   objecttolerance="10"
   gridtolerance="10"
   guidetolerance="10"
   inkscape:pageopacity="0"
   inkscape:pageshadow="2"
   inkscape:window-width="1600"
   inkscape:window-height="848"
   id="namedview26"
   showgrid="false"
   inkscape:zoom="0.615"
   inkscape:cx="380.33865"
   inkscape:cy="293.44168"
   inkscape:window-x="-8"
   inkscape:window-y="-8"
   inkscape:window-maximized="1"
   inkscape:current-layer="g18" />
 <defs
   id="defs4">
  <style
   type="text/css"
   id="style6">
   
    .str0 {stroke:black;stroke-width:0.363}
    .fil2 {fill:none}
    .fil1 {fill:#003399}
    .fil0 {fill:#CC0000}
    .fil3 {fill:gold}
   
  </style>
 </defs>
 <g
   id="Слой_x0020_1">
  <metadata
   id="CorelCorpID_0Corel-Layer" />
  <rect
   id="rect1307"
   class="fil0"
   width="1200"
   height="600" />
  <rect
   id="rect4"
   class="fil1"
   y="225.001"
   width="1200"
   height="150" />
  <g
   id="_60755152">
   <polygon
   id="_60633024"
   class="fil2 str0"
   points="98.517,120.298 98.517,120.298 98.517,120.298 " />
   <polygon
   id="_60632336"
   class="fil2 str0"
   points="89.9982,80.9958 89.9982,80.9958 89.9982,80.9958 " />
   <polygon
   id="_60631344"
   class="fil2 str0"
   points="89.9982,80.9958 89.9982,80.9958 89.9982,80.9958 " />
   <g
   id="_149188240">
    <path
   id="path9658"
   class="fil3"
   d="M150.028 21.0006l-1.8762 5.7858 -4.8216 14.8404 -15.5892 0 -6.108 0 4.9284 3.5898 12.6426 9.1602 -4.8216 14.787 -1.875 5.7858 4.929 -3.5886 12.5886 -9.1074 12.5886 9.1074 4.929 3.5886 -1.875 -5.7858 -4.8216 -14.8374 12.5886 -9.1068 4.9278 -3.5898 -6.0528 -0.0006 -15.588 0 -4.8222 -14.8404 -1.8708 -5.7882 -0.0006 0zm0 12.804l3.3756 10.3932 0.4284 1.3938 1.4478 0 10.8744 0 -8.7864 6.3738 -1.1778 0.858 0.4824 1.3926 3.3756 10.3926 -8.841 -6.4278 -1.1772 -0.858 -1.1778 0.858 -8.8404 6.4278 3.3756 -10.3926 0.429 -1.3926 -1.1274 -0.858 -8.7864 -6.3738 10.875 0 1.4478 0 0.4278 -1.3938 3.3744 -10.3932 0 0 0.0006 0z" />
    <g
   id="g18"
   style="fill:#00ff00">
     
     
    </g>
   </g>
  </g>
 </g>
 <g
   id="Layer_x0020_1">
  <metadata
   id="CorelCorpID_1Corel-Layer" />
 </g>
 <g
   id="Layer_x0020_1_0">
  <metadata
   id="CorelCorpID_2Corel-Layer" />
 </g>
<g
   style="fill-rule:evenodd"
   id="g3019"
   transform="matrix(0.79939337,0,0,0.79939337,-92.304405,32.956603)"><path
     sodipodi:nodetypes="ccccccccc"
     inkscape:connector-curvature="0"
     id="hammer_head"
     d="m 270.92298,88.355159 -33.98504,32.370421 18.12536,18.12534 15.65136,-15.75551 c 30.52185,30.97994 54.24551,55.06533 83.71885,84.97748 8.15951,8.45996 22.36846,-3.04386 13.26894,-12.8119 -31.13941,-30.3468 -52.72211,-52.25081 -85.16466,-84.06684 l 19.23453,-19.348081 z"
     style="fill:#ffd700;fill-opacity:1;fill-rule:evenodd;stroke:none" /><g
     transform="matrix(0.83334944,0,0,0.83334944,89.122595,-182.30111)"
     id="g3852"><path
       sodipodi:nodetypes="cccccccccccc"
       inkscape:connector-curvature="0"
       id="sickle_handle"
       d="m 216.7812,433.75 c 72.96097,67.686 191.19511,-54.3637 40.09375,-142.8125 l 5e-5,0 c 112.44686,124.9296 4.49418,163.2273 -34.59375,124.6875 L 220.3125,414 c -1.5958,1.79152 -3.19491,3.58011 -4.78871,5.37341 -3.02847,-2.85878 -7.73236,-3.69883 -9.18009,1.18909 -5.95051,-0.4117 -9.44226,2.885 -11,9.0625 -11.06856,7.3329 -23.05082,13.76655 -29.9375,25.28125 -3.93605,12.18 3.84864,17.47725 12.65625,16.46875 14.43702,-5.9976 18.89869,-18.96115 26.625,-29.65625 5.46174,-1.7386 10.0877,-4.07577 10.93599,-9.048"
       style="fill:#ffd700;fill-opacity:1;fill-rule:evenodd;stroke:none" /></g></g></svg>