<?xml version="1.0" encoding="UTF-8" standalone="no"?>
<!-- Creator: CorelDRAW -->

<svg
   xmlns:dc="http://purl.org/dc/elements/1.1/"
   xmlns:cc="http://creativecommons.org/ns#"
   xmlns:rdf="http://www.w3.org/1999/02/22-rdf-syntax-ns#"
   xmlns:svg="http://www.w3.org/2000/svg"
   xmlns="http://www.w3.org/2000/svg"
   xmlns:sodipodi="http://sodipodi.sourceforge.net/DTD/sodipodi-0.dtd"
   xmlns:inkscape="http://www.inkscape.org/namespaces/inkscape"
   xml:space="preserve"
   width="600px"
   height="300px"
   style="shape-rendering:geometricPrecision; text-rendering:geometricPrecision; image-rendering:optimizeQuality; fill-rule:evenodd; clip-rule:evenodd"
   viewBox="0 0 600 300"
   version="1.0"
   id="svg2"
   inkscape:version="0.48.3.1 r9886"
   sodipodi:docname="Flag_of_Azerbaijan_SSR.svg"><metadata
   id="metadata23"><rdf:RDF><cc:Work
       rdf:about=""><dc:format>image/svg+xml</dc:format><dc:type
         rdf:resource="http://purl.org/dc/dcmitype/StillImage" /></cc:Work></rdf:RDF></metadata><sodipodi:namedview
   pagecolor="#ffffff"
   bordercolor="#666666"
   borderopacity="1"
   objecttolerance="10"
   gridtolerance="10"
   guidetolerance="10"
   inkscape:pageopacity="0"
   inkscape:pageshadow="2"
   inkscape:window-width="1600"
   inkscape:window-height="848"
   id="namedview21"
   showgrid="false"
   inkscape:zoom="6.9579307"
   inkscape:cx="139.94525"
   inkscape:cy="204.19687"
   inkscape:window-x="-8"
   inkscape:window-y="-8"
   inkscape:window-maximized="1"
   inkscape:current-layer="_186995704" />
 <defs
   id="defs4">
  <style
   type="text/css"
   id="style6">
   
    .str0 {stroke:black;stroke-width:0.2286}
    .fil3 {fill:none}
    .fil1 {fill:#003399}
    .fil0 {fill:#CC0000}
    .fil2 {fill:gold}
   
  </style>
 </defs>
 <g
   id="Слой_x0020_1">
  <metadata
   id="CorelCorpID_0Corel-Layer" />
  <rect
   id="red_x0020_background"
   class="fil0"
   width="600"
   height="300" />
  <rect
   id="rect1389"
   class="fil1"
   y="225"
   width="600"
   height="75.0002" />
  <g
   id="_186995704">
   
   <path
   id="path9658"
   class="fil2"
   d="M99.0168 20.2515l-1.1721 3.6159 -3.0132 9.2745 -9.7434 0 -3.8169 0 3.0804 2.2434 7.9017 5.7255 -3.0135 9.2412 -1.1715 3.6159 3.0804 -2.2431 7.8681 -5.6919 7.8684 5.6919 3.0801 2.2431 -1.1715 -3.6159 -3.0135 -9.2745 7.8684 -5.6922 3.0801 -2.2434 -3.7833 0 -9.7431 0 -3.0135 -9.2745 -1.1721 -3.6159zm0 8.0019l2.1093 6.4956 0.2682 0.8709 0.9039 0 6.7968 0 -5.4909 3.9843 -0.7365 0.5355 0.3012 0.8703 2.1093 6.4959 -5.5245 -4.0179 -0.7368 -0.5355 -0.7365 0.5355 -5.5245 4.0179 2.1093 -6.4959 0.2679 -0.8703 -0.7035 -0.5355 -5.4909 -3.9843 6.7968 0 0.9042 0 0.2679 -0.8709 2.1093 -6.4956z" />
   <path
   id="_187449928"
   class="fil3 str0"
   d="M66.8241 82.3098l0 0 0 0 0 0m0 0m0 0m0 0" />
   <path
   id="_189945632"
   class="fil3 str0"
   d="M61.5 57.7482l0 0 0 0 0 0m0 0m0 0m0 0" />
   <path
   id="_60732624"
   class="fil3 str0"
   d="M61.5 57.7482l0 0 0 0 0 0m0 0m0 0m0 0" />
   
  <g
   style="fill-rule:evenodd"
   id="g3019"
   transform="matrix(0.50064267,0,0,0.50064267,-52.218711,27.73755)"><path
     sodipodi:nodetypes="ccccccccc"
     inkscape:connector-curvature="0"
     id="hammer_head"
     d="m 271.31905,88.243135 -33.85005,32.241845 18.05336,18.05335 15.5892,-15.69293 c 30.40062,30.85689 54.03005,54.84661 83.38632,84.63995 8.1271,8.42636 22.27961,-3.03177 13.21624,-12.76101 -31.01573,-30.22626 -52.5127,-52.04327 -84.82639,-83.73293 l 19.15813,-19.27123 z"
     style="fill:#ffd700;fill-opacity:1;fill-rule:evenodd;stroke:none" /><g
     transform="matrix(0.83003941,0,0,0.83003941,90.240768,-181.3381)"
     id="g3852"><path
       sodipodi:nodetypes="cccccccccccc"
       inkscape:connector-curvature="0"
       id="sickle_handle"
       d="m 216.7812,433.75 c 72.96097,67.686 191.19511,-54.3637 40.09375,-142.8125 l 5e-5,0 c 112.44686,124.9296 4.49418,163.2273 -34.59375,124.6875 L 220.3125,414 c -1.5958,1.79152 -3.19491,3.58011 -4.78871,5.37341 -3.02847,-2.85878 -7.73236,-3.69883 -9.18009,1.18909 -5.95051,-0.4117 -9.44226,2.885 -11,9.0625 -11.06856,7.3329 -23.05082,13.76655 -29.9375,25.28125 -3.93605,12.18 3.84864,17.47725 12.65625,16.46875 14.43702,-5.9976 18.89869,-18.96115 26.625,-29.65625 5.46174,-1.7386 10.0877,-4.07577 10.93599,-9.048"
       style="fill:#ffd700;fill-opacity:1;fill-rule:evenodd;stroke:none" /></g></g></g>
 </g>
 <g
   id="Layer_x0020_1">
  <metadata
   id="CorelCorpID_1Corel-Layer" />
 </g>
</svg>