<?xml version="1.0" encoding="UTF-8"?>
<svg xmlns="http://www.w3.org/2000/svg" xmlns:xlink="http://www.w3.org/1999/xlink" width="900" height="450" viewBox="0 0 6640200 3320100">
<rect width="6640200" height="3320100" fill="#090"/>
<rect width="6640200" height="2213400" fill="#c00"/>
<rect width="737800" height="3320100" fill="#fff"/>
<path d="M59024,0V3320100M678776,0V3320100" stroke="#c00" stroke-width="59024"/>
<rect width="501704" height="3320100" x="118048" fill="#c00"/>
<g fill="#fff" transform="matrix(12586,0,0,7650,154938,0)">
<g id="h">
<g id="q">
<path d="M0,8h2v12h-2zM0,66h2v12h-2zM0,118h2v12h-2zM0,168h2v8h-2zM1,218l1,-1v-6h-2v6z"/>
<path d="M8,0v10h-2v10h-2v10h-2v10h-2v10h2v10h2v10h2v10h2v10h2v-10h2v-10h2v-10h2v-10h3v-10h-3v-10h-2v-10h-2v-10h-2v-10zM10,20v10h2v10h2v10h-2v10h-2v10h-2v-10h-2v-10h-2v-10h2v-10h2v-10zM8,40v10h2v-10z"/>
<path d="M0,94h1v-6h1v-6h3v6h1v6h1v8h-1v6h-1v6h-3v-6h-1v-6h-1zM3,92v4h-1v4h1v4h1v-4h1v-4h-1v-4z"/>
<path d="M11,94h1v-6h1v-6h3v6h2v20h-2v6h-3v-6h-1v-6h-1zM14,92v4h-1v4h1v4h1v-4h1v-4h-1v-4z"/>
<path d="M0,180h2v6h2v6h2v10h2v-10h2v-6h2v-8h3v-10h-1v-16h-2v-8h-2v12h2v10h-2v10h-2v10h-2v-10h-2v-10h-2v-10h-2v-10h2v-10h2v-10h2v-10h2v-10h2v10h2v10h2v10h2v10h2v38h-2v4.5h-1v9.5h-3v8h-2v7h-2v8h-2v-8h-2v-7h-2v-8h-2z"/> 
<path d="M13,204h2v4h1v3h2v10h-3v-8h-1v-3h-1zM12,218l1,-1v-6h-2v6z"/>
</g>
<use xlink:href="#q" transform="matrix(-1,0,0,1,34,0)"/>
<path d="M16,8h2v12h-2zM16,66h2v12h-2zM16,118h2v12h-2zM16,196h2v10h-2z"/>
</g>
<use xlink:href="#h" transform="matrix(1,0,0,-1,0,434)"/>
</g>
<g fill="#ffd700" transform="scale(11067)">
<path d="m149.99,24.367 -2.79,8.593h-9.041l7.321,5.313 -2.79,8.572 7.3,-5.289 7.299,5.289 -2.79,-8.594 7.299,-5.291h-9.018zm0,5.334 1.585,4.911h5.134l-4.152,3.013 1.607,4.911 -4.174,-3.036 -4.174,3.036 1.585,-4.911 -4.13,-3.013h5.134l1.585,-4.911z"/>
<path d="m139.51,58.725 -11.27,10.735 6.0107,6.0107 5.1903,-5.2248c10.122,10.273 17.989,18.261 27.763,28.18c2.7058,2.8055 7.4178,-1.0094 4.4002,-4.2487c-10.326,-10.064 -17.484,-17.327 -28.242,-27.878l6.3785,-6.4162z"/>
<path d="m139.13,88.839c20.163,18.705 52.837,-15.024 11.08,-39.467c31.075,34.525 1.242,45.108 -9.5601,34.458l-0.54407,-0.44907c-0.44101,0.49509 -0.88293,0.98938 -1.3234,1.485c-0.83693,-0.79003 -2.1369,-1.0222 -2.537,0.32861c-1.6444,-0.11378 -2.6094,0.79728 -3.0399,2.5045c-3.0588,2.0265 -6.3702,3.8044 -8.2733,6.9866c-1.0877,3.366 1.0636,4.8299 3.4976,4.5512c3.9897,-1.6575 5.2227,-5.24 7.3579,-8.1956c1.5094,-0.48047 2.7878,-1.1264 3.0222,-2.5004"/>
</g>
</svg>