<?xml version="1.0" encoding="UTF-8" standalone="no"?>
<svg xmlns="http://www.w3.org/2000/svg"
   xmlns:dc="http://purl.org/dc/elements/1.1/"
   xmlns:cc="http://creativecommons.org/ns#"
   xmlns:rdf="http://www.w3.org/1999/02/22-rdf-syntax-ns#"
   width="800px" height="400px" viewBox="0 0 600 300">
 <metadata><rdf:RDF><cc:Work rdf:about="">
  <dc:format>image/svg+xml</dc:format>
  <dc:type rdf:resource="http://purl.org/dc/dcmitype/StillImage"/>
  <dc:title>Flag of Estonian SSR</dc:title>
 </cc:Work></rdf:RDF></metadata>
 <rect fill="#CC0000" width="600" height="300"/>
 <path id="Star" style="fill:gold"
   d="M99.9849,24L96.078,36.0318H83.4216L93.6723,43.4697L89.766,55.4697L99.9849,48.0642L110.203,55.4697L106.297,43.4382L116.516,36.0318H103.891Z
M99.9849,31.4688L102.203,38.3442H109.391L103.579,42.5628L105.828,49.4382L99.9846,45.1881L94.1403,49.4382L96.3597,42.5628L90.5784,38.3442H97.7661Z"/>
 <path style="fill:#003399;fill-opacity:1;stroke:none" d="M600,240.983
C565.443,266.128,532.118,266.128,500,240.983
C465.443,266.128,432.118,266.128,400,240.983
C365.443,266.128,332.118,266.128,300,240.983
C265.443,266.128,232.118,266.128,200,240.983
C165.443,266.128,132.118,266.128,100,240.983
C65.443,266.128,32.118,266.128,0,240.983V175H600Z"/>
 <path style="fill:white;stroke:none" d="M600,175.603
C565.443,200.749,532.118,200.749,500,175.603
C465.443,200.749,432.118,200.749,400,175.603
C365.443,200.749,332.118,200.749,300,175.603
C265.443,200.749,232.118,200.749,200,175.603
C165.443,200.749,132.118,200.749,100,175.603
C65.443,200.749,32.118,200.749,0,175.603V151.371
C32.118,176.517,65.443,176.517,100,151.371
C132.118,176.517,165.443,176.517,200,151.371
C232.118,176.517,265.443,176.517,300,151.371
C332.118,176.517,365.443,176.517,400,151.371
C432.118,176.517,465.443,176.517,500,151.371
C532.118,176.517,565.443,176.517,600,151.371Z"/>
 <path style="fill:#003399;fill-opacity:1;stroke:none" d="M600,163.411
C565.443,188.557,532.118,188.557,500,163.411
C465.443,188.557,432.118,188.557,400,163.411
C365.443,188.557,332.118,188.557,300,163.411
C265.443,188.557,232.118,188.557,200,163.411
C165.443,188.557,132.118,188.557,100,163.411
C65.443,188.557,32.118,188.557,0,163.411V169.507
C32.118,194.653,65.443,194.653,100,169.507
C132.118,194.653,165.443,194.653,200,169.507
C232.118,194.653,265.443,194.653,300,169.507
C332.118,194.653,365.443,194.653,400,169.507
C432.118,194.653,465.443,194.653,500,169.507
C532.118,194.653,565.443,194.653,600,169.507Z"/>
<g id="HammerAndSickle"
   style="fill:#ffd700;fill-rule:evenodd;fill-opacity:1;stroke:none"
   transform="matrix(0.46610595,0,0,0.46610595,-41.047697,30.896098)">
<path id="hammer_head"
     d="m 270.92298,88.355159 l-33.98504,32.370421 18.12536,18.12534 15.65136,-15.75551 c 30.52185,30.97994 54.24551,55.06533 83.71885,84.97748 8.15951,8.45996 22.36846,-3.04386 13.26894,-12.8119 -31.13941,-30.3468 -52.72211,-52.25081 -85.16466,-84.06684 l 19.23453,-19.348081 z"/>
<path id="sickle_handle"
     transform="matrix(0.83334944,0,0,0.83334944,89.122595,-182.30111)"
     d="m 216.7812,433.75 c 72.96097,67.686 191.19511,-54.3637 40.09375,-142.8125 l 5e-5,0 c 112.44686,124.9296 4.49418,163.2273 -34.59375,124.6875 L 220.3125,414 c -1.5958,1.79152 -3.19491,3.58011 -4.78871,5.37341 -3.02847,-2.85878 -7.73236,-3.69883 -9.18009,1.18909 -5.95051,-0.4117 -9.44226,2.885 -11,9.0625 -11.06856,7.3329 -23.05082,13.76655 -29.9375,25.28125 -3.93605,12.18 3.84864,17.47725 12.65625,16.46875 14.43702,-5.9976 18.89869,-18.96115 26.625,-29.65625 5.46174,-1.7386 10.0877,-4.07577 10.93599,-9.048"/>
</g>
</svg>