<?xml version="1.0" encoding="UTF-8" standalone="no"?>
<svg
   xmlns:dc="http://purl.org/dc/elements/1.1/"
   xmlns:cc="http://creativecommons.org/ns#"
   xmlns:rdf="http://www.w3.org/1999/02/22-rdf-syntax-ns#"
   xmlns:svg="http://www.w3.org/2000/svg"
   xmlns="http://www.w3.org/2000/svg"
   xmlns:xlink="http://www.w3.org/1999/xlink"
   xmlns:sodipodi="http://sodipodi.sourceforge.net/DTD/sodipodi-0.dtd"
   xmlns:inkscape="http://www.inkscape.org/namespaces/inkscape"
   width="600"
   height="300"
   id="svg2"
   version="1.1"
   inkscape:version="0.48.3.1 r9886"
   sodipodi:docname="Flag_of_Georgian_SSR.svg">
  <metadata
     id="metadata57">
    <rdf:RDF>
      <cc:Work
         rdf:about="">
        <dc:format>image/svg+xml</dc:format>
        <dc:type
           rdf:resource="http://purl.org/dc/dcmitype/StillImage" />
      </cc:Work>
    </rdf:RDF>
  </metadata>
  <defs
     id="defs55" />
  <sodipodi:namedview
     pagecolor="#ffffff"
     bordercolor="#666666"
     borderopacity="1"
     objecttolerance="10"
     gridtolerance="10"
     guidetolerance="10"
     inkscape:pageopacity="0"
     inkscape:pageshadow="2"
     inkscape:window-width="1600"
     inkscape:window-height="848"
     id="namedview53"
     showgrid="false"
     inkscape:zoom="0.43487067"
     inkscape:cx="-241.42099"
     inkscape:cy="109.29322"
     inkscape:window-x="-8"
     inkscape:window-y="-8"
     inkscape:window-maximized="1"
     inkscape:current-layer="svg2" />
  <rect
     width="600"
     height="300"
     fill="#c00"
     id="rect4" />
  <rect
     x="150"
     y="50"
     width="450"
     height="50"
     fill="#39f"
     id="rect6" />
  <clipPath
     id="clip">
    <rect
       x="75"
       width="75"
       height="150"
       id="rect9" />
  </clipPath>
  <g
     id="h"
     clip-path="url(#clip)">
    <g
       id="f">
      <path
         id="r"
         d="M 75,75 V -35 h 20 z"
         fill="#c00"
         transform="rotate(-3.75 75,75)" />
      <path
         id="b"
         d="M 75,75 V -35 h 20 z"
         fill="#39f"
         transform="rotate(3.75 75,75)" />
      <use
         xlink:href="#r"
         transform="rotate(15 75,75)"
         id="use15" />
      <use
         xlink:href="#b"
         transform="rotate(15 75,75)"
         id="use17" />
    </g>
    <use
       xlink:href="#f"
       transform="rotate(30 75,75)"
       id="use19" />
    <use
       xlink:href="#f"
       transform="rotate(60 75,75)"
       id="use21" />
    <use
       xlink:href="#f"
       transform="rotate(90 75,75)"
       id="use23" />
    <use
       xlink:href="#f"
       transform="rotate(120 75,75)"
       id="use25" />
    <use
       xlink:href="#f"
       transform="rotate(150 75,75)"
       id="use27" />
    <use
       xlink:href="#f"
       transform="rotate(180 75,75)"
       id="use29" />
  </g>
  <use
     xlink:href="#h"
     transform="rotate(180 75,75)"
     id="use31" />
  <circle
     cx="75"
     cy="75"
     r="50"
     fill="#39f"
     id="circle33" />
  <g
     transform="translate(75,42.5)"
     fill="#c00"
     id="g39">
    <g
       id="c">
      <path
         id="t"
         d="M 0,-10 V 0 H 5"
         transform="rotate(18 0,-10)" />
      <use
         xlink:href="#t"
         transform="scale(-1,1)"
         id="use43" />
    </g>
    <use
       xlink:href="#c"
       transform="rotate(72)"
       id="use45" />
    <use
       xlink:href="#c"
       transform="rotate(144)"
       id="use47" />
    <use
       xlink:href="#c"
       transform="rotate(216)"
       id="use49" />
    <use
       xlink:href="#c"
       transform="rotate(288)"
       id="use51" />
  </g>
  <g
     style="fill-rule:evenodd;fill:#cc0000;fill-opacity:1"
     id="g3019"
     transform="matrix(0.33360608,0,0,0.33360608,-25.951138,30.455284)">
    <path
       sodipodi:nodetypes="ccccccccc"
       inkscape:connector-curvature="0"
       id="hammer_head"
       d="m 270.92298,88.355159 -33.98504,32.370421 18.12536,18.12534 15.65136,-15.75551 c 30.52185,30.97994 54.24551,55.06533 83.71885,84.97748 8.15951,8.45996 22.36846,-3.04386 13.26894,-12.8119 -31.13941,-30.3468 -52.72211,-52.25081 -85.16466,-84.06684 l 19.23453,-19.348081 z"
       style="fill:#cc0000;fill-opacity:1;fill-rule:evenodd;stroke:none" />
    <g
       transform="matrix(0.83334944,0,0,0.83334944,89.122595,-182.30111)"
       id="g3852"
       style="fill:#cc0000;fill-opacity:1">
      <path
         sodipodi:nodetypes="cccccccccccc"
         inkscape:connector-curvature="0"
         id="sickle_handle"
         d="m 216.7812,433.75 c 72.96097,67.686 191.19511,-54.3637 40.09375,-142.8125 l 5e-5,0 c 112.44686,124.9296 4.49418,163.2273 -34.59375,124.6875 L 220.3125,414 c -1.5958,1.79152 -3.19491,3.58011 -4.78871,5.37341 -3.02847,-2.85878 -7.73236,-3.69883 -9.18009,1.18909 -5.95051,-0.4117 -9.44226,2.885 -11,9.0625 -11.06856,7.3329 -23.05082,13.76655 -29.9375,25.28125 -3.93605,12.18 3.84864,17.47725 12.65625,16.46875 14.43702,-5.9976 18.89869,-18.96115 26.625,-29.65625 5.46174,-1.7386 10.0877,-4.07577 10.93599,-9.048"
         style="fill:#cc0000;fill-opacity:1;fill-rule:evenodd;stroke:none" />
    </g>
  </g>
</svg>
