<?xml version="1.0" encoding="UTF-8" standalone="no"?>
<!-- Creator: CorelDRAW -->

<svg
   xmlns:dc="http://purl.org/dc/elements/1.1/"
   xmlns:cc="http://creativecommons.org/ns#"
   xmlns:rdf="http://www.w3.org/1999/02/22-rdf-syntax-ns#"
   xmlns:svg="http://www.w3.org/2000/svg"
   xmlns="http://www.w3.org/2000/svg"
   xmlns:sodipodi="http://sodipodi.sourceforge.net/DTD/sodipodi-0.dtd"
   xmlns:inkscape="http://www.inkscape.org/namespaces/inkscape"
   xml:space="preserve"
   width="600px"
   height="300px"
   style="shape-rendering:geometricPrecision; text-rendering:geometricPrecision; image-rendering:optimizeQuality; fill-rule:evenodd; clip-rule:evenodd"
   viewBox="0 0 600 300"
   version="1.0"
   id="svg2"
   inkscape:version="0.48.3.1 r9886"
   sodipodi:docname="Flag_of_Kazakh_SSR.svg"><metadata
   id="metadata22"><rdf:RDF><cc:Work
       rdf:about=""><dc:format>image/svg+xml</dc:format><dc:type
         rdf:resource="http://purl.org/dc/dcmitype/StillImage" /></cc:Work></rdf:RDF></metadata><sodipodi:namedview
   pagecolor="#ffffff"
   bordercolor="#666666"
   borderopacity="1"
   objecttolerance="10"
   gridtolerance="10"
   guidetolerance="10"
   inkscape:pageopacity="0"
   inkscape:pageshadow="2"
   inkscape:window-width="1600"
   inkscape:window-height="848"
   id="namedview20"
   showgrid="false"
   inkscape:zoom="1.23"
   inkscape:cx="331.44183"
   inkscape:cy="110.13133"
   inkscape:window-x="-8"
   inkscape:window-y="-8"
   inkscape:window-maximized="1"
   inkscape:current-layer="svg2" />
 <defs
   id="defs4">
  <style
   type="text/css"
   id="style6">
   
    .str0 {stroke:black;stroke-width:0.1815}
    .fil3 {fill:none}
    .fil1 {fill:#007FFF}
    .fil0 {fill:#CC0000}
    .fil2 {fill:gold}
   
  </style>
 </defs>
 <g
   id="Слой_x0020_1">
  <metadata
   id="CorelCorpID_0Corel-Layer" />
  <path
   id="_21731744"
   class="fil0"
   d="M-0 300c0,-100.229 0,-200 0,-300 199.949,0 399.975,0 600,0 0,99.9999 0,199.771 0,300 -200.025,0 -400.051,0 -600,0z" />
  <path
   id="_21731832"
   class="fil1"
   d="M-0 267c0,-22.3002 0,-44.4834 0,-66.6666 199.949,0 399.975,0 600,0 0,22.1829 0,44.3661 0,66.6666 -200.025,0 -400.051,0 -600,0z" />
  
  <path
   id="path9658"
   class="fil2"
   d="M150.017 18.75l-1.1721 3.6162 -3.0135 9.2748 -9.7437 0 -3.8169 0 3.0804 2.2434 7.902 5.7252 -3.0138 9.2418 -1.1718 3.6159 3.0804 -2.2431 7.8684 -5.6919 7.8687 5.6919 3.0804 2.2431 -1.1721 -3.6159 -3.0135 -9.2748 7.8684 -5.6922 3.0804 -2.2434 -3.7836 0 -9.7434 0 -3.0138 -9.2748 -1.1718 -3.6162 0.0009 0zm0 8.0022l2.109 6.4959 0.2679 0.8709 0.9042 0 6.7968 0 -5.4912 3.9843 -0.7365 0.5355 0.3009 0.8706 2.1093 6.4956 -5.5245 -4.0179 -0.7368 -0.5361 -0.7365 0.5361 -5.5248 4.0179 2.1093 -6.4956 0.2679 -0.8706 -0.7035 -0.5355 -5.4912 -3.9843 6.7974 0 0.9039 0 0.2679 -0.8709 2.1093 -6.4959 0.0012 0z" />
  <path
   id="_189213976"
   class="fil3 str0"
   d="M117.823 80.8104l0 0 0 0 0 0m0 0m0 0m0 0" />
  <path
   id="_189333592"
   class="fil3 str0"
   d="M112.499 56.2479l0 0 0 0 0 0m0 0m0 0m0 0" />
  <path
   id="_190040088"
   class="fil3 str0"
   d="M112.499 56.2479l0 0 0 0 0 0m0 0m0 0m0 0" />
  
 </g>
 <g
   id="Layer_x0020_1">
  <metadata
   id="CorelCorpID_1Corel-Layer" />
 </g>
<g
   id="g3019"
   transform="matrix(0.50461973,0,0,0.50461973,-3.4046262,25.65611)"><path
     sodipodi:nodetypes="ccccccccc"
     inkscape:connector-curvature="0"
     id="hammer_head"
     d="m 270.92298,88.355159 -33.98504,32.370421 18.12536,18.12534 15.65136,-15.75551 c 30.52185,30.97994 54.24551,55.06533 83.71885,84.97748 8.15951,8.45996 22.36846,-3.04386 13.26894,-12.8119 -31.13941,-30.3468 -52.72211,-52.25081 -85.16466,-84.06684 l 19.23453,-19.348081 z"
     style="fill:#ffd700;fill-opacity:1;fill-rule:evenodd;stroke:none" /><g
     transform="matrix(0.83334944,0,0,0.83334944,89.122595,-182.30111)"
     id="g3852"><path
       sodipodi:nodetypes="cccccccccccc"
       inkscape:connector-curvature="0"
       id="sickle_handle"
       d="m 216.7812,433.75 c 72.96097,67.686 191.19511,-54.3637 40.09375,-142.8125 l 5e-5,0 c 112.44686,124.9296 4.49418,163.2273 -34.59375,124.6875 L 220.3125,414 c -1.5958,1.79152 -3.19491,3.58011 -4.78871,5.37341 -3.02847,-2.85878 -7.73236,-3.69883 -9.18009,1.18909 -5.95051,-0.4117 -9.44226,2.885 -11,9.0625 -11.06856,7.3329 -23.05082,13.76655 -29.9375,25.28125 -3.93605,12.18 3.84864,17.47725 12.65625,16.46875 14.43702,-5.9976 18.89869,-18.96115 26.625,-29.65625 5.46174,-1.7386 10.0877,-4.07577 10.93599,-9.048"
       style="fill:#ffd700;fill-opacity:1;fill-rule:evenodd;stroke:none" /></g></g></svg>