<?xml version="1.0" encoding="UTF-8" standalone="no"?>
<!-- Creator: CorelDRAW -->

<svg
   xmlns:dc="http://purl.org/dc/elements/1.1/"
   xmlns:cc="http://creativecommons.org/ns#"
   xmlns:rdf="http://www.w3.org/1999/02/22-rdf-syntax-ns#"
   xmlns:svg="http://www.w3.org/2000/svg"
   xmlns="http://www.w3.org/2000/svg"
   xmlns:sodipodi="http://sodipodi.sourceforge.net/DTD/sodipodi-0.dtd"
   xmlns:inkscape="http://www.inkscape.org/namespaces/inkscape"
   xml:space="preserve"
   width="600px"
   height="300px"
   style="shape-rendering:geometricPrecision; text-rendering:geometricPrecision; image-rendering:optimizeQuality; fill-rule:evenodd; clip-rule:evenodd"
   viewBox="0 0 600 300"
   version="1.0"
   id="svg2"
   inkscape:version="0.48.3.1 r9886"
   sodipodi:docname="Flag_of_Kyrgyz_SSR.svg"><metadata
   id="metadata27"><rdf:RDF><cc:Work
       rdf:about=""><dc:format>image/svg+xml</dc:format><dc:type
         rdf:resource="http://purl.org/dc/dcmitype/StillImage" /></cc:Work></rdf:RDF></metadata><sodipodi:namedview
   pagecolor="#ffffff"
   bordercolor="#666666"
   borderopacity="1"
   objecttolerance="10"
   gridtolerance="10"
   guidetolerance="10"
   inkscape:pageopacity="0"
   inkscape:pageshadow="2"
   inkscape:window-width="1600"
   inkscape:window-height="848"
   id="namedview25"
   showgrid="false"
   inkscape:zoom="2.46"
   inkscape:cx="-16.177336"
   inkscape:cy="216.85343"
   inkscape:window-x="-8"
   inkscape:window-y="-8"
   inkscape:window-maximized="1"
   inkscape:current-layer="Слой_x0020_1" />
 <defs
   id="defs4">
  <style
   type="text/css"
   id="style6">
   
    .str0 {stroke:black;stroke-width:0.1143}
    .fil4 {fill:none}
    .fil2 {fill:#003399}
    .fil0 {fill:#CC0000}
    .fil1 {fill:gold}
    .fil3 {fill:white}
   
  </style>
 </defs>
 <g
   id="Слой_x0020_1">
  <metadata
   id="CorelCorpID_0Corel-Layer" />
  <rect
   id="_21462800"
   class="fil0"
   width="600"
   height="300" />
  
  <rect
   id="_20989248"
   class="fil2"
   y="100"
   width="600"
   height="100" />
  <rect
   id="_21462008"
   class="fil3"
   y="142.5"
   width="600"
   height="15.0001" />
 </g>
 <g
   id="Layer_x0020_1">
  <metadata
   id="CorelCorpID_1Corel-Layer" />
  <path
   id="path9658"
   class="fil1"
   d="M100.015 15l-1.04295 3.21735 -2.68125 8.25225 -8.66925 0 -3.3963 0 2.7408 1.9962 7.03095 5.0943 -2.68125 8.2227 -1.0425 3.21735 2.7408 -1.9959 7.00095 -5.0646 7.00095 5.0646 2.74065 1.9959 -1.0425 -3.21735 -2.68125 -8.2524 7.00095 -5.0646 2.7408 -1.9962 -3.3663 0 -8.66925 0 -2.68125 -8.25225 -1.0428 -3.21735zm0 7.12005l1.8768 5.7795 0.23835 0.77475 0.80445 0 6.04755 0 -4.88565 3.54525 -0.65535 0.47655 0.2679 0.77445 1.87695 5.77995 -4.91565 -3.5751 -0.65535 -0.47655 -0.6555 0.47655 -4.91565 3.5751 1.87695 -5.77995 0.23835 -0.77445 -0.6258 -0.47655 -4.88565 -3.54525 6.04755 0 0.80445 0 0.23835 -0.77475 1.87695 -5.7795z" />
  <path
   class="fil4 str0"
   d="M78.549 60.3398l0 0 0 0 0 0m0 0m0 0m0 0"
   id="path19" />
  <path
   class="fil4 str0"
   d="M74.9994 43.9649l0 0 0 0 0 0m0 0m0 0m0 0"
   id="path21" />
  <path
   class="fil4 str0"
   d="M74.9994 43.9649l0 0 0 0 0 0m0 0m0 0m0 0"
   id="path23" />
 </g>
<g
   style="fill-rule:evenodd"
   id="g3019"
   transform="matrix(0.3328397,0,0,0.3328397,-0.84035762,25.031182)"><path
     sodipodi:nodetypes="ccccccccc"
     inkscape:connector-curvature="0"
     id="hammer_head"
     d="m 270.92298,88.355159 -33.98504,32.370421 18.12536,18.12534 15.65136,-15.75551 c 30.52185,30.97994 54.24551,55.06533 83.71885,84.97748 8.15951,8.45996 22.36846,-3.04386 13.26894,-12.8119 -31.13941,-30.3468 -52.72211,-52.25081 -85.16466,-84.06684 l 19.23453,-19.348081 z"
     style="fill:#ffd700;fill-opacity:1;fill-rule:evenodd;stroke:none" /><g
     transform="matrix(0.83334944,0,0,0.83334944,89.122595,-182.30111)"
     id="g3852"><path
       sodipodi:nodetypes="cccccccccccc"
       inkscape:connector-curvature="0"
       id="sickle_handle"
       d="m 216.7812,433.75 c 72.96097,67.686 191.19511,-54.3637 40.09375,-142.8125 l 5e-5,0 c 112.44686,124.9296 4.49418,163.2273 -34.59375,124.6875 L 220.3125,414 c -1.5958,1.79152 -3.19491,3.58011 -4.78871,5.37341 -3.02847,-2.85878 -7.73236,-3.69883 -9.18009,1.18909 -5.95051,-0.4117 -9.44226,2.885 -11,9.0625 -11.06856,7.3329 -23.05082,13.76655 -29.9375,25.28125 -3.93605,12.18 3.84864,17.47725 12.65625,16.46875 14.43702,-5.9976 18.89869,-18.96115 26.625,-29.65625 5.46174,-1.7386 10.0877,-4.07577 10.93599,-9.048"
       style="fill:#ffd700;fill-opacity:1;fill-rule:evenodd;stroke:none" /></g></g></svg>