<?xml version="1.0" encoding="UTF-8" standalone="no"?>
<!-- Creator: CorelDRAW -->

<svg
   xmlns:dc="http://purl.org/dc/elements/1.1/"
   xmlns:cc="http://creativecommons.org/ns#"
   xmlns:rdf="http://www.w3.org/1999/02/22-rdf-syntax-ns#"
   xmlns:svg="http://www.w3.org/2000/svg"
   xmlns="http://www.w3.org/2000/svg"
   xmlns:sodipodi="http://sodipodi.sourceforge.net/DTD/sodipodi-0.dtd"
   xmlns:inkscape="http://www.inkscape.org/namespaces/inkscape"
   xml:space="preserve"
   width="1000px"
   height="500px"
   style="shape-rendering:geometricPrecision; text-rendering:geometricPrecision; image-rendering:optimizeQuality; fill-rule:evenodd; clip-rule:evenodd"
   viewBox="0 0 1000 500"
   version="1.0"
   id="svg2"
   inkscape:version="0.48.3.1 r9886"
   sodipodi:docname="Flag_of_Latvian_SSR.svg"><metadata
   id="metadata26"><rdf:RDF><cc:Work
       rdf:about=""><dc:format>image/svg+xml</dc:format><dc:type
         rdf:resource="http://purl.org/dc/dcmitype/StillImage" /></cc:Work></rdf:RDF></metadata><sodipodi:namedview
   pagecolor="#ffffff"
   bordercolor="#666666"
   borderopacity="1"
   objecttolerance="10"
   gridtolerance="10"
   guidetolerance="10"
   inkscape:pageopacity="0"
   inkscape:pageshadow="2"
   inkscape:window-width="1600"
   inkscape:window-height="848"
   id="namedview24"
   showgrid="false"
   inkscape:zoom="2.0873792"
   inkscape:cx="146.14322"
   inkscape:cy="363.91422"
   inkscape:window-x="-8"
   inkscape:window-y="-8"
   inkscape:window-maximized="1"
   inkscape:current-layer="Слой_x0020_1" />
 <defs
   id="defs4">
  <style
   type="text/css"
   id="style6">
   
    .str0 {stroke:black;stroke-width:0.16}
    .fil3 {fill:none}
    .fil1 {fill:#003399}
    .fil0 {fill:#CC0000}
    .fil2 {fill:gold}
    .fil4 {fill:white}
   
  </style>
 </defs>
 <g
   id="Слой_x0020_1">
  <metadata
   id="CorelCorpID_0Corel-Layer" />
  <rect
   class="fil0"
   x="-0.000114146"
   y="-7.16794e-005"
   width="1000"
   height="500"
   id="rect10" />
  <path
   id="path2517"
   class="fil1"
   d="M0.00133333 339.948l0 160.053 999.998 0 0 -159.741c-3.8355,0.141167 -7.833,0.244167 -11.0935,0.624833 -4.92533,0.5755 -9.28917,1.40917 -13.2297,2.396 -3.941,0.9865 -7.48333,2.0995 -10.8333,3.33283 -3.3495,1.2335 -6.4825,2.591 -9.6355,3.90617 -3.15217,1.316 -6.338,2.622 -9.6875,3.8545 -3.349,1.23333 -6.89267,2.3465 -10.8335,3.3345 -3.94017,0.9855 -8.25033,1.81883 -13.1763,2.39567 -4.92533,0.575333 -10.4145,0.936333 -16.7183,0.936333 -6.30483,0 -11.8467,-0.361667 -16.771,-0.936333 -4.92533,-0.576167 -9.28917,-1.41017 -13.229,-2.39567 -3.94117,-0.988 -7.485,-2.10117 -10.8333,-3.3345 -3.34967,-1.2325 -6.48317,-2.5385 -9.63567,-3.8545 -3.15233,-1.315 -6.33783,-2.67233 -9.6875,-3.90617 -3.349,-1.23333 -6.84083,-2.34633 -10.7813,-3.33283 -3.94117,-0.987167 -8.30467,-1.8205 -13.229,-2.396 -4.92533,-0.576 -10.4138,-0.9375 -16.7183,-0.9375 -6.30467,0 -11.8453,0.3615 -16.771,0.9375 -4.92517,0.5755 -9.2885,1.40917 -13.229,2.396 -3.9405,0.9865 -7.43217,2.0995 -10.7815,3.33283 -3.34883,1.2335 -6.483,2.591 -9.63483,3.90617 -3.15317,1.316 -6.286,2.622 -9.636,3.8545 -3.34883,1.23333 -6.94483,2.3465 -10.885,3.3345 -3.941,0.9855 -8.30383,1.81883 -13.2288,2.39567 -4.926,0.575333 -10.4145,0.936333 -16.7185,0.936333 -6.30483,0 -11.846,-0.361667 -16.771,-0.936333 -4.92533,-0.576167 -9.18483,-1.41017 -13.125,-2.39567 -3.9405,-0.988 -7.53633,-2.10117 -10.886,-3.3345 -3.349,-1.2325 -6.48333,-2.5385 -9.63483,-3.8545 -3.15217,-1.315 -6.286,-2.67233 -9.63567,-3.90617 -3.349,-1.23333 -6.9445,-2.34633 -10.886,-3.33283 -3.94033,-0.987167 -8.30383,-1.8205 -13.2288,-2.396 -4.92517,-0.576 -10.4137,-0.9375 -16.7192,-0.9375 -6.3045,0 -11.8453,0.3615 -16.771,0.9375 -4.925,0.5755 -9.18383,1.40917 -13.125,2.396 -3.94033,0.9865 -7.53533,2.0995 -10.885,3.33283 -3.349,1.2335 -6.4835,2.591 -9.63483,3.90617 -3.15317,1.316 -6.28667,2.622 -9.636,3.8545 -3.3495,1.23333 -6.9445,2.3465 -10.885,3.3345 -3.94117,0.9855 -8.30367,1.81883 -13.2295,2.39567 -4.9255,0.575333 -10.414,0.936333 -16.7192,0.936333 -6.30383,0 -11.7923,-0.361667 -16.7183,-0.936333 -4.92533,-0.576167 -9.2365,-1.41017 -13.177,-2.39567 -3.9405,-0.988 -7.536,-2.10117 -10.886,-3.3345 -3.3495,-1.2325 -6.48317,-2.5385 -9.6355,-3.8545 -3.15217,-1.315 -6.286,-2.67233 -9.635,-3.90617 -3.34967,-1.23333 -6.8935,-2.34633 -10.8333,-3.33283 -3.9405,-0.987167 -8.25167,-1.8205 -13.1763,-2.396 -4.92533,-0.576 -10.4665,-0.9375 -16.771,-0.9375 -6.30467,0 -11.845,0.3615 -16.7703,0.9375 -4.9255,0.5755 -9.23667,1.40917 -13.1777,2.396 -3.94017,0.9865 -7.48417,2.0995 -10.8325,3.33283 -3.3495,1.2335 -6.535,2.591 -9.68783,3.90617 -3.15233,1.316 -6.286,2.622 -9.6355,3.8545 -3.34967,1.23333 -6.89267,2.3465 -10.8335,3.3345 -3.94,0.9855 -8.251,1.81883 -13.1763,2.39567 -4.926,0.575333 -10.467,0.936333 -16.771,0.936333 -6.30483,0 -11.7933,-0.361667 -16.719,-0.936333 -4.925,-0.576167 -9.28783,-1.41017 -13.2283,-2.39567 -3.941,-0.988 -7.48433,-2.10117 -10.8333,-3.3345 -3.34967,-1.2325 -6.53517,-2.5385 -9.6875,-3.8545 -3.15317,-1.315 -6.286,-2.67233 -9.63567,-3.90617 -3.349,-1.23333 -6.89283,-2.34633 -10.8323,-3.33283 -3.94117,-0.987167 -8.252,-1.8205 -13.1777,-2.396 -4.92433,-0.576 -10.4662,-0.9375 -16.771,-0.9375 -6.304,0 -11.7923,0.3615 -16.7183,0.9375 -4.92533,0.5755 -9.28917,1.40917 -13.229,2.396 -3.9405,0.9865 -7.48417,2.0995 -10.8333,3.33283 -3.34967,1.2335 -6.5355,2.591 -9.68767,3.90617 -3.152,1.316 -6.28583,2.622 -9.6355,3.8545 -3.349,1.23333 -6.89283,2.3465 -10.8325,3.3345 -3.941,0.9855 -8.2515,1.81883 -13.1775,2.39567 -4.925,0.575333 -10.4662,0.936333 -16.7702,0.936333 -6.30483,0 -11.7933,-0.361667 -16.719,-0.936333 -4.926,-0.576167 -9.289,-1.41017 -13.2295,-2.39567 -3.94117,-0.988 -7.43217,-2.10117 -10.782,-3.3345 -3.349,-1.2325 -6.58717,-2.5385 -9.739,-3.8545 -3.15233,-1.315 -6.2865,-2.67233 -9.63583,-3.90617 -3.349,-1.23333 -6.841,-2.34633 -10.7812,-3.33283 -3.94017,-0.987167 -8.3035,-1.8205 -13.2288,-2.396 -4.1005,-0.479333 -8.61367,-0.839333 -13.646,-0.9375l-0.00166667 0z" />
  <g
   id="_113368944">
   
   <path
   id="path9658"
   class="fil2"
   d="M200.029 32.5003l-1.979 6.107 -5.09 15.664 -16.4563 0 -6.447 0 5.20317 3.78983 13.3462 9.669 -5.0895 15.6085 -1.9795 6.10717 5.2025 -3.78833 13.2895 -9.613 13.2893 9.613 5.20267 3.78833 -1.979 -6.10717 -5.09 -15.6645 13.2893 -9.613 5.2025 -3.78983 -6.38983 0 -16.4563 0 -5.09017 -15.664 -1.97883 -6.107 0.001 0 -0.000666667 0zm0 13.515l3.5625 10.9703 0.452833 1.4705 1.526 0 11.48 0 -9.274 6.72917 -1.24433 0.904833 0.509 1.47 3.56183 10.9703 -9.331 -6.78617 -1.24417 -0.9045 -1.244 0.9045 -9.331 6.78617 3.56183 -10.9703 0.452667 -1.47 -1.18817 -0.904833 -9.274 -6.72917 11.48 0 1.52667 0 0.452833 -1.4705 3.56267 -10.9703 0.0015 0 0.000333333 0z" />
   <path
   id="_114089584"
   class="fil3 str0"
   d="M145.656 137.313l0 0 0 0 0 0m0 0m0 0m0 0" />
   <path
   id="_113368080"
   class="fil3 str0"
   d="M136.665 95.8292l0 0 0 0 0 0m0 0m0 0m0 0" />
   <path
   id="_113368328"
   class="fil3 str0"
   d="M136.665 95.8292l0 0 0 0 0 0m0 0m0 0m0 0" />
   
  </g>
  <path
   id="path2504"
   class="fil4"
   d="M196.2 333.281c-24.906,0.353 -39.0875,6.09883 -51.3028,11.1975 -12.6092,5.2645 -23.1303,9.896 -47.1352,9.896 -24.0043,0 -34.5265,-4.6315 -47.1353,-9.896 -12.108,-5.053 -26.125,-10.7015 -50.6248,-11.1448l0 13.3335c21.84,0.383 31.9565,4.8125 44.011,9.8435 12.6095,5.26283 27.3175,11.199 53.7495,11.199 26.433,0 41.1412,-5.93617 53.7498,-11.199 12.6092,-5.263 23.1303,-9.89617 47.1352,-9.89617 24.0043,0 34.5268,4.63317 47.1353,9.89617 12.6093,5.26283 27.3173,11.199 53.7498,11.199 26.433,0 41.0883,-5.93617 53.6975,-11.199 12.61,-5.263 23.183,-9.89617 47.1873,-9.89617 24.0043,0 34.5265,4.63317 47.1353,9.89617 12.6102,5.26283 27.2655,11.199 53.6985,11.199 26.4325,0 41.1405,-5.93617 53.749,-11.199 12.61,-5.263 23.1315,-9.89617 47.136,-9.89617 24.004,0 34.5778,4.63317 47.187,9.89617 12.6093,5.26283 27.2653,11.199 53.6985,11.199 26.432,0 41.1403,-5.93617 53.7495,-11.199 12.6093,-5.263 23.131,-9.89617 47.1353,-9.89617 24.004,0 34.5268,4.63317 47.1353,9.89617 12.6092,5.26283 27.3168,11.199 53.7498,11.199 26.4325,0 41.0885,-5.93617 53.6975,-11.199 11.5695,-4.829 21.4205,-9.11567 41.5105,-9.7915l0 -13.3337c-22.9278,0.778 -36.3945,6.21867 -48.073,11.0937 -12.609,5.2645 -23.131,9.896 -47.135,9.896 -24.0043,0 -34.5275,-4.6315 -47.136,-9.896 -12.6092,-5.263 -27.3168,-11.1975 -53.7495,-11.1975 -26.433,0 -41.141,5.9345 -53.7498,11.1975 -12.6092,5.2645 -23.131,9.896 -47.135,9.896 -24.0045,0 -34.5267,-4.6315 -47.136,-9.896 -12.6095,-5.263 -27.3175,-11.1975 -53.7495,-11.1975 -26.4332,0 -41.0885,5.9345 -53.698,11.1975 -12.6093,5.2645 -23.1838,9.896 -47.1873,9.896 -24.0043,0 -34.5258,-4.6315 -47.1358,-9.896 -12.6092,-5.263 -27.2655,-11.1975 -53.698,-11.1975 -26.432,0 -41.141,5.9345 -53.7498,11.1975 -12.609,5.2645 -23.1303,9.896 -47.135,9.896 -24.0043,0 -34.5785,-4.6315 -47.1873,-9.896 -12.6092,-5.263 -27.2655,-11.1975 -53.6978,-11.1975 -0.8255,0 -1.64417,-0.012 -2.44767,0l0.001 -0.000666667z" />
  <path
   id="path2511"
   class="fil4"
   d="M196.094 367.708c-26.1303,0.3895 -42.2638,6.724 -54.479,11.822 -12.6093,5.26383 -21.0638,9.2185 -43.8537,9.2185 -22.7905,0 -31.2445,-3.955 -43.8545,-9.2185 -12.1328,-5.064 -28.085,-11.3047 -53.906,-11.771l0 26.615c20.48,0.3475 28.763,4.202 40.781,9.219 12.6092,5.263 29.3325,11.823 56.9795,11.823 27.6465,0 44.4218,-6.56 57.0313,-11.823 12.6095,-5.264 21.0637,-9.219 43.8535,-9.219 22.7905,0 31.245,3.955 43.8543,9.219 12.6095,5.263 29.3847,11.823 57.0315,11.823 27.6465,0 44.37,-6.56 56.9785,-11.823 12.6093,-5.264 21.1158,-9.219 43.9063,-9.219 22.7905,0 31.2443,3.955 43.8545,9.219 12.609,5.263 29.3318,11.823 56.9788,11.823 27.6468,0 44.4218,-6.56 57.0307,-11.823 12.6095,-5.264 21.064,-9.219 43.8545,-9.219 22.7895,0 31.2443,3.955 43.8535,9.219 12.61,5.263 29.3845,11.823 57.032,11.823 27.6465,0 44.421,-6.56 57.0313,-11.823 12.6092,-5.264 21.0637,-9.219 43.8535,-9.219 22.7905,0 31.245,3.955 43.8538,9.219 12.61,5.263 29.3845,11.823 57.032,11.823 27.6467,0 44.422,-6.56 57.0308,-11.823 11.501,-4.801 19.558,-8.49967 38.1768,-9.115l0 -26.6665c-24.312,0.8215 -39.6313,6.8255 -51.3545,11.7185 -12.6092,5.26383 -21.0635,9.2185 -43.8528,9.2185 -22.7905,0 -31.245,-3.955 -43.8545,-9.2185 -12.6093,-5.263 -29.3845,-11.822 -57.0313,-11.822 -27.6465,0 -44.422,6.559 -57.0308,11.822 -12.6093,5.26383 -21.0638,9.2185 -43.8537,9.2185 -22.7905,0 -31.2453,-3.955 -43.8545,-9.2185 -12.6092,-5.263 -29.3845,-11.822 -57.0308,-11.822 -27.6465,0 -44.4218,6.559 -57.0307,11.822 -12.6102,5.26383 -21.064,9.2185 -43.8545,9.2185 -22.7898,0 -31.245,-3.955 -43.8538,-9.2185 -12.609,-5.263 -29.3318,-11.822 -56.9793,-11.822 -27.6467,0 -44.421,6.559 -57.0315,11.822 -12.609,5.26383 -21.0635,9.2185 -43.8533,9.2185 -22.7907,0 -31.2445,-3.955 -43.8538,-9.2185 -12.6102,-5.263 -29.3845,-11.822 -57.032,-11.822 -0.863667,0 -1.709,-0.013 -2.55217,0l-0.000666667 0 -0.000333333 0z" />
 <g
   style="fill-rule:evenodd"
   id="g3019"
   transform="matrix(0.83974109,0,0,0.83974109,-54.580148,45.231526)"><path
     sodipodi:nodetypes="ccccccccc"
     inkscape:connector-curvature="0"
     id="hammer_head"
     d="m 270.92298,88.355159 -33.98504,32.370421 18.12536,18.12534 15.65136,-15.75551 c 30.52185,30.97994 54.24551,55.06533 83.71885,84.97748 8.15951,8.45996 22.36846,-3.04386 13.26894,-12.8119 -31.13941,-30.3468 -52.72211,-52.25081 -85.16466,-84.06684 l 19.23453,-19.348081 z"
     style="fill:#ffd700;fill-opacity:1;fill-rule:evenodd;stroke:none" /><g
     transform="matrix(0.83334944,0,0,0.83334944,89.122595,-182.30111)"
     id="g3852"><path
       sodipodi:nodetypes="cccccccccccc"
       inkscape:connector-curvature="0"
       id="sickle_handle"
       d="m 216.7812,433.75 c 72.96097,67.686 191.19511,-54.3637 40.09375,-142.8125 l 5e-5,0 c 112.44686,124.9296 4.49418,163.2273 -34.59375,124.6875 L 220.3125,414 c -1.5958,1.79152 -3.19491,3.58011 -4.78871,5.37341 -3.02847,-2.85878 -7.73236,-3.69883 -9.18009,1.18909 -5.95051,-0.4117 -9.44226,2.885 -11,9.0625 -11.06856,7.3329 -23.05082,13.76655 -29.9375,25.28125 -3.93605,12.18 3.84864,17.47725 12.65625,16.46875 14.43702,-5.9976 18.89869,-18.96115 26.625,-29.65625 5.46174,-1.7386 10.0877,-4.07577 10.93599,-9.048"
       style="fill:#ffd700;fill-opacity:1;fill-rule:evenodd;stroke:none" /></g></g></g>
 <g
   id="Layer_x0020_1_0">
  <metadata
   id="CorelCorpID_1Corel-Layer" />
 </g>
</svg>