<?xml version="1.0" encoding="UTF-8" standalone="no"?>
<!-- Generator: Adobe Illustrator 12.0.0, SVG Export Plug-In . SVG Version: 6.00 Build 51448)  -->

<svg
   xmlns:dc="http://purl.org/dc/elements/1.1/"
   xmlns:cc="http://creativecommons.org/ns#"
   xmlns:rdf="http://www.w3.org/1999/02/22-rdf-syntax-ns#"
   xmlns:svg="http://www.w3.org/2000/svg"
   xmlns="http://www.w3.org/2000/svg"
   xmlns:sodipodi="http://sodipodi.sourceforge.net/DTD/sodipodi-0.dtd"
   xmlns:inkscape="http://www.inkscape.org/namespaces/inkscape"
   version="1.1"
   id="Flag_of_Moldavian_SSR"
   width="600"
   height="300"
   viewBox="0 0 600 300"
   style="overflow:visible;enable-background:new 0 0 600 300;"
   xml:space="preserve"
   inkscape:version="0.48.3.1 r9886"
   sodipodi:docname="Flag_of_Moldavian_SSR.svg"><metadata
   id="metadata23"><rdf:RDF><cc:Work
       rdf:about=""><dc:format>image/svg+xml</dc:format><dc:type
         rdf:resource="http://purl.org/dc/dcmitype/StillImage" /></cc:Work></rdf:RDF></metadata><defs
   id="defs21" /><sodipodi:namedview
   pagecolor="#ffffff"
   bordercolor="#666666"
   borderopacity="1"
   objecttolerance="10"
   gridtolerance="10"
   guidetolerance="10"
   inkscape:pageopacity="0"
   inkscape:pageshadow="2"
   inkscape:window-width="1600"
   inkscape:window-height="848"
   id="namedview19"
   showgrid="false"
   inkscape:zoom="6.9579307"
   inkscape:cx="104.14511"
   inkscape:cy="216.91429"
   inkscape:window-x="-8"
   inkscape:window-y="-8"
   inkscape:window-maximized="1"
   inkscape:current-layer="Layer_x0020_1" />
<g
   id="Layer_x0020_1">
	<g
   id="_149193160">
		<rect
   id="rect1948"
   style="fill:#CC0000;"
   width="600"
   height="300" />
		<rect
   id="_149193432"
   y="112.5"
   style="fill:#009900;"
   width="600"
   height="75" />
	</g>
	<path
   style="fill:none;stroke:#000000;stroke-width:0.288;"
   d="M49.259,64.4L49.259,64.4L49.259,64.4L49.259,64.4"
   id="path7" />
	<path
   style="fill:none;stroke:#000000;stroke-width:0.288;"
   d="M45,44.75L45,44.75L45,44.75L45,44.75"
   id="path9" />
	<path
   style="fill:none;stroke:#000000;stroke-width:0.288;"
   d="M45,44.75L45,44.75L45,44.75L45,44.75"
   id="path11" />
	<g
   id="_149188240">
		<path
   id="path9658"
   style="fill:#FFD700;"
   d="M75.013,14.753l-0.938,2.893l-2.411,7.42h-7.794h-3.054l2.464,1.795l6.321,4.58l-2.411,7.393    l-0.937,2.893l2.464-1.794l6.294-4.554l6.294,4.554l2.464,1.794l-0.937-2.893l-2.411-7.419l6.294-4.553l2.464-1.795h-3.026h-7.794    l-2.411-7.42L75.013,14.753z M75.013,21.155l1.688,5.196l0.214,0.697h0.724h5.437l-4.393,3.187l-0.589,0.429l0.241,0.696    l1.688,5.196l-4.42-3.214l-0.589-0.429l-0.589,0.429l-4.42,3.214l1.688-5.196l0.214-0.696l-0.563-0.429l-4.393-3.187h5.437h0.724    l0.214-0.697L75.013,21.155L75.013,21.155z" />
		
	</g>
<g
   style="fill-rule:evenodd"
   id="g3019"
   transform="matrix(0.39974453,0,0,0.39974453,-46.153031,20.584401)"><path
     sodipodi:nodetypes="ccccccccc"
     inkscape:connector-curvature="0"
     id="hammer_head"
     d="m 270.92298,88.355159 -33.98504,32.370421 18.12536,18.12534 15.65136,-15.75551 c 30.52185,30.97994 54.24551,55.06533 83.71885,84.97748 8.15951,8.45996 22.36846,-3.04386 13.26894,-12.8119 -31.13941,-30.3468 -52.72211,-52.25081 -85.16466,-84.06684 l 19.23453,-19.348081 z"
     style="fill:#ffd700;fill-opacity:1;fill-rule:evenodd;stroke:none" /><g
     transform="matrix(0.83334944,0,0,0.83334944,89.122595,-182.30111)"
     id="g3852"><path
       sodipodi:nodetypes="cccccccccccc"
       inkscape:connector-curvature="0"
       id="sickle_handle"
       d="m 216.7812,433.75 c 72.96097,67.686 191.19511,-54.3637 40.09375,-142.8125 l 5e-5,0 c 112.44686,124.9296 4.49418,163.2273 -34.59375,124.6875 L 220.3125,414 c -1.5958,1.79152 -3.19491,3.58011 -4.78871,5.37341 -3.02847,-2.85878 -7.73236,-3.69883 -9.18009,1.18909 -5.95051,-0.4117 -9.44226,2.885 -11,9.0625 -11.06856,7.3329 -23.05082,13.76655 -29.9375,25.28125 -3.93605,12.18 3.84864,17.47725 12.65625,16.46875 14.43702,-5.9976 18.89869,-18.96115 26.625,-29.65625 5.46174,-1.7386 10.0877,-4.07577 10.93599,-9.048"
       style="fill:#ffd700;fill-opacity:1;fill-rule:evenodd;stroke:none" /></g></g></g>
</svg>