<?xml version="1.0" encoding="UTF-8" standalone="no"?>
<!-- Generator: Adobe Illustrator 12.0.0, SVG Export Plug-In . SVG Version: 6.00 Build 51448)  -->

<svg
   xmlns:dc="http://purl.org/dc/elements/1.1/"
   xmlns:cc="http://creativecommons.org/ns#"
   xmlns:rdf="http://www.w3.org/1999/02/22-rdf-syntax-ns#"
   xmlns:svg="http://www.w3.org/2000/svg"
   xmlns="http://www.w3.org/2000/svg"
   xmlns:sodipodi="http://sodipodi.sourceforge.net/DTD/sodipodi-0.dtd"
   xmlns:inkscape="http://www.inkscape.org/namespaces/inkscape"
   version="1.1"
   id="Flag_of_the_Tajik_SSR"
   width="600"
   height="300"
   viewBox="0 0 600 300"
   style="overflow:visible;enable-background:new 0 0 600 300;"
   xml:space="preserve"
   inkscape:version="0.48.3.1 r9886"
   sodipodi:docname="Flag_of_Tajik_SSR.svg"><metadata
   id="metadata21"><rdf:RDF><cc:Work
       rdf:about=""><dc:format>image/svg+xml</dc:format><dc:type
         rdf:resource="http://purl.org/dc/dcmitype/StillImage" /></cc:Work></rdf:RDF></metadata><defs
   id="defs19" /><sodipodi:namedview
   pagecolor="#ffffff"
   bordercolor="#666666"
   borderopacity="1"
   objecttolerance="10"
   gridtolerance="10"
   guidetolerance="10"
   inkscape:pageopacity="0"
   inkscape:pageshadow="2"
   inkscape:window-width="1600"
   inkscape:window-height="848"
   id="namedview17"
   showgrid="false"
   inkscape:zoom="4.92"
   inkscape:cx="110.34172"
   inkscape:cy="236.6092"
   inkscape:window-x="-8"
   inkscape:window-y="-8"
   inkscape:window-maximized="1"
   inkscape:current-layer="g10" />
<g
   id="Layer_x0020_1">
	<g
   id="_24287672">
		<rect
   id="rect1948"
   style="fill:#CC0000;"
   width="600"
   height="300" />
		<rect
   id="_149193080"
   y="209.84"
   style="fill:#009900;"
   width="600"
   height="30" />
		<rect
   id="_149192368"
   y="149.84"
   style="fill:#FFFFFF;"
   width="600"
   height="60" />
	</g>
	<g
   id="_149126240">
		<path
   id="path9658"
   style="fill:#FFD700;"
   d="M75,10.641l-1.172,3.616l-3.013,9.274h-9.744h-3.817l3.081,2.244l7.902,5.725l-3.014,9.242    l-1.171,3.616l3.08-2.243L75,36.422l7.868,5.692l3.081,2.243l-1.172-3.616l-3.013-9.275l7.868-5.692l3.081-2.244h-3.784h-9.743    l-3.013-9.274L75,10.641L75,10.641z M75,18.643l2.109,6.495l0.268,0.871h0.904h6.796l-5.491,3.984l-0.737,0.536l0.301,0.87    l2.109,6.496l-5.524-4.018L75,33.342l-0.736,0.536l-5.524,4.018l2.109-6.496l0.268-0.87l-0.703-0.536l-5.491-3.984h6.797h0.904    l0.268-0.871L75,18.643L75,18.643z" />
		<g
   id="g10">
			
			<path
   id="_149227496"
   style="fill:none;stroke:#000000;stroke-width:0.288;"
   d="M42.807,72.699L42.807,72.699L42.807,72.699L42.807,72.699" />
			<path
   id="_149226808"
   style="fill:none;stroke:#000000;stroke-width:0.288;"
   d="M37.483,48.138L37.483,48.138L37.483,48.138L37.483,48.138" />
			<path
   id="_149226120"
   style="fill:none;stroke:#000000;stroke-width:0.288;"
   d="M37.483,48.138L37.483,48.138L37.483,48.138L37.483,48.138" />
			
		<g
   style="fill-rule:evenodd"
   id="g3019"
   transform="matrix(0.49905416,0,0,0.49905416,-76.190917,18.095628)"><path
     sodipodi:nodetypes="ccccccccc"
     inkscape:connector-curvature="0"
     id="hammer_head"
     d="m 270.92298,88.355159 -33.98504,32.370421 18.12536,18.12534 15.65136,-15.75551 c 30.52185,30.97994 54.24551,55.06533 83.71885,84.97748 8.15951,8.45996 22.36846,-3.04386 13.26894,-12.8119 -31.13941,-30.3468 -52.72211,-52.25081 -85.16466,-84.06684 l 19.23453,-19.348081 z"
     style="fill:#ffd700;fill-opacity:1;fill-rule:evenodd;stroke:none" /><g
     transform="matrix(0.83334944,0,0,0.83334944,89.122595,-182.30111)"
     id="g3852"><path
       sodipodi:nodetypes="cccccccccccc"
       inkscape:connector-curvature="0"
       id="sickle_handle"
       d="m 216.7812,433.75 c 72.96097,67.686 191.19511,-54.3637 40.09375,-142.8125 l 5e-5,0 c 112.44686,124.9296 4.49418,163.2273 -34.59375,124.6875 L 220.3125,414 c -1.5958,1.79152 -3.19491,3.58011 -4.78871,5.37341 -3.02847,-2.85878 -7.73236,-3.69883 -9.18009,1.18909 -5.95051,-0.4117 -9.44226,2.885 -11,9.0625 -11.06856,7.3329 -23.05082,13.76655 -29.9375,25.28125 -3.93605,12.18 3.84864,17.47725 12.65625,16.46875 14.43702,-5.9976 18.89869,-18.96115 26.625,-29.65625 5.46174,-1.7386 10.0877,-4.07577 10.93599,-9.048"
       style="fill:#ffd700;fill-opacity:1;fill-rule:evenodd;stroke:none" /></g></g></g>
	</g>
</g>
</svg>