<?xml version="1.0" encoding="UTF-8" standalone="no"?>
<!-- Creator: CorelDRAW -->

<svg
   xmlns:dc="http://purl.org/dc/elements/1.1/"
   xmlns:cc="http://creativecommons.org/ns#"
   xmlns:rdf="http://www.w3.org/1999/02/22-rdf-syntax-ns#"
   xmlns:svg="http://www.w3.org/2000/svg"
   xmlns="http://www.w3.org/2000/svg"
   xmlns:sodipodi="http://sodipodi.sourceforge.net/DTD/sodipodi-0.dtd"
   xmlns:inkscape="http://www.inkscape.org/namespaces/inkscape"
   xml:space="preserve"
   width="600px"
   height="300px"
   style="shape-rendering:geometricPrecision; text-rendering:geometricPrecision; image-rendering:optimizeQuality; fill-rule:evenodd; clip-rule:evenodd"
   viewBox="0 0 600 300"
   sodipodi:version="0.32"
   inkscape:version="0.48.3.1 r9886"
   sodipodi:docname="Flag_of_Ukrainian_SSR.svg"
   version="1.0"
   id="svg2"><metadata
   id="metadata20"><rdf:RDF><cc:Work
       rdf:about=""><dc:format>image/svg+xml</dc:format><dc:type
         rdf:resource="http://purl.org/dc/dcmitype/StillImage" /></cc:Work></rdf:RDF></metadata><sodipodi:namedview
   pagecolor="#ffffff"
   bordercolor="#666666"
   borderopacity="1"
   objecttolerance="10"
   gridtolerance="10"
   guidetolerance="10"
   inkscape:pageopacity="0"
   inkscape:pageshadow="2"
   inkscape:window-width="1600"
   inkscape:window-height="848"
   id="namedview18"
   showgrid="false"
   inkscape:zoom="4.92"
   inkscape:cx="271.20618"
   inkscape:cy="224.76298"
   inkscape:window-x="-8"
   inkscape:window-y="-8"
   inkscape:window-maximized="1"
   inkscape:current-layer="Слой_x0020_1" />
 <defs
   id="defs4">
  <style
   type="text/css"
   id="style6">
   
    .fil2 {fill:#007FFF}
    .fil0 {fill:#CC0000}
    .fil1 {fill:gold}
   
  </style>
 </defs>
 <g
   id="Слой_x0020_1">
  <metadata
   id="CorelCorpID_0Corel-Layer" />
  <sodipodi:namedview
   inkscape:window-height="573"
   inkscape:window-width="853"
   inkscape:pageshadow="2"
   inkscape:pageopacity="0.0"
   guidetolerance="10.0"
   gridtolerance="10.0"
   objecttolerance="10.0"
   borderopacity="1.0"
   bordercolor="#666666"
   pagecolor="#ffffff"
   id="base"
   inkscape:zoom="1.2566667"
   inkscape:cx="300.00001"
   inkscape:cy="150"
   inkscape:window-x="-22"
   inkscape:window-y="-17"
   inkscape:current-layer="svg1" />
  <rect
   id="rect908"
   class="fil0"
   x="-1.8999e-005"
   width="600"
   height="300" />
  
  
  <path
   id="path9658"
   class="fil1"
   d="M199.78 20.3019l-1.1709 3.6126 -3.0108 9.2664 -9.7347 0 -3.8136 0 3.0777 2.2416 7.8948 5.7198 -3.0108 9.2331 -1.1706 3.6126 3.0777 -2.241 7.8612 -5.6868 7.8615 5.6868 3.0774 2.241 -1.1706 -3.6126 -3.0108 -9.2661 7.8615 -5.6868 3.0774 -2.2416 -3.78 0 -9.7347 0 -3.0105 -9.2664 -1.1712 -3.6126zm0 7.995l2.1075 6.4896 0.2679 0.87 0.9033 0 6.7905 0 -5.4861 3.9807 -0.7359 0.5352 0.3009 0.8697 2.1075 6.4899 -5.5197 -4.0143 -0.7359 -0.5352 -0.7359 0.5352 -5.5197 4.0143 2.1075 -6.4899 0.2676 -0.8697 -0.7026 -0.5352 -5.4861 -3.9807 6.7908 0 0.9033 0 0.2676 -0.87 2.1075 -6.4896z" />
  <rect
   id="rect1312"
   class="fil2"
   x="-1.8999e-005"
   y="200"
   width="600"
   height="99.9999" />
 <g
   style="fill-rule:evenodd"
   id="g3019"
   transform="matrix(0.49899531,0,0,0.49899531,48.678458,27.652013)"><path
     sodipodi:nodetypes="ccccccccc"
     inkscape:connector-curvature="0"
     id="hammer_head"
     d="m 270.92298,88.355159 -33.98504,32.370421 18.12536,18.12534 15.65136,-15.75551 c 30.52185,30.97994 54.24551,55.06533 83.71885,84.97748 8.15951,8.45996 22.36846,-3.04386 13.26894,-12.8119 -31.13941,-30.3468 -52.72211,-52.25081 -85.16466,-84.06684 l 19.23453,-19.348081 z"
     style="fill:#ffd700;fill-opacity:1;fill-rule:evenodd;stroke:none" /><g
     transform="matrix(0.83334944,0,0,0.83334944,89.122595,-182.30111)"
     id="g3852"><path
       sodipodi:nodetypes="cccccccccccc"
       inkscape:connector-curvature="0"
       id="sickle_handle"
       d="m 216.7812,433.75 c 72.96097,67.686 191.19511,-54.3637 40.09375,-142.8125 l 5e-5,0 c 112.44686,124.9296 4.49418,163.2273 -34.59375,124.6875 L 220.3125,414 c -1.5958,1.79152 -3.19491,3.58011 -4.78871,5.37341 -3.02847,-2.85878 -7.73236,-3.69883 -9.18009,1.18909 -5.95051,-0.4117 -9.44226,2.885 -11,9.0625 -11.06856,7.3329 -23.05082,13.76655 -29.9375,25.28125 -3.93605,12.18 3.84864,17.47725 12.65625,16.46875 14.43702,-5.9976 18.89869,-18.96115 26.625,-29.65625 5.46174,-1.7386 10.0877,-4.07577 10.93599,-9.048"
       style="fill:#ffd700;fill-opacity:1;fill-rule:evenodd;stroke:none" /></g></g></g>
 <g
   id="Layer_x0020_1">
  <metadata
   id="CorelCorpID_1Corel-Layer" />
 </g>
</svg>