<?xml version="1.0" encoding="UTF-8" standalone="no"?>
<!-- Creator: CorelDRAW -->

<svg
   xmlns:dc="http://purl.org/dc/elements/1.1/"
   xmlns:cc="http://creativecommons.org/ns#"
   xmlns:rdf="http://www.w3.org/1999/02/22-rdf-syntax-ns#"
   xmlns:svg="http://www.w3.org/2000/svg"
   xmlns="http://www.w3.org/2000/svg"
   xmlns:sodipodi="http://sodipodi.sourceforge.net/DTD/sodipodi-0.dtd"
   xmlns:inkscape="http://www.inkscape.org/namespaces/inkscape"
   xml:space="preserve"
   width="600px"
   height="300px"
   style="shape-rendering:geometricPrecision; text-rendering:geometricPrecision; image-rendering:optimizeQuality; fill-rule:evenodd; clip-rule:evenodd"
   viewBox="0 0 600 300"
   version="1.0"
   id="svg2"
   inkscape:version="0.48.3.1 r9886"
   sodipodi:docname="Flag_of_Uzbek_SSR.svg"><metadata
   id="metadata25"><rdf:RDF><cc:Work
       rdf:about=""><dc:format>image/svg+xml</dc:format><dc:type
         rdf:resource="http://purl.org/dc/dcmitype/StillImage" /></cc:Work></rdf:RDF></metadata><sodipodi:namedview
   pagecolor="#ffffff"
   bordercolor="#666666"
   borderopacity="1"
   objecttolerance="10"
   gridtolerance="10"
   guidetolerance="10"
   inkscape:pageopacity="0"
   inkscape:pageshadow="2"
   inkscape:window-width="1600"
   inkscape:window-height="848"
   id="namedview23"
   showgrid="false"
   inkscape:zoom="6.9579307"
   inkscape:cx="121.88539"
   inkscape:cy="214.8307"
   inkscape:window-x="-8"
   inkscape:window-y="-8"
   inkscape:window-maximized="1"
   inkscape:current-layer="svg2" />
 <defs
   id="defs4">
  <style
   type="text/css"
   id="style6">
   
    .str0 {stroke:black;stroke-width:0.048}
    .fil4 {fill:none}
    .fil2 {fill:#3399FF}
    .fil0 {fill:#CC0000}
    .fil3 {fill:gold}
    .fil1 {fill:white}
   
  </style>
 </defs>
 <g
   id="Слой_x0020_1">
  <metadata
   id="CorelCorpID_0Corel-Layer" />
  <rect
   id="red_x0020_background"
   class="fil0"
   width="600"
   height="300" />
  <rect
   id="rect1853"
   class="fil1"
   y="120"
   width="600"
   height="60" />
  <rect
   id="rect2746"
   class="fil2"
   y="123"
   width="600"
   height="54" />
 </g>
 <g
   id="Слой_x0020_1_0">
  <metadata
   id="CorelCorpID_1Corel-Layer" />
  
  <path
   id="path9658"
   class="fil3"
   d="M100.013 15.0003l-0.9378 2.8926 -2.4108 7.4202 -7.7946 0 -3.0537 0 2.4642 1.7949 6.3216 4.5798 -2.4111 7.3935 -0.9372 2.8929 2.4642 -1.7943 6.2949 -4.5537 6.2946 4.5537 2.4645 1.7943 -0.9375 -2.8929 -2.4108 -7.4199 6.2946 -4.5534 2.4645 -1.7949 -3.0267 0 -7.7946 0 -2.4111 -7.4202 -0.9372 -2.8926 0.0009 0 -0.0009 0zm0 6.4017l1.6872 5.1969 0.2142 0.6966 0.7236 0 5.4372 0 -4.3929 3.1872 -0.5895 0.4281 0.2409 0.6966 1.6875 5.1966 -4.4196 -3.2145 -0.5895 -0.429 -0.5892 0.429 -4.4196 3.2145 1.6872 -5.1966 0.2142 -0.6966 -0.5628 -0.4281 -4.3929 -3.1872 5.4381 0 0.7233 0 0.2142 -0.6966 1.6875 -5.1969 0.0009 0z" />
  <path
   id="_189213976"
   class="fil4 str0"
   d="M74.2587 64.6485l0 0 0 0 0 0m0 0m0 0m0 0" />
  <path
   id="_189333592"
   class="fil4 str0"
   d="M69.999 44.9982l0 0 0 0 0 0m0 0m0 0m0 0" />
  <path
   id="_190040088"
   class="fil4 str0"
   d="M69.999 44.9982l0 0 0 0 0 0m0 0m0 0m0 0" />
  
 </g>
 <g
   id="Layer_x0020_1">
  <metadata
   id="CorelCorpID_2Corel-Layer" />
 </g>
<g
   style="fill-rule:evenodd"
   id="g3019"
   transform="matrix(0.3988751,0,0,0.3988751,-20.679629,20.924141)"><path
     sodipodi:nodetypes="ccccccccc"
     inkscape:connector-curvature="0"
     id="hammer_head"
     d="m 270.92298,88.355159 -33.98504,32.370421 18.12536,18.12534 15.65136,-15.75551 c 30.52185,30.97994 54.24551,55.06533 83.71885,84.97748 8.15951,8.45996 22.36846,-3.04386 13.26894,-12.8119 -31.13941,-30.3468 -52.72211,-52.25081 -85.16466,-84.06684 l 19.23453,-19.348081 z"
     style="fill:#ffd700;fill-opacity:1;fill-rule:evenodd;stroke:none" /><g
     transform="matrix(0.83334944,0,0,0.83334944,89.122595,-182.30111)"
     id="g3852"><path
       sodipodi:nodetypes="cccccccccccc"
       inkscape:connector-curvature="0"
       id="sickle_handle"
       d="m 216.7812,433.75 c 72.96097,67.686 191.19511,-54.3637 40.09375,-142.8125 l 5e-5,0 c 112.44686,124.9296 4.49418,163.2273 -34.59375,124.6875 L 220.3125,414 c -1.5958,1.79152 -3.19491,3.58011 -4.78871,5.37341 -3.02847,-2.85878 -7.73236,-3.69883 -9.18009,1.18909 -5.95051,-0.4117 -9.44226,2.885 -11,9.0625 -11.06856,7.3329 -23.05082,13.76655 -29.9375,25.28125 -3.93605,12.18 3.84864,17.47725 12.65625,16.46875 14.43702,-5.9976 18.89869,-18.96115 26.625,-29.65625 5.46174,-1.7386 10.0877,-4.07577 10.93599,-9.048"
       style="fill:#ffd700;fill-opacity:1;fill-rule:evenodd;stroke:none" /></g></g></svg>